<svg xmlns="http://www.w3.org/2000/svg" width="2000" height="2000" viewBox="-10 -10 20 20" shape-rendering="geometricPrecision">
  <clipPath id="clip0">
    <circle id="circle-0" cx="0" cy="0" r="10" fill="transparent"/>
  </clipPath>
  <g id="clipgroup-0" clip-path="url(#clip0)">
    <rect id="fill-0" x="-10" y="-10" width="20" height="20" fill="transparent"/>
    <path id="cross-0" d="M -0.5 0 L 0.5 0 M 0 -0.5 L 0 0.5" fill="none" stroke="red" stroke-width="0.05" stroke-linejoin="miter" stroke-linecap="miter"/>
    <line id="hline-0" x1="-0.5" y1="1" x2="0.5" y2="1" stroke="red" stroke-width="0.05"/>
    <line id="hline-1" x1="-0.5" y1="-1" x2="0.5" y2="-1" stroke="red" stroke-width="0.05"/>
    <line id="hline-2" x1="-1" y1="5" x2="1" y2="5" stroke="red" stroke-width="0.05"/>
    <line id="hline-3" x1="-0.5" y1="-5" x2="0.5" y2="-5" stroke="red" stroke-width="0.05"/>
    <path id="vruler-0" d="M -0.4 -5 L 0.4 -5 M -0.4 -4 L 0.4 -4 M -0.4 -3 L 0.4 -3 M -0.4 -2 L 0.4 -2" fill="none" stroke="red" stroke-width="0.05" stroke-linejoin="miter" stroke-linecap="miter"/>
    <path id="vruler-1" d="M -0.2 -3.5 L 0.2 -3.5 M -0.2 -2.5 L 0.2 -2.5 M -0.2 -1.5 L 0.2 -1.5" fill="none" stroke="red" stroke-width="0.05" stroke-linejoin="miter" stroke-linecap="miter"/>
    <path id="vruler-2" d="M -0.4 2 L 0.4 2 M -0.4 3 L 0.4 3 M -0.4 4 L 0.4 4 M -0.4 5 L 0.4 5 M -0.4 6 L 0.4 6 M -0.4 7 L 0.4 7 M -0.4 8 L 0.4 8 M -0.4 9 L 0.4 9 M -0.4 10 L 0.4 10" fill="none" stroke="red" stroke-width="0.05" stroke-linejoin="miter" stroke-linecap="miter"/>
    <path id="vruler-3" d="M -0.2 1.5 L 0.2 1.5 M -0.2 2.5 L 0.2 2.5 M -0.2 3.5 L 0.2 3.5 M -0.2 4.5 L 0.2 4.5 M -0.2 5.5 L 0.2 5.5 M -0.2 6.5 L 0.2 6.5 M -0.2 7.5 L 0.2 7.5 M -0.2 8.5 L 0.2 8.5 M -0.2 9.5 L 0.2 9.5" fill="none" stroke="red" stroke-width="0.05" stroke-linejoin="miter" stroke-linecap="miter"/>
    <path id="hruler-0" d="M -5 -0.5 L -5 0.5 M 5 -0.5 L 5 0.5" fill="none" stroke="red" stroke-width="0.05" stroke-linejoin="miter" stroke-linecap="miter"/>
    <path id="hruler-1" d="M -1 -0.5 L -1 0.5 M 1 -0.5 L 1 0.5" fill="none" stroke="red" stroke-width="0.05" stroke-linejoin="miter" stroke-linecap="miter"/>
    <path id="hruler-2" d="M -5 0 L -5 0.4 M -4 0 L -4 0.4 M -3 0 L -3 0.4 M -2 0 L -2 0.4 M -1 0 L -1 0.4" fill="none" stroke="red" stroke-width="0.05" stroke-linejoin="miter" stroke-linecap="miter"/>
    <path id="hruler-3" d="M 5 0 L 5 0.4 M 4 0 L 4 0.4 M 3 0 L 3 0.4 M 2 0 L 2 0.4 M 1 0 L 1 0.4" fill="none" stroke="red" stroke-width="0.05" stroke-linejoin="miter" stroke-linecap="miter"/>
    <path id="hruler-4" d="M -4 0 L -4 0.2 M -3.5 0 L -3.5 0.2 M -3 0 L -3 0.2 M -2.5 0 L -2.5 0.2 M -2 0 L -2 0.2 M -1.5 0 L -1.5 0.2 M -1 0 L -1 0.2" fill="none" stroke="red" stroke-width="0.05" stroke-linejoin="miter" stroke-linecap="miter"/>
    <path id="hruler-5" d="M 4 0 L 4 0.2 M 3.5 0 L 3.5 0.2 M 3 0 L 3 0.2 M 2.5 0 L 2.5 0.2 M 2 0 L 2 0.2 M 1.5 0 L 1.5 0.2 M 1 0 L 1 0.2" fill="none" stroke="red" stroke-width="0.05" stroke-linejoin="miter" stroke-linecap="miter"/>
    <path id="hruler-6" d="M -5 0 L -5 0.2 M -4.8 0 L -4.8 0.2 M -4.6 0 L -4.6 0.2 M -4.4 0 L -4.4 0.2 M -4.2 0 L -4.2 0.2 M -4 0 L -4 0.2" fill="none" stroke="red" stroke-width="0.05" stroke-linejoin="miter" stroke-linecap="miter"/>
    <path id="hruler-7" d="M 5 0 L 5 0.2 M 4.8 0 L 4.8 0.2 M 4.6 0 L 4.6 0.2 M 4.4 0 L 4.4 0.2 M 4.2 0 L 4.2 0.2 M 4 0 L 4 0.2" fill="none" stroke="red" stroke-width="0.05" stroke-linejoin="miter" stroke-linecap="miter"/>
    <path id="vdashline-0" d="M 0 1.3 L 0 1.7 M 0 1.8 L 0 2.2 M 0 2.3 L 0 2.7 M 0 2.8 L 0 3.2 M 0 3.3 L 0 3.7 M 0 3.8 L 0 4.2 M 0 4.3 L 0 4.7 M 0 4.8 L 0 5.2 M 0 5.3 L 0 5.7 M 0 5.8 L 0 6.2 M 0 6.3 L 0 6.7 M 0 6.8 L 0 7.2 M 0 7.3 L 0 7.7 M 0 7.8 L 0 8.2 M 0 8.3 L 0 8.7 M 0 8.8 L 0 9.2 M 0 9.3 L 0 9.7 M 0 9.8 L 0 10" fill="none" stroke="red" stroke-width="0.05" stroke-linejoin="miter" stroke-linecap="miter"/>
    <path id="vdashline-1" d="M 0 -1.3 L 0 -1.7 M 0 -1.8 L 0 -2.2 M 0 -2.3 L 0 -2.7 M 0 -2.8 L 0 -3.2 M 0 -3.3 L 0 -3.7 M 0 -3.8 L 0 -4.2 M 0 -4.3 L 0 -4.7 M 0 -4.8 L 0 -5" fill="none" stroke="red" stroke-width="0.05" stroke-linejoin="miter" stroke-linecap="miter"/>
    <path id="hdashline-0" d="M 1.3 0 L 1.7 0 M 1.8 0 L 2.2 0 M 2.3 0 L 2.7 0 M 2.8 0 L 3.2 0 M 3.3 0 L 3.7 0 M 3.8 0 L 4 0" fill="none" stroke="red" stroke-width="0.05" stroke-linejoin="miter" stroke-linecap="miter"/>
    <path id="hdashline-1" d="M -1.3 0 L -1.7 0 M -1.8 0 L -2.2 0 M -2.3 0 L -2.7 0 M -2.8 0 L -3.2 0 M -3.3 0 L -3.7 0 M -3.8 0 L -4 0" fill="none" stroke="red" stroke-width="0.05" stroke-linejoin="miter" stroke-linecap="miter"/>
    <line id="hline-4" x1="-5" y1="0" x2="-4" y2="0" stroke="red" stroke-width="0.05"/>
    <line id="hline-5" x1="5" y1="0" x2="4" y2="0" stroke="red" stroke-width="0.05"/>
    <line id="hline-6" x1="0.6" y1="0" x2="1.2" y2="0" stroke="red" stroke-width="0.05"/>
    <line id="hline-7" x1="-0.6" y1="0" x2="-1.2" y2="0" stroke="red" stroke-width="0.05"/>
    <line id="vline-0" x1="0" y1="0.6" x2="0" y2="1.2" stroke="red" stroke-width="0.05"/>
    <line id="vline-1" x1="0" y1="-0.6" x2="0" y2="-1.2" stroke="red" stroke-width="0.05"/>
    <path id="label-0" d="M -4.099 -0.946 L -4.099 -0.766 M -3.901 -0.946 L -3.901 -0.766 M -4.099 -0.766 L -3.901 -0.766 M -3.901 -0.766 L -3.901 -0.586" fill="none" stroke="onSurface" stroke-width="0.032" stroke-linejoin="round" stroke-linecap="round"/>
    <path id="label-1" d="M -2.099 -0.946 L -1.901 -0.946 M -1.901 -0.946 L -1.901 -0.766 M -2.099 -0.766 L -1.901 -0.766 M -2.099 -0.766 L -2.099 -0.586 M -2.099 -0.586 L -1.901 -0.586" fill="none" stroke="onSurface" stroke-width="0.032" stroke-linejoin="round" stroke-linecap="round"/>
    <path id="label-2" d="M 1.901 -0.946 L 2.099 -0.946 M 2.099 -0.946 L 2.099 -0.766 M 1.901 -0.766 L 2.099 -0.766 M 1.901 -0.766 L 1.901 -0.586 M 1.901 -0.586 L 2.099 -0.586" fill="none" stroke="onSurface" stroke-width="0.032" stroke-linejoin="round" stroke-linecap="round"/>
    <path id="label-3" d="M 3.901 -0.946 L 3.901 -0.766 M 4.099 -0.946 L 4.099 -0.766 M 3.901 -0.766 L 4.099 -0.766 M 4.099 -0.766 L 4.099 -0.586" fill="none" stroke="onSurface" stroke-width="0.032" stroke-linejoin="round" stroke-linecap="round"/>
    <path id="label-4" d="M -1.099 1.82 L -0.901 1.82 M -0.901 1.82 L -0.901 2 M -1.099 2 L -0.901 2 M -1.099 2 L -1.099 2.18 M -1.099 2.18 L -0.901 2.18" fill="none" stroke="onSurface" stroke-width="0.032" stroke-linejoin="round" stroke-linecap="round"/>
    <path id="label-5" d="M -1.099 3.82 L -1.099 4 M -0.901 3.82 L -0.901 4 M -1.099 4 L -0.901 4 M -0.901 4 L -0.901 4.18" fill="none" stroke="onSurface" stroke-width="0.032" stroke-linejoin="round" stroke-linecap="round"/>
    <path id="label-6" d="M -1.099 5.82 L -0.901 5.82 M -1.099 5.82 L -1.099 6 M -1.099 6 L -0.901 6 M -1.099 6 L -1.099 6.18 M -0.901 6 L -0.901 6.18 M -1.099 6.18 L -0.901 6.18" fill="none" stroke="onSurface" stroke-width="0.032" stroke-linejoin="round" stroke-linecap="round"/>
    <path id="label-7" d="M -1.099 7.82 L -0.901 7.82 M -1.099 7.82 L -1.099 8 M -0.901 7.82 L -0.901 8 M -1.099 8 L -0.901 8 M -1.099 8 L -1.099 8.18 M -0.901 8 L -0.901 8.18 M -1.099 8.18 L -0.901 8.18" fill="none" stroke="onSurface" stroke-width="0.032" stroke-linejoin="round" stroke-linecap="round"/>
    <path id="label-8" d="M -1.126 9.82 L -1.126 10.18 M -0.973 9.82 L -0.775 9.82 M -0.973 9.82 L -0.973 10 M -0.775 9.82 L -0.775 10 M -0.973 10 L -0.973 10.18 M -0.775 10 L -0.775 10.18 M -0.973 10.18 L -0.775 10.18" fill="none" stroke="onSurface" stroke-width="0.032" stroke-linejoin="round" stroke-linecap="round"/>
    <line id="vline-2" x1="3.5" y1="1" x2="3.5" y2="3.3" stroke="onSurface" stroke-width="0.041"/>
    <line id="hline-8" x1="2.5" y1="3" x2="4.5" y2="3" stroke="onSurface" stroke-width="0.041"/>
    <path id="vruler-4" d="M 3.1 1 L 3.9 1 M 3.1 2 L 3.9 2" fill="none" stroke="onSurface" stroke-width="0.041" stroke-linejoin="miter" stroke-linecap="miter"/>
    <path id="vruler-5" d="M 3.3 1 L 3.5 1 M 3.3 1.2 L 3.5 1.2 M 3.3 1.4 L 3.5 1.4 M 3.3 1.6 L 3.5 1.6 M 3.3 1.8 L 3.5 1.8 M 3.3 2 L 3.5 2 M 3.3 2.2 L 3.5 2.2 M 3.3 2.4 L 3.5 2.4 M 3.3 2.6 L 3.5 2.6" fill="none" stroke="onSurface" stroke-width="0.041" stroke-linejoin="miter" stroke-linecap="miter"/>
    <path id="vruler-6" d="M 3.5 1.1 L 3.7 1.1 M 3.5 1.3 L 3.7 1.3 M 3.5 1.5 L 3.7 1.5 M 3.5 1.7 L 3.7 1.7 M 3.5 1.9 L 3.7 1.9 M 3.5 2.1 L 3.7 2.1 M 3.5 2.3 L 3.7 2.3 M 3.5 2.5 L 3.7 2.5 M 3.5 2.7 L 3.7 2.7" fill="none" stroke="onSurface" stroke-width="0.041" stroke-linejoin="miter" stroke-linecap="miter"/>
    <path id="hruler-8" d="M 2.5 2.6 L 2.5 3.4 M 4.5 2.6 L 4.5 3.4" fill="none" stroke="onSurface" stroke-width="0.041" stroke-linejoin="miter" stroke-linecap="miter"/>
    <path id="hruler-9" d="M 2.6 3 L 2.6 3.2 M 2.8 3 L 2.8 3.2 M 3 3 L 3 3.2 M 3.2 3 L 3.2 3.2" fill="none" stroke="onSurface" stroke-width="0.041" stroke-linejoin="miter" stroke-linecap="miter"/>
    <path id="hruler-10" d="M 3.8 3 L 3.8 3.2 M 4 3 L 4 3.2 M 4.2 3 L 4.2 3.2 M 4.4 3 L 4.4 3.2" fill="none" stroke="onSurface" stroke-width="0.041" stroke-linejoin="miter" stroke-linecap="miter"/>
    <path id="hruler-11" d="M 2.7 2.8 L 2.7 3 M 2.9 2.8 L 2.9 3 M 3.1 2.8 L 3.1 3" fill="none" stroke="onSurface" stroke-width="0.041" stroke-linejoin="miter" stroke-linecap="miter"/>
    <path id="hruler-12" d="M 3.9 2.8 L 3.9 3 M 4.1 2.8 L 4.1 3 M 4.3 2.8 L 4.3 3" fill="none" stroke="onSurface" stroke-width="0.041" stroke-linejoin="miter" stroke-linecap="miter"/>
    <line id="hline-9" x1="3.5" y1="2.8" x2="3.4" y2="2.8" stroke="onSurface" stroke-width="0.041"/>
    <line id="hline-10" x1="3.5" y1="2.9" x2="3.6" y2="2.9" stroke="onSurface" stroke-width="0.041"/>
    <line id="vline-3" x1="3.3" y1="2.9" x2="3.3" y2="3" stroke="onSurface" stroke-width="0.041"/>
    <line id="vline-4" x1="3.4" y1="3.1" x2="3.4" y2="3" stroke="onSurface" stroke-width="0.041"/>
    <line id="vline-5" x1="3.6" y1="3.1" x2="3.6" y2="3" stroke="onSurface" stroke-width="0.041"/>
    <line id="vline-6" x1="3.7" y1="2.9" x2="3.7" y2="3" stroke="onSurface" stroke-width="0.041"/>
    <path id="path-0" d="M 30 0 L 5.2 0 M -30 0 L -5.2 0" fill="none" stroke="onSurface" stroke-width="0.05" stroke-linejoin="miter" stroke-linecap="miter"/>
    <path id="path-1" d="M 30 0.25 L 6 0.25 L 5.2 0 L 6 -0.25 L 30 -0.25 M -30 0.25 L -6 0.25 L -5.2 0 L -6 -0.25 L -30 -0.25" fill="none" stroke="onSurface" stroke-width="0.1" stroke-linejoin="miter" stroke-linecap="miter"/>
    <path id="label-9" d="M 3.901 0.82 L 4.099 0.82 M 4.099 0.82 L 4.099 1 M 3.901 1 L 4.099 1 M 3.901 1 L 3.901 1.18 M 3.901 1.18 L 4.099 1.18" fill="none" stroke="onSurface" stroke-width="0.032" stroke-linejoin="round" stroke-linecap="round"/>
  </g>
</svg>