<svg xmlns="http://www.w3.org/2000/svg" width="3000" height="3000" viewBox="-15 -15 30 30" shape-rendering="geometricPrecision">
  <clipPath id="clip0">
    <circle id="circle-0" cx="0" cy="0" r="15" fill="transparent"/>
  </clipPath>
  <g id="clipgroup-0" clip-path="url(#clip0)">
    <line id="line-0" x1="-10" y1="0" x2="10" y2="0" stroke="onSurface" stroke-width="0.05"/>
    <line id="line-1" x1="0" y1="-10" x2="0" y2="14" stroke="onSurface" stroke-width="0.05"/>
    <path id="hruler-0" d="M -10 -0.5 L -10 0.5 M -9 -0.5 L -9 0.5 M -8 -0.5 L -8 0.5 M -7 -0.5 L -7 0.5 M -6 -0.5 L -6 0.5 M -5 -0.5 L -5 0.5 M -4 -0.5 L -4 0.5 M -3 -0.5 L -3 0.5 M -2 -0.5 L -2 0.5 M -1 -0.5 L -1 0.5" fill="none" stroke="onSurface" stroke-width="0.05" stroke-linejoin="miter" stroke-linecap="miter"/>
    <path id="hruler-1" d="M 10 -0.5 L 10 0.5 M 9 -0.5 L 9 0.5 M 8 -0.5 L 8 0.5 M 7 -0.5 L 7 0.5 M 6 -0.5 L 6 0.5 M 5 -0.5 L 5 0.5 M 4 -0.5 L 4 0.5 M 3 -0.5 L 3 0.5 M 2 -0.5 L 2 0.5 M 1 -0.5 L 1 0.5" fill="none" stroke="onSurface" stroke-width="0.05" stroke-linejoin="miter" stroke-linecap="miter"/>
    <path id="vruler-0" d="M -0.5 -10 L 0.5 -10 M -0.5 -9 L 0.5 -9 M -0.5 -8 L 0.5 -8 M -0.5 -7 L 0.5 -7 M -0.5 -6 L 0.5 -6 M -0.5 -5 L 0.5 -5 M -0.5 -4 L 0.5 -4 M -0.5 -3 L 0.5 -3 M -0.5 -2 L 0.5 -2 M -0.5 -1 L 0.5 -1 M -0.5 0 L 0.5 0 M -0.5 1 L 0.5 1" fill="none" stroke="onSurface" stroke-width="0.05" stroke-linejoin="miter" stroke-linecap="miter"/>
    <path id="vruler-1" d="M -0.5 14 L 0.5 14 M -0.5 13 L 0.5 13 M -0.5 12 L 0.5 12 M -0.5 11 L 0.5 11 M -0.5 10 L 0.5 10 M -0.5 9 L 0.5 9 M -0.5 8 L 0.5 8 M -0.5 7 L 0.5 7 M -0.5 6 L 0.5 6 M -0.5 5 L 0.5 5 M -0.5 4 L 0.5 4 M -0.5 3 L 0.5 3 M -0.5 2 L 0.5 2 M -0.5 1 L 0.5 1" fill="none" stroke="onSurface" stroke-width="0.05" stroke-linejoin="miter" stroke-linecap="miter"/>
    <path id="label-0" d="M -10.1575 -1.5325 L -10.1575 -1.0825 M -9.9663 -1.5325 L -9.7188 -1.5325 M -9.9663 -1.5325 L -9.9663 -1.3075 M -9.7188 -1.5325 L -9.7188 -1.3075 M -9.9663 -1.3075 L -9.9663 -1.0825 M -9.7188 -1.3075 L -9.7188 -1.0825 M -9.9663 -1.0825 L -9.7188 -1.0825" fill="none" stroke="onSurface" stroke-width="0.0405" stroke-linejoin="round" stroke-linecap="round"/>
    <path id="label-1" d="M -8.1237 -1.5325 L -7.8762 -1.5325 M -8.1237 -1.5325 L -8.1237 -1.3075 M -7.8762 -1.5325 L -7.8762 -1.3075 M -8.1237 -1.3075 L -7.8762 -1.3075 M -8.1237 -1.3075 L -8.1237 -1.0825 M -7.8762 -1.3075 L -7.8762 -1.0825 M -8.1237 -1.0825 L -7.8762 -1.0825" fill="none" stroke="onSurface" stroke-width="0.0405" stroke-linejoin="round" stroke-linecap="round"/>
    <path id="label-2" d="M -6.1238 -1.5325 L -5.8763 -1.5325 M -6.1238 -1.5325 L -6.1238 -1.3075 M -6.1238 -1.3075 L -5.8763 -1.3075 M -6.1238 -1.3075 L -6.1238 -1.0825 M -5.8763 -1.3075 L -5.8763 -1.0825 M -6.1238 -1.0825 L -5.8763 -1.0825" fill="none" stroke="onSurface" stroke-width="0.0405" stroke-linejoin="round" stroke-linecap="round"/>
    <path id="label-3" d="M -4.1238 -1.5325 L -4.1238 -1.3075 M -3.8763 -1.5325 L -3.8763 -1.3075 M -4.1238 -1.3075 L -3.8763 -1.3075 M -3.8763 -1.3075 L -3.8763 -1.0825" fill="none" stroke="onSurface" stroke-width="0.0405" stroke-linejoin="round" stroke-linecap="round"/>
    <path id="label-4" d="M -2.1237 -1.5325 L -1.8762 -1.5325 M -1.8762 -1.5325 L -1.8762 -1.3075 M -2.1237 -1.3075 L -1.8762 -1.3075 M -2.1237 -1.3075 L -2.1237 -1.0825 M -2.1237 -1.0825 L -1.8762 -1.0825" fill="none" stroke="onSurface" stroke-width="0.0405" stroke-linejoin="round" stroke-linecap="round"/>
    <path id="label-5" d="M 1.8762 -1.5325 L 2.1237 -1.5325 M 2.1237 -1.5325 L 2.1237 -1.3075 M 1.8762 -1.3075 L 2.1237 -1.3075 M 1.8762 -1.3075 L 1.8762 -1.0825 M 1.8762 -1.0825 L 2.1237 -1.0825" fill="none" stroke="onSurface" stroke-width="0.0405" stroke-linejoin="round" stroke-linecap="round"/>
    <path id="label-6" d="M 3.8763 -1.5325 L 3.8763 -1.3075 M 4.1238 -1.5325 L 4.1238 -1.3075 M 3.8763 -1.3075 L 4.1238 -1.3075 M 4.1238 -1.3075 L 4.1238 -1.0825" fill="none" stroke="onSurface" stroke-width="0.0405" stroke-linejoin="round" stroke-linecap="round"/>
    <path id="label-7" d="M 5.8762 -1.5325 L 6.1237 -1.5325 M 5.8762 -1.5325 L 5.8762 -1.3075 M 5.8762 -1.3075 L 6.1237 -1.3075 M 5.8762 -1.3075 L 5.8762 -1.0825 M 6.1237 -1.3075 L 6.1237 -1.0825 M 5.8762 -1.0825 L 6.1237 -1.0825" fill="none" stroke="onSurface" stroke-width="0.0405" stroke-linejoin="round" stroke-linecap="round"/>
    <path id="label-8" d="M 7.8762 -1.5325 L 8.1237 -1.5325 M 7.8762 -1.5325 L 7.8762 -1.3075 M 8.1237 -1.5325 L 8.1237 -1.3075 M 7.8762 -1.3075 L 8.1237 -1.3075 M 7.8762 -1.3075 L 7.8762 -1.0825 M 8.1237 -1.3075 L 8.1237 -1.0825 M 7.8762 -1.0825 L 8.1237 -1.0825" fill="none" stroke="onSurface" stroke-width="0.0405" stroke-linejoin="round" stroke-linecap="round"/>
    <path id="label-9" d="M 9.8425 -1.5325 L 9.8425 -1.0825 M 10.0337 -1.5325 L 10.2813 -1.5325 M 10.0337 -1.5325 L 10.0337 -1.3075 M 10.2813 -1.5325 L 10.2813 -1.3075 M 10.0337 -1.3075 L 10.0337 -1.0825 M 10.2813 -1.3075 L 10.2813 -1.0825 M 10.0337 -1.0825 L 10.2813 -1.0825" fill="none" stroke="onSurface" stroke-width="0.0405" stroke-linejoin="round" stroke-linecap="round"/>
    <path id="label-10" d="M -1.1387 -10.225 L -1.1387 -9.775 M -0.9475 -10.225 L -0.7 -10.225 M -0.9475 -10.225 L -0.9475 -10 M -0.7 -10.225 L -0.7 -10 M -0.9475 -10 L -0.9475 -9.775 M -0.7 -10 L -0.7 -9.775 M -0.9475 -9.775 L -0.7 -9.775" fill="none" stroke="onSurface" stroke-width="0.0405" stroke-linejoin="round" stroke-linecap="round"/>
    <path id="label-11" d="M -0.9475 -8.225 L -0.7 -8.225 M -0.9475 -8.225 L -0.9475 -8 M -0.7 -8.225 L -0.7 -8 M -0.9475 -8 L -0.7 -8 M -0.9475 -8 L -0.9475 -7.775 M -0.7 -8 L -0.7 -7.775 M -0.9475 -7.775 L -0.7 -7.775" fill="none" stroke="onSurface" stroke-width="0.0405" stroke-linejoin="round" stroke-linecap="round"/>
    <path id="label-12" d="M -0.9475 -6.225 L -0.7 -6.225 M -0.9475 -6.225 L -0.9475 -6 M -0.9475 -6 L -0.7 -6 M -0.9475 -6 L -0.9475 -5.775 M -0.7 -6 L -0.7 -5.775 M -0.9475 -5.775 L -0.7 -5.775" fill="none" stroke="onSurface" stroke-width="0.0405" stroke-linejoin="round" stroke-linecap="round"/>
    <path id="label-13" d="M -0.9475 -4.225 L -0.9475 -4 M -0.7 -4.225 L -0.7 -4 M -0.9475 -4 L -0.7 -4 M -0.7 -4 L -0.7 -3.775" fill="none" stroke="onSurface" stroke-width="0.0405" stroke-linejoin="round" stroke-linecap="round"/>
    <path id="label-14" d="M -0.9475 -2.225 L -0.7 -2.225 M -0.7 -2.225 L -0.7 -2 M -0.9475 -2 L -0.7 -2 M -0.9475 -2 L -0.9475 -1.775 M -0.9475 -1.775 L -0.7 -1.775" fill="none" stroke="onSurface" stroke-width="0.0405" stroke-linejoin="round" stroke-linecap="round"/>
    <path id="label-15" d="M -0.9475 1.775 L -0.7 1.775 M -0.7 1.775 L -0.7 2 M -0.9475 2 L -0.7 2 M -0.9475 2 L -0.9475 2.225 M -0.9475 2.225 L -0.7 2.225" fill="none" stroke="onSurface" stroke-width="0.0405" stroke-linejoin="round" stroke-linecap="round"/>
    <path id="label-16" d="M -0.9475 3.775 L -0.9475 4 M -0.7 3.775 L -0.7 4 M -0.9475 4 L -0.7 4 M -0.7 4 L -0.7 4.225" fill="none" stroke="onSurface" stroke-width="0.0405" stroke-linejoin="round" stroke-linecap="round"/>
    <path id="label-17" d="M -0.9475 5.775 L -0.7 5.775 M -0.9475 5.775 L -0.9475 6 M -0.9475 6 L -0.7 6 M -0.9475 6 L -0.9475 6.225 M -0.7 6 L -0.7 6.225 M -0.9475 6.225 L -0.7 6.225" fill="none" stroke="onSurface" stroke-width="0.0405" stroke-linejoin="round" stroke-linecap="round"/>
    <path id="label-18" d="M -0.9475 7.775 L -0.7 7.775 M -0.9475 7.775 L -0.9475 8 M -0.7 7.775 L -0.7 8 M -0.9475 8 L -0.7 8 M -0.9475 8 L -0.9475 8.225 M -0.7 8 L -0.7 8.225 M -0.9475 8.225 L -0.7 8.225" fill="none" stroke="onSurface" stroke-width="0.0405" stroke-linejoin="round" stroke-linecap="round"/>
    <path id="label-19" d="M -1.1387 9.775 L -1.1387 10.225 M -0.9475 9.775 L -0.7 9.775 M -0.9475 9.775 L -0.9475 10 M -0.7 9.775 L -0.7 10 M -0.9475 10 L -0.9475 10.225 M -0.7 10 L -0.7 10.225 M -0.9475 10.225 L -0.7 10.225" fill="none" stroke="onSurface" stroke-width="0.0405" stroke-linejoin="round" stroke-linecap="round"/>
    <path id="label-20" d="M -1.1387 11.775 L -1.1387 12.225 M -0.9475 11.775 L -0.7 11.775 M -0.7 11.775 L -0.7 12 M -0.9475 12 L -0.7 12 M -0.9475 12 L -0.9475 12.225 M -0.9475 12.225 L -0.7 12.225" fill="none" stroke="onSurface" stroke-width="0.0405" stroke-linejoin="round" stroke-linecap="round"/>
    <path id="label-21" d="M -1.1387 13.775 L -1.1387 14.225 M -0.9475 13.775 L -0.9475 14 M -0.7 13.775 L -0.7 14 M -0.9475 14 L -0.7 14 M -0.7 14 L -0.7 14.225" fill="none" stroke="onSurface" stroke-width="0.0405" stroke-linejoin="round" stroke-linecap="round"/>
  </g>
</svg>