<svg xmlns="http://www.w3.org/2000/svg" width="6000" height="6000" viewBox="-30 -30 60 60" shape-rendering="geometricPrecision">
  <clipPath id="clip0">
    <circle id="circle-0" cx="0" cy="0" r="30" fill="transparent"/>
  </clipPath>
  <g id="clipgroup-0" clip-path="url(#clip0)">
    <rect id="fill-0" x="-30" y="-30" width="60" height="60" fill="transparent"/>
    <circle id="dot-0" cx="0" cy="0" r="0.025" fill="red"/>
    <line id="hline-0" x1="10" y1="0" x2="0.1" y2="0" stroke="red" stroke-width="0.041" stroke-linejoin="miter" stroke-linecap="miter"/>
    <line id="hline-1" x1="-10" y1="0" x2="-0.1" y2="0" stroke="red" stroke-width="0.041" stroke-linejoin="miter" stroke-linecap="miter"/>
    <line id="vline-0" x1="0" y1="-5" x2="0" y2="-0.1" stroke="red" stroke-width="0.041" stroke-linejoin="miter" stroke-linecap="miter"/>
    <line id="vline-1" x1="0" y1="30" x2="0" y2="0.1" stroke="red" stroke-width="0.041" stroke-linejoin="miter" stroke-linecap="miter"/>
    <path id="hruler-0" d="M 10 -0.3 L 10 0.3 M 9 -0.3 L 9 0.3 M 8 -0.3 L 8 0.3 M 7 -0.3 L 7 0.3 M 6 -0.3 L 6 0.3 M 5 -0.3 L 5 0.3 M 4 -0.3 L 4 0.3 M 3 -0.3 L 3 0.3 M 2 -0.3 L 2 0.3 M 1 -0.3 L 1 0.3" fill="none" stroke="red" stroke-width="0.041" stroke-linejoin="miter" stroke-linecap="miter"/>
    <path id="hruler-1" d="M -10 -0.3 L -10 0.3 M -9 -0.3 L -9 0.3 M -8 -0.3 L -8 0.3 M -7 -0.3 L -7 0.3 M -6 -0.3 L -6 0.3 M -5 -0.3 L -5 0.3 M -4 -0.3 L -4 0.3 M -3 -0.3 L -3 0.3 M -2 -0.3 L -2 0.3 M -1 -0.3 L -1 0.3" fill="none" stroke="red" stroke-width="0.041" stroke-linejoin="miter" stroke-linecap="miter"/>
    <path id="vruler-0" d="M -0.3 -5 L 0.3 -5 M -0.3 -4 L 0.3 -4 M -0.3 -3 L 0.3 -3 M -0.3 -2 L 0.3 -2 M -0.3 -1 L 0.3 -1" fill="none" stroke="red" stroke-width="0.041" stroke-linejoin="miter" stroke-linecap="miter"/>
    <path id="vruler-1" d="M -0.3 30 L 0.3 30 M -0.3 29 L 0.3 29 M -0.3 28 L 0.3 28 M -0.3 27 L 0.3 27 M -0.3 26 L 0.3 26 M -0.3 25 L 0.3 25 M -0.3 24 L 0.3 24 M -0.3 23 L 0.3 23 M -0.3 22 L 0.3 22 M -0.3 21 L 0.3 21 M -0.3 20 L 0.3 20 M -0.3 19 L 0.3 19 M -0.3 18 L 0.3 18 M -0.3 17 L 0.3 17 M -0.3 16 L 0.3 16 M -0.3 15 L 0.3 15 M -0.3 14 L 0.3 14 M -0.3 13 L 0.3 13 M -0.3 12 L 0.3 12 M -0.3 11 L 0.3 11 M -0.3 10 L 0.3 10 M -0.3 9 L 0.3 9 M -0.3 8 L 0.3 8 M -0.3 7 L 0.3 7 M -0.3 6 L 0.3 6 M -0.3 5 L 0.3 5 M -0.3 4 L 0.3 4 M -0.3 3 L 0.3 3 M -0.3 2 L 0.3 2 M -0.3 1 L 0.3 1" fill="none" stroke="red" stroke-width="0.041" stroke-linejoin="miter" stroke-linecap="miter"/>
    <path id="hruler-2" d="M 1.2 0 L 1.2 0.2 M 2.2 0 L 2.2 0.2 M 3.2 0 L 3.2 0.2 M 4.2 0 L 4.2 0.2 M 5.2 0 L 5.2 0.2 M 6.2 0 L 6.2 0.2 M 7.2 0 L 7.2 0.2 M 8.2 0 L 8.2 0.2 M 9.2 0 L 9.2 0.2" fill="none" stroke="red" stroke-width="0.041" stroke-linejoin="miter" stroke-linecap="miter"/>
    <path id="hruler-3" d="M -1.2 0 L -1.2 0.2 M -2.2 0 L -2.2 0.2 M -3.2 0 L -3.2 0.2 M -4.2 0 L -4.2 0.2 M -5.2 0 L -5.2 0.2 M -6.2 0 L -6.2 0.2 M -7.2 0 L -7.2 0.2 M -8.2 0 L -8.2 0.2 M -9.2 0 L -9.2 0.2" fill="none" stroke="red" stroke-width="0.041" stroke-linejoin="miter" stroke-linecap="miter"/>
    <path id="hruler-4" d="M 0.4 -0.2 L 0.4 0 M 1.4 -0.2 L 1.4 0 M 2.4 -0.2 L 2.4 0 M 3.4 -0.2 L 3.4 0 M 4.4 -0.2 L 4.4 0 M 5.4 -0.2 L 5.4 0 M 6.4 -0.2 L 6.4 0 M 7.4 -0.2 L 7.4 0 M 8.4 -0.2 L 8.4 0 M 9.4 -0.2 L 9.4 0" fill="none" stroke="red" stroke-width="0.041" stroke-linejoin="miter" stroke-linecap="miter"/>
    <path id="hruler-5" d="M -0.4 -0.2 L -0.4 0 M -1.4 -0.2 L -1.4 0 M -2.4 -0.2 L -2.4 0 M -3.4 -0.2 L -3.4 0 M -4.4 -0.2 L -4.4 0 M -5.4 -0.2 L -5.4 0 M -6.4 -0.2 L -6.4 0 M -7.4 -0.2 L -7.4 0 M -8.4 -0.2 L -8.4 0 M -9.4 -0.2 L -9.4 0" fill="none" stroke="red" stroke-width="0.041" stroke-linejoin="miter" stroke-linecap="miter"/>
    <path id="hruler-6" d="M 0.6 -0.2 L 0.6 0 M 1.6 -0.2 L 1.6 0 M 2.6 -0.2 L 2.6 0 M 3.6 -0.2 L 3.6 0 M 4.6 -0.2 L 4.6 0 M 5.6 -0.2 L 5.6 0 M 6.6 -0.2 L 6.6 0 M 7.6 -0.2 L 7.6 0 M 8.6 -0.2 L 8.6 0 M 9.6 -0.2 L 9.6 0" fill="none" stroke="red" stroke-width="0.041" stroke-linejoin="miter" stroke-linecap="miter"/>
    <path id="hruler-7" d="M -0.6 -0.2 L -0.6 0 M -1.6 -0.2 L -1.6 0 M -2.6 -0.2 L -2.6 0 M -3.6 -0.2 L -3.6 0 M -4.6 -0.2 L -4.6 0 M -5.6 -0.2 L -5.6 0 M -6.6 -0.2 L -6.6 0 M -7.6 -0.2 L -7.6 0 M -8.6 -0.2 L -8.6 0 M -9.6 -0.2 L -9.6 0" fill="none" stroke="red" stroke-width="0.041" stroke-linejoin="miter" stroke-linecap="miter"/>
    <path id="hruler-8" d="M 0.8 0 L 0.8 0.2 M 1.8 0 L 1.8 0.2 M 2.8 0 L 2.8 0.2 M 3.8 0 L 3.8 0.2 M 4.8 0 L 4.8 0.2 M 5.8 0 L 5.8 0.2 M 6.8 0 L 6.8 0.2 M 7.8 0 L 7.8 0.2 M 8.8 0 L 8.8 0.2 M 9.8 0 L 9.8 0.2" fill="none" stroke="red" stroke-width="0.041" stroke-linejoin="miter" stroke-linecap="miter"/>
    <path id="hruler-9" d="M -0.8 0 L -0.8 0.2 M -1.8 0 L -1.8 0.2 M -2.8 0 L -2.8 0.2 M -3.8 0 L -3.8 0.2 M -4.8 0 L -4.8 0.2 M -5.8 0 L -5.8 0.2 M -6.8 0 L -6.8 0.2 M -7.8 0 L -7.8 0.2 M -8.8 0 L -8.8 0.2 M -9.8 0 L -9.8 0.2" fill="none" stroke="red" stroke-width="0.041" stroke-linejoin="miter" stroke-linecap="miter"/>
    <line id="vline-2" x1="0.2" y1="0" x2="0.2" y2="0.1" stroke="red" stroke-width="0.041" stroke-linejoin="miter" stroke-linecap="miter"/>
    <line id="vline-3" x1="-0.2" y1="0" x2="-0.2" y2="0.1" stroke="red" stroke-width="0.041" stroke-linejoin="miter" stroke-linecap="miter"/>
    <path id="vruler-2" d="M -0.2 -1.2 L 0 -1.2 M -0.2 -2.2 L 0 -2.2 M -0.2 -3.2 L 0 -3.2 M -0.2 -4.2 L 0 -4.2" fill="none" stroke="red" stroke-width="0.041" stroke-linejoin="miter" stroke-linecap="miter"/>
    <path id="vruler-3" d="M 0 -0.4 L 0.2 -0.4 M 0 -1.4 L 0.2 -1.4 M 0 -2.4 L 0.2 -2.4 M 0 -3.4 L 0.2 -3.4 M 0 -4.4 L 0.2 -4.4" fill="none" stroke="red" stroke-width="0.041" stroke-linejoin="miter" stroke-linecap="miter"/>
    <path id="vruler-4" d="M 0 -0.6 L 0.2 -0.6 M 0 -1.6 L 0.2 -1.6 M 0 -2.6 L 0.2 -2.6 M 0 -3.6 L 0.2 -3.6 M 0 -4.6 L 0.2 -4.6" fill="none" stroke="red" stroke-width="0.041" stroke-linejoin="miter" stroke-linecap="miter"/>
    <path id="vruler-5" d="M -0.2 -0.8 L 0 -0.8 M -0.2 -1.8 L 0 -1.8 M -0.2 -2.8 L 0 -2.8 M -0.2 -3.8 L 0 -3.8 M -0.2 -4.8 L 0 -4.8" fill="none" stroke="red" stroke-width="0.041" stroke-linejoin="miter" stroke-linecap="miter"/>
    <path id="vruler-6" d="M -0.2 1.2 L 0 1.2 M -0.2 2.2 L 0 2.2 M -0.2 3.2 L 0 3.2 M -0.2 4.2 L 0 4.2 M -0.2 5.2 L 0 5.2 M -0.2 6.2 L 0 6.2 M -0.2 7.2 L 0 7.2 M -0.2 8.2 L 0 8.2 M -0.2 9.2 L 0 9.2 M -0.2 10.2 L 0 10.2 M -0.2 11.2 L 0 11.2 M -0.2 12.2 L 0 12.2 M -0.2 13.2 L 0 13.2 M -0.2 14.2 L 0 14.2 M -0.2 15.2 L 0 15.2 M -0.2 16.2 L 0 16.2 M -0.2 17.2 L 0 17.2 M -0.2 18.2 L 0 18.2 M -0.2 19.2 L 0 19.2 M -0.2 20.2 L 0 20.2 M -0.2 21.2 L 0 21.2 M -0.2 22.2 L 0 22.2 M -0.2 23.2 L 0 23.2 M -0.2 24.2 L 0 24.2 M -0.2 25.2 L 0 25.2 M -0.2 26.2 L 0 26.2 M -0.2 27.2 L 0 27.2 M -0.2 28.2 L 0 28.2 M -0.2 29.2 L 0 29.2" fill="none" stroke="red" stroke-width="0.041" stroke-linejoin="miter" stroke-linecap="miter"/>
    <path id="vruler-7" d="M 0 0.4 L 0.2 0.4 M 0 1.4 L 0.2 1.4 M 0 2.4 L 0.2 2.4 M 0 3.4 L 0.2 3.4 M 0 4.4 L 0.2 4.4 M 0 5.4 L 0.2 5.4 M 0 6.4 L 0.2 6.4 M 0 7.4 L 0.2 7.4 M 0 8.4 L 0.2 8.4 M 0 9.4 L 0.2 9.4 M 0 10.4 L 0.2 10.4 M 0 11.4 L 0.2 11.4 M 0 12.4 L 0.2 12.4 M 0 13.4 L 0.2 13.4 M 0 14.4 L 0.2 14.4 M 0 15.4 L 0.2 15.4 M 0 16.4 L 0.2 16.4 M 0 17.4 L 0.2 17.4 M 0 18.4 L 0.2 18.4 M 0 19.4 L 0.2 19.4 M 0 20.4 L 0.2 20.4 M 0 21.4 L 0.2 21.4 M 0 22.4 L 0.2 22.4 M 0 23.4 L 0.2 23.4 M 0 24.4 L 0.2 24.4 M 0 25.4 L 0.2 25.4 M 0 26.4 L 0.2 26.4 M 0 27.4 L 0.2 27.4 M 0 28.4 L 0.2 28.4 M 0 29.4 L 0.2 29.4" fill="none" stroke="red" stroke-width="0.041" stroke-linejoin="miter" stroke-linecap="miter"/>
    <path id="vruler-8" d="M 0 0.6 L 0.2 0.6 M 0 1.6 L 0.2 1.6 M 0 2.6 L 0.2 2.6 M 0 3.6 L 0.2 3.6 M 0 4.6 L 0.2 4.6 M 0 5.6 L 0.2 5.6 M 0 6.6 L 0.2 6.6 M 0 7.6 L 0.2 7.6 M 0 8.6 L 0.2 8.6 M 0 9.6 L 0.2 9.6 M 0 10.6 L 0.2 10.6 M 0 11.6 L 0.2 11.6 M 0 12.6 L 0.2 12.6 M 0 13.6 L 0.2 13.6 M 0 14.6 L 0.2 14.6 M 0 15.6 L 0.2 15.6 M 0 16.6 L 0.2 16.6 M 0 17.6 L 0.2 17.6 M 0 18.6 L 0.2 18.6 M 0 19.6 L 0.2 19.6 M 0 20.6 L 0.2 20.6 M 0 21.6 L 0.2 21.6 M 0 22.6 L 0.2 22.6 M 0 23.6 L 0.2 23.6 M 0 24.6 L 0.2 24.6 M 0 25.6 L 0.2 25.6 M 0 26.6 L 0.2 26.6 M 0 27.6 L 0.2 27.6 M 0 28.6 L 0.2 28.6 M 0 29.6 L 0.2 29.6" fill="none" stroke="red" stroke-width="0.041" stroke-linejoin="miter" stroke-linecap="miter"/>
    <path id="vruler-9" d="M -0.2 0.8 L 0 0.8 M -0.2 1.8 L 0 1.8 M -0.2 2.8 L 0 2.8 M -0.2 3.8 L 0 3.8 M -0.2 4.8 L 0 4.8 M -0.2 5.8 L 0 5.8 M -0.2 6.8 L 0 6.8 M -0.2 7.8 L 0 7.8 M -0.2 8.8 L 0 8.8 M -0.2 9.8 L 0 9.8 M -0.2 10.8 L 0 10.8 M -0.2 11.8 L 0 11.8 M -0.2 12.8 L 0 12.8 M -0.2 13.8 L 0 13.8 M -0.2 14.8 L 0 14.8 M -0.2 15.8 L 0 15.8 M -0.2 16.8 L 0 16.8 M -0.2 17.8 L 0 17.8 M -0.2 18.8 L 0 18.8 M -0.2 19.8 L 0 19.8 M -0.2 20.8 L 0 20.8 M -0.2 21.8 L 0 21.8 M -0.2 22.8 L 0 22.8 M -0.2 23.8 L 0 23.8 M -0.2 24.8 L 0 24.8 M -0.2 25.8 L 0 25.8 M -0.2 26.8 L 0 26.8 M -0.2 27.8 L 0 27.8 M -0.2 28.8 L 0 28.8 M -0.2 29.8 L 0 29.8" fill="none" stroke="red" stroke-width="0.041" stroke-linejoin="miter" stroke-linecap="miter"/>
    <line id="hline-2" x1="-0.1" y1="0.2" x2="0.1" y2="0.2" stroke="red" stroke-width="0.041" stroke-linejoin="miter" stroke-linecap="miter"/>
    <line id="hline-3" x1="-0.1" y1="-0.2" x2="0.1" y2="-0.2" stroke="red" stroke-width="0.041" stroke-linejoin="miter" stroke-linecap="miter"/>
    <path id="label-0" d="M -10.1225 -0.9475 L -10.1225 -0.5975 M -9.9738 -0.9475 L -9.7813 -0.9475 M -9.9738 -0.9475 L -9.9738 -0.7725 M -9.7813 -0.9475 L -9.7813 -0.7725 M -9.9738 -0.7725 L -9.9738 -0.5975 M -9.7813 -0.7725 L -9.7813 -0.5975 M -9.9738 -0.5975 L -9.7813 -0.5975" fill="none" stroke="onSurface" stroke-width="0.0315" stroke-linejoin="round" stroke-linecap="round"/>
    <path id="label-1" d="M -9.0962 -0.9475 L -8.9037 -0.9475 M -9.0962 -0.9475 L -9.0962 -0.7725 M -8.9037 -0.9475 L -8.9037 -0.7725 M -9.0962 -0.7725 L -8.9037 -0.7725 M -8.9037 -0.7725 L -8.9037 -0.5975 M -9.0962 -0.5975 L -8.9037 -0.5975" fill="none" stroke="onSurface" stroke-width="0.0315" stroke-linejoin="round" stroke-linecap="round"/>
    <path id="label-2" d="M -8.0962 -0.9475 L -7.9037 -0.9475 M -8.0962 -0.9475 L -8.0962 -0.7725 M -7.9037 -0.9475 L -7.9037 -0.7725 M -8.0962 -0.7725 L -7.9037 -0.7725 M -8.0962 -0.7725 L -8.0962 -0.5975 M -7.9037 -0.7725 L -7.9037 -0.5975 M -8.0962 -0.5975 L -7.9037 -0.5975" fill="none" stroke="onSurface" stroke-width="0.0315" stroke-linejoin="round" stroke-linecap="round"/>
    <path id="label-3" d="M -7.0963 -0.9475 L -6.9038 -0.9475 M -6.9038 -0.9475 L -6.9038 -0.7725 M -6.9038 -0.7725 L -6.9038 -0.5975" fill="none" stroke="onSurface" stroke-width="0.0315" stroke-linejoin="round" stroke-linecap="round"/>
    <path id="label-4" d="M -6.0963 -0.9475 L -5.9038 -0.9475 M -6.0963 -0.9475 L -6.0963 -0.7725 M -6.0963 -0.7725 L -5.9038 -0.7725 M -6.0963 -0.7725 L -6.0963 -0.5975 M -5.9038 -0.7725 L -5.9038 -0.5975 M -6.0963 -0.5975 L -5.9038 -0.5975" fill="none" stroke="onSurface" stroke-width="0.0315" stroke-linejoin="round" stroke-linecap="round"/>
    <path id="label-5" d="M -5.0963 -0.9475 L -4.9038 -0.9475 M -5.0963 -0.9475 L -5.0963 -0.7725 M -5.0963 -0.7725 L -4.9038 -0.7725 M -4.9038 -0.7725 L -4.9038 -0.5975 M -5.0963 -0.5975 L -4.9038 -0.5975" fill="none" stroke="onSurface" stroke-width="0.0315" stroke-linejoin="round" stroke-linecap="round"/>
    <path id="label-6" d="M -4.0963 -0.9475 L -4.0963 -0.7725 M -3.9038 -0.9475 L -3.9038 -0.7725 M -4.0963 -0.7725 L -3.9038 -0.7725 M -3.9038 -0.7725 L -3.9038 -0.5975" fill="none" stroke="onSurface" stroke-width="0.0315" stroke-linejoin="round" stroke-linecap="round"/>
    <path id="label-7" d="M -3.0962 -0.9475 L -2.9038 -0.9475 M -2.9038 -0.9475 L -2.9038 -0.7725 M -3.0962 -0.7725 L -2.9038 -0.7725 M -2.9038 -0.7725 L -2.9038 -0.5975 M -3.0962 -0.5975 L -2.9038 -0.5975" fill="none" stroke="onSurface" stroke-width="0.0315" stroke-linejoin="round" stroke-linecap="round"/>
    <path id="label-8" d="M -2.0962 -0.9475 L -1.9038 -0.9475 M -1.9038 -0.9475 L -1.9038 -0.7725 M -2.0962 -0.7725 L -1.9038 -0.7725 M -2.0962 -0.7725 L -2.0962 -0.5975 M -2.0962 -0.5975 L -1.9038 -0.5975" fill="none" stroke="onSurface" stroke-width="0.0315" stroke-linejoin="round" stroke-linecap="round"/>
    <path id="label-9" d="M -1 -0.9475 L -1 -0.5975" fill="none" stroke="onSurface" stroke-width="0.0315" stroke-linejoin="round" stroke-linecap="round"/>
    <path id="label-10" d="M 1 -0.9475 L 1 -0.5975" fill="none" stroke="onSurface" stroke-width="0.0315" stroke-linejoin="round" stroke-linecap="round"/>
    <path id="label-11" d="M 1.9038 -0.9475 L 2.0962 -0.9475 M 2.0962 -0.9475 L 2.0962 -0.7725 M 1.9038 -0.7725 L 2.0962 -0.7725 M 1.9038 -0.7725 L 1.9038 -0.5975 M 1.9038 -0.5975 L 2.0962 -0.5975" fill="none" stroke="onSurface" stroke-width="0.0315" stroke-linejoin="round" stroke-linecap="round"/>
    <path id="label-12" d="M 2.9038 -0.9475 L 3.0962 -0.9475 M 3.0962 -0.9475 L 3.0962 -0.7725 M 2.9038 -0.7725 L 3.0962 -0.7725 M 3.0962 -0.7725 L 3.0962 -0.5975 M 2.9038 -0.5975 L 3.0962 -0.5975" fill="none" stroke="onSurface" stroke-width="0.0315" stroke-linejoin="round" stroke-linecap="round"/>
    <path id="label-13" d="M 3.9038 -0.9475 L 3.9038 -0.7725 M 4.0963 -0.9475 L 4.0963 -0.7725 M 3.9038 -0.7725 L 4.0963 -0.7725 M 4.0963 -0.7725 L 4.0963 -0.5975" fill="none" stroke="onSurface" stroke-width="0.0315" stroke-linejoin="round" stroke-linecap="round"/>
    <path id="label-14" d="M 4.9037 -0.9475 L 5.0962 -0.9475 M 4.9037 -0.9475 L 4.9037 -0.7725 M 4.9037 -0.7725 L 5.0962 -0.7725 M 5.0962 -0.7725 L 5.0962 -0.5975 M 4.9037 -0.5975 L 5.0962 -0.5975" fill="none" stroke="onSurface" stroke-width="0.0315" stroke-linejoin="round" stroke-linecap="round"/>
    <path id="label-15" d="M 5.9037 -0.9475 L 6.0962 -0.9475 M 5.9037 -0.9475 L 5.9037 -0.7725 M 5.9037 -0.7725 L 6.0962 -0.7725 M 5.9037 -0.7725 L 5.9037 -0.5975 M 6.0962 -0.7725 L 6.0962 -0.5975 M 5.9037 -0.5975 L 6.0962 -0.5975" fill="none" stroke="onSurface" stroke-width="0.0315" stroke-linejoin="round" stroke-linecap="round"/>
    <path id="label-16" d="M 6.9037 -0.9475 L 7.0962 -0.9475 M 7.0962 -0.9475 L 7.0962 -0.7725 M 7.0962 -0.7725 L 7.0962 -0.5975" fill="none" stroke="onSurface" stroke-width="0.0315" stroke-linejoin="round" stroke-linecap="round"/>
    <path id="label-17" d="M 7.9037 -0.9475 L 8.0962 -0.9475 M 7.9037 -0.9475 L 7.9037 -0.7725 M 8.0962 -0.9475 L 8.0962 -0.7725 M 7.9037 -0.7725 L 8.0962 -0.7725 M 7.9037 -0.7725 L 7.9037 -0.5975 M 8.0962 -0.7725 L 8.0962 -0.5975 M 7.9037 -0.5975 L 8.0962 -0.5975" fill="none" stroke="onSurface" stroke-width="0.0315" stroke-linejoin="round" stroke-linecap="round"/>
    <path id="label-18" d="M 8.9038 -0.9475 L 9.0963 -0.9475 M 8.9038 -0.9475 L 8.9038 -0.7725 M 9.0963 -0.9475 L 9.0963 -0.7725 M 8.9038 -0.7725 L 9.0963 -0.7725 M 9.0963 -0.7725 L 9.0963 -0.5975 M 8.9038 -0.5975 L 9.0963 -0.5975" fill="none" stroke="onSurface" stroke-width="0.0315" stroke-linejoin="round" stroke-linecap="round"/>
    <path id="label-19" d="M 9.8775 -0.9475 L 9.8775 -0.5975 M 10.0262 -0.9475 L 10.2188 -0.9475 M 10.0262 -0.9475 L 10.0262 -0.7725 M 10.2188 -0.9475 L 10.2188 -0.7725 M 10.0262 -0.7725 L 10.0262 -0.5975 M 10.2188 -0.7725 L 10.2188 -0.5975 M 10.0262 -0.5975 L 10.2188 -0.5975" fill="none" stroke="onSurface" stroke-width="0.0315" stroke-linejoin="round" stroke-linecap="round"/>
    <path id="label-20" d="M -0.5 0.825 L -0.5 1.175" fill="none" stroke="onSurface" stroke-width="0.0315" stroke-linejoin="round" stroke-linecap="round"/>
    <path id="label-21" d="M -0.5962 1.825 L -0.4037 1.825 M -0.4037 1.825 L -0.4037 2 M -0.5962 2 L -0.4037 2 M -0.5962 2 L -0.5962 2.175 M -0.5962 2.175 L -0.4037 2.175" fill="none" stroke="onSurface" stroke-width="0.0315" stroke-linejoin="round" stroke-linecap="round"/>
    <path id="label-22" d="M -0.5962 2.825 L -0.4037 2.825 M -0.4037 2.825 L -0.4037 3 M -0.5962 3 L -0.4037 3 M -0.4037 3 L -0.4037 3.175 M -0.5962 3.175 L -0.4037 3.175" fill="none" stroke="onSurface" stroke-width="0.0315" stroke-linejoin="round" stroke-linecap="round"/>
    <path id="label-23" d="M -0.5962 3.825 L -0.5962 4 M -0.4037 3.825 L -0.4037 4 M -0.5962 4 L -0.4037 4 M -0.4037 4 L -0.4037 4.175" fill="none" stroke="onSurface" stroke-width="0.0315" stroke-linejoin="round" stroke-linecap="round"/>
    <path id="label-24" d="M -0.5962 4.825 L -0.4037 4.825 M -0.5962 4.825 L -0.5962 5 M -0.5962 5 L -0.4037 5 M -0.4037 5 L -0.4037 5.175 M -0.5962 5.175 L -0.4037 5.175" fill="none" stroke="onSurface" stroke-width="0.0315" stroke-linejoin="round" stroke-linecap="round"/>
    <path id="label-25" d="M -0.5962 5.825 L -0.4037 5.825 M -0.5962 5.825 L -0.5962 6 M -0.5962 6 L -0.4037 6 M -0.5962 6 L -0.5962 6.175 M -0.4037 6 L -0.4037 6.175 M -0.5962 6.175 L -0.4037 6.175" fill="none" stroke="onSurface" stroke-width="0.0315" stroke-linejoin="round" stroke-linecap="round"/>
    <path id="label-26" d="M -0.5962 6.825 L -0.4037 6.825 M -0.4037 6.825 L -0.4037 7 M -0.4037 7 L -0.4037 7.175" fill="none" stroke="onSurface" stroke-width="0.0315" stroke-linejoin="round" stroke-linecap="round"/>
    <path id="label-27" d="M -0.5962 7.825 L -0.4037 7.825 M -0.5962 7.825 L -0.5962 8 M -0.4037 7.825 L -0.4037 8 M -0.5962 8 L -0.4037 8 M -0.5962 8 L -0.5962 8.175 M -0.4037 8 L -0.4037 8.175 M -0.5962 8.175 L -0.4037 8.175" fill="none" stroke="onSurface" stroke-width="0.0315" stroke-linejoin="round" stroke-linecap="round"/>
    <path id="label-28" d="M -0.5962 8.825 L -0.4037 8.825 M -0.5962 8.825 L -0.5962 9 M -0.4037 8.825 L -0.4037 9 M -0.5962 9 L -0.4037 9 M -0.4037 9 L -0.4037 9.175 M -0.5962 9.175 L -0.4037 9.175" fill="none" stroke="onSurface" stroke-width="0.0315" stroke-linejoin="round" stroke-linecap="round"/>
    <path id="label-29" d="M -0.6225 9.825 L -0.6225 10.175 M -0.4738 9.825 L -0.2813 9.825 M -0.4738 9.825 L -0.4738 10 M -0.2813 9.825 L -0.2813 10 M -0.4738 10 L -0.4738 10.175 M -0.2813 10 L -0.2813 10.175 M -0.4738 10.175 L -0.2813 10.175" fill="none" stroke="onSurface" stroke-width="0.0315" stroke-linejoin="round" stroke-linecap="round"/>
    <path id="label-30" d="M -0.6225 10.825 L -0.6225 11.175 M -0.3775 10.825 L -0.3775 11.175" fill="none" stroke="onSurface" stroke-width="0.0315" stroke-linejoin="round" stroke-linecap="round"/>
    <path id="label-31" d="M -0.6225 11.825 L -0.6225 12.175 M -0.4738 11.825 L -0.2813 11.825 M -0.2813 11.825 L -0.2813 12 M -0.4738 12 L -0.2813 12 M -0.4738 12 L -0.4738 12.175 M -0.4738 12.175 L -0.2813 12.175" fill="none" stroke="onSurface" stroke-width="0.0315" stroke-linejoin="round" stroke-linecap="round"/>
    <path id="label-32" d="M -0.6225 12.825 L -0.6225 13.175 M -0.4738 12.825 L -0.2813 12.825 M -0.2813 12.825 L -0.2813 13 M -0.4738 13 L -0.2813 13 M -0.2813 13 L -0.2813 13.175 M -0.4738 13.175 L -0.2813 13.175" fill="none" stroke="onSurface" stroke-width="0.0315" stroke-linejoin="round" stroke-linecap="round"/>
    <path id="label-33" d="M -0.6225 13.825 L -0.6225 14.175 M -0.4738 13.825 L -0.4738 14 M -0.2813 13.825 L -0.2813 14 M -0.4738 14 L -0.2813 14 M -0.2813 14 L -0.2813 14.175" fill="none" stroke="onSurface" stroke-width="0.0315" stroke-linejoin="round" stroke-linecap="round"/>
    <path id="label-34" d="M -0.6225 14.825 L -0.6225 15.175 M -0.4738 14.825 L -0.2813 14.825 M -0.4738 14.825 L -0.4738 15 M -0.4738 15 L -0.2813 15 M -0.2813 15 L -0.2813 15.175 M -0.4738 15.175 L -0.2813 15.175" fill="none" stroke="onSurface" stroke-width="0.0315" stroke-linejoin="round" stroke-linecap="round"/>
    <path id="label-35" d="M -0.6225 15.825 L -0.6225 16.175 M -0.4738 15.825 L -0.2813 15.825 M -0.4738 15.825 L -0.4738 16 M -0.4738 16 L -0.2813 16 M -0.4738 16 L -0.4738 16.175 M -0.2813 16 L -0.2813 16.175 M -0.4738 16.175 L -0.2813 16.175" fill="none" stroke="onSurface" stroke-width="0.0315" stroke-linejoin="round" stroke-linecap="round"/>
    <path id="label-36" d="M -0.6225 16.825 L -0.6225 17.175 M -0.4738 16.825 L -0.2813 16.825 M -0.2813 16.825 L -0.2813 17 M -0.2813 17 L -0.2813 17.175" fill="none" stroke="onSurface" stroke-width="0.0315" stroke-linejoin="round" stroke-linecap="round"/>
    <path id="label-37" d="M -0.6225 17.825 L -0.6225 18.175 M -0.4738 17.825 L -0.2813 17.825 M -0.4738 17.825 L -0.4738 18 M -0.2813 17.825 L -0.2813 18 M -0.4738 18 L -0.2813 18 M -0.4738 18 L -0.4738 18.175 M -0.2813 18 L -0.2813 18.175 M -0.4738 18.175 L -0.2813 18.175" fill="none" stroke="onSurface" stroke-width="0.0315" stroke-linejoin="round" stroke-linecap="round"/>
    <path id="label-38" d="M -0.6225 18.825 L -0.6225 19.175 M -0.4738 18.825 L -0.2813 18.825 M -0.4738 18.825 L -0.4738 19 M -0.2813 18.825 L -0.2813 19 M -0.4738 19 L -0.2813 19 M -0.2813 19 L -0.2813 19.175 M -0.4738 19.175 L -0.2813 19.175" fill="none" stroke="onSurface" stroke-width="0.0315" stroke-linejoin="round" stroke-linecap="round"/>
    <path id="label-39" d="M -0.7188 19.825 L -0.5262 19.825 M -0.5262 19.825 L -0.5262 20 M -0.7188 20 L -0.5262 20 M -0.7188 20 L -0.7188 20.175 M -0.7188 20.175 L -0.5262 20.175 M -0.4738 19.825 L -0.2813 19.825 M -0.4738 19.825 L -0.4738 20 M -0.2813 19.825 L -0.2813 20 M -0.4738 20 L -0.4738 20.175 M -0.2813 20 L -0.2813 20.175 M -0.4738 20.175 L -0.2813 20.175" fill="none" stroke="onSurface" stroke-width="0.0315" stroke-linejoin="round" stroke-linecap="round"/>
    <path id="label-40" d="M -0.7188 20.825 L -0.5262 20.825 M -0.5262 20.825 L -0.5262 21 M -0.7188 21 L -0.5262 21 M -0.7188 21 L -0.7188 21.175 M -0.7188 21.175 L -0.5262 21.175 M -0.3775 20.825 L -0.3775 21.175" fill="none" stroke="onSurface" stroke-width="0.0315" stroke-linejoin="round" stroke-linecap="round"/>
    <path id="label-41" d="M -0.7188 21.825 L -0.5262 21.825 M -0.5262 21.825 L -0.5262 22 M -0.7188 22 L -0.5262 22 M -0.7188 22 L -0.7188 22.175 M -0.7188 22.175 L -0.5262 22.175 M -0.4738 21.825 L -0.2813 21.825 M -0.2813 21.825 L -0.2813 22 M -0.4738 22 L -0.2813 22 M -0.4738 22 L -0.4738 22.175 M -0.4738 22.175 L -0.2813 22.175" fill="none" stroke="onSurface" stroke-width="0.0315" stroke-linejoin="round" stroke-linecap="round"/>
    <path id="label-42" d="M -0.7188 22.825 L -0.5262 22.825 M -0.5262 22.825 L -0.5262 23 M -0.7188 23 L -0.5262 23 M -0.7188 23 L -0.7188 23.175 M -0.7188 23.175 L -0.5262 23.175 M -0.4738 22.825 L -0.2813 22.825 M -0.2813 22.825 L -0.2813 23 M -0.4738 23 L -0.2813 23 M -0.2813 23 L -0.2813 23.175 M -0.4738 23.175 L -0.2813 23.175" fill="none" stroke="onSurface" stroke-width="0.0315" stroke-linejoin="round" stroke-linecap="round"/>
    <path id="label-43" d="M -0.7188 23.825 L -0.5262 23.825 M -0.5262 23.825 L -0.5262 24 M -0.7188 24 L -0.5262 24 M -0.7188 24 L -0.7188 24.175 M -0.7188 24.175 L -0.5262 24.175 M -0.4738 23.825 L -0.4738 24 M -0.2813 23.825 L -0.2813 24 M -0.4738 24 L -0.2813 24 M -0.2813 24 L -0.2813 24.175" fill="none" stroke="onSurface" stroke-width="0.0315" stroke-linejoin="round" stroke-linecap="round"/>
    <path id="label-44" d="M -0.7188 24.825 L -0.5262 24.825 M -0.5262 24.825 L -0.5262 25 M -0.7188 25 L -0.5262 25 M -0.7188 25 L -0.7188 25.175 M -0.7188 25.175 L -0.5262 25.175 M -0.4738 24.825 L -0.2813 24.825 M -0.4738 24.825 L -0.4738 25 M -0.4738 25 L -0.2813 25 M -0.2813 25 L -0.2813 25.175 M -0.4738 25.175 L -0.2813 25.175" fill="none" stroke="onSurface" stroke-width="0.0315" stroke-linejoin="round" stroke-linecap="round"/>
    <path id="label-45" d="M -0.7188 25.825 L -0.5262 25.825 M -0.5262 25.825 L -0.5262 26 M -0.7188 26 L -0.5262 26 M -0.7188 26 L -0.7188 26.175 M -0.7188 26.175 L -0.5262 26.175 M -0.4738 25.825 L -0.2813 25.825 M -0.4738 25.825 L -0.4738 26 M -0.4738 26 L -0.2813 26 M -0.4738 26 L -0.4738 26.175 M -0.2813 26 L -0.2813 26.175 M -0.4738 26.175 L -0.2813 26.175" fill="none" stroke="onSurface" stroke-width="0.0315" stroke-linejoin="round" stroke-linecap="round"/>
    <path id="label-46" d="M -0.7188 26.825 L -0.5262 26.825 M -0.5262 26.825 L -0.5262 27 M -0.7188 27 L -0.5262 27 M -0.7188 27 L -0.7188 27.175 M -0.7188 27.175 L -0.5262 27.175 M -0.4738 26.825 L -0.2813 26.825 M -0.2813 26.825 L -0.2813 27 M -0.2813 27 L -0.2813 27.175" fill="none" stroke="onSurface" stroke-width="0.0315" stroke-linejoin="round" stroke-linecap="round"/>
    <path id="label-47" d="M -0.7188 27.825 L -0.5262 27.825 M -0.5262 27.825 L -0.5262 28 M -0.7188 28 L -0.5262 28 M -0.7188 28 L -0.7188 28.175 M -0.7188 28.175 L -0.5262 28.175 M -0.4738 27.825 L -0.2813 27.825 M -0.4738 27.825 L -0.4738 28 M -0.2813 27.825 L -0.2813 28 M -0.4738 28 L -0.2813 28 M -0.4738 28 L -0.4738 28.175 M -0.2813 28 L -0.2813 28.175 M -0.4738 28.175 L -0.2813 28.175" fill="none" stroke="onSurface" stroke-width="0.0315" stroke-linejoin="round" stroke-linecap="round"/>
    <path id="label-48" d="M -0.7188 28.825 L -0.5262 28.825 M -0.5262 28.825 L -0.5262 29 M -0.7188 29 L -0.5262 29 M -0.7188 29 L -0.7188 29.175 M -0.7188 29.175 L -0.5262 29.175 M -0.4738 28.825 L -0.2813 28.825 M -0.4738 28.825 L -0.4738 29 M -0.2813 28.825 L -0.2813 29 M -0.4738 29 L -0.2813 29 M -0.2813 29 L -0.2813 29.175 M -0.4738 29.175 L -0.2813 29.175" fill="none" stroke="onSurface" stroke-width="0.0315" stroke-linejoin="round" stroke-linecap="round"/>
    <path id="label-49" d="M -0.7188 29.825 L -0.5262 29.825 M -0.5262 29.825 L -0.5262 30 M -0.7188 30 L -0.5262 30 M -0.5262 30 L -0.5262 30.175 M -0.7188 30.175 L -0.5262 30.175 M -0.4738 29.825 L -0.2813 29.825 M -0.4738 29.825 L -0.4738 30 M -0.2813 29.825 L -0.2813 30 M -0.4738 30 L -0.4738 30.175 M -0.2813 30 L -0.2813 30.175 M -0.4738 30.175 L -0.2813 30.175" fill="none" stroke="onSurface" stroke-width="0.0315" stroke-linejoin="round" stroke-linecap="round"/>
    <line id="vline-4" x1="3.1" y1="1" x2="3.1" y2="3.3" stroke="onSurface" stroke-width="0.041" stroke-linejoin="miter" stroke-linecap="miter"/>
    <line id="hline-4" x1="2.1" y1="3" x2="4.1" y2="3" stroke="onSurface" stroke-width="0.041" stroke-linejoin="miter" stroke-linecap="miter"/>
    <path id="vruler-10" d="M 2.8 1 L 3.4 1 M 2.8 2 L 3.4 2" fill="none" stroke="onSurface" stroke-width="0.03" stroke-linejoin="miter" stroke-linecap="miter"/>
    <path id="vruler-11" d="M 3.1 1 L 3.2 1 M 3.1 1.2 L 3.2 1.2 M 3.1 1.4 L 3.2 1.4 M 3.1 1.6 L 3.2 1.6 M 3.1 1.8 L 3.2 1.8 M 3.1 2 L 3.2 2 M 3.1 2.2 L 3.2 2.2 M 3.1 2.4 L 3.2 2.4 M 3.1 2.6 L 3.2 2.6 M 3.1 2.8 L 3.2 2.8 M 3.1 3 L 3.2 3" fill="none" stroke="onSurface" stroke-width="0.03" stroke-linejoin="miter" stroke-linecap="miter"/>
    <path id="vruler-12" d="M 3 1.1 L 3.1 1.1 M 3 1.3 L 3.1 1.3 M 3 1.5 L 3.1 1.5 M 3 1.7 L 3.1 1.7 M 3 1.9 L 3.1 1.9 M 3 2.1 L 3.1 2.1 M 3 2.3 L 3.1 2.3 M 3 2.5 L 3.1 2.5 M 3 2.7 L 3.1 2.7 M 3 2.9 L 3.1 2.9" fill="none" stroke="onSurface" stroke-width="0.03" stroke-linejoin="miter" stroke-linecap="miter"/>
    <path id="hruler-10" d="M 2.1 2.7 L 2.1 3.3 M 4.1 2.7 L 4.1 3.3" fill="none" stroke="onSurface" stroke-width="0.03" stroke-linejoin="miter" stroke-linecap="miter"/>
    <path id="hruler-11" d="M 2.2 3 L 2.2 3.1 M 2.4 3 L 2.4 3.1 M 2.6 3 L 2.6 3.1 M 2.8 3 L 2.8 3.1 M 3 3 L 3 3.1 M 3.2 3 L 3.2 3.1 M 3.4 3 L 3.4 3.1 M 3.6 3 L 3.6 3.1 M 3.8 3 L 3.8 3.1 M 4 3 L 4 3.1" fill="none" stroke="onSurface" stroke-width="0.03" stroke-linejoin="miter" stroke-linecap="miter"/>
    <path id="hruler-12" d="M 2.3 2.9 L 2.3 3 M 2.5 2.9 L 2.5 3 M 2.7 2.9 L 2.7 3 M 2.9 2.9 L 2.9 3 M 3.1 2.9 L 3.1 3 M 3.3 2.9 L 3.3 3 M 3.5 2.9 L 3.5 3 M 3.7 2.9 L 3.7 3 M 3.9 2.9 L 3.9 3" fill="none" stroke="onSurface" stroke-width="0.03" stroke-linejoin="miter" stroke-linecap="miter"/>
    <path id="label-50" d="M 2.1 3.5525 L 2.1 3.9025" fill="none" stroke="onSurface" stroke-width="0.0315" stroke-linejoin="round" stroke-linecap="round"/>
    <path id="label-51" d="M 3.0038 3.5525 L 3.1963 3.5525 M 3.0038 3.5525 L 3.0038 3.7275 M 3.1963 3.5525 L 3.1963 3.7275 M 3.0038 3.7275 L 3.0038 3.9025 M 3.1963 3.7275 L 3.1963 3.9025 M 3.0038 3.9025 L 3.1963 3.9025" fill="none" stroke="onSurface" stroke-width="0.0315" stroke-linejoin="round" stroke-linecap="round"/>
    <path id="label-52" d="M 4.1 3.5525 L 4.1 3.9025" fill="none" stroke="onSurface" stroke-width="0.0315" stroke-linejoin="round" stroke-linecap="round"/>
    <path id="hruler-13" d="M 15 -0.3 L 15 0.3 M 14 -0.3 L 14 0.3 M 13 -0.3 L 13 0.3 M 12 -0.3 L 12 0.3 M 11 -0.3 L 11 0.3" fill="none" stroke="onSurface" stroke-width="0.04" stroke-linejoin="miter" stroke-linecap="miter"/>
    <path id="hruler-14" d="M -15 -0.3 L -15 0.3 M -14 -0.3 L -14 0.3 M -13 -0.3 L -13 0.3 M -12 -0.3 L -12 0.3 M -11 -0.3 L -11 0.3" fill="none" stroke="onSurface" stroke-width="0.04" stroke-linejoin="miter" stroke-linecap="miter"/>
    <rect id="rect-0" x="11" y="-0.2" width="3.97" height="0.4" fill="surface"/>
    <rect id="rect-1" x="-14.97" y="-0.2" width="4" height="0.4" fill="surface"/>
    <path id="path-0" d="M 30 0 L 10.2 0 M -30 0 L -10.2 0 M 30 0.2 L 11 0.2 M 30 -0.2 L 11 -0.2 M -30 0.2 L -11 0.2 M -30 -0.2 L -11 -0.2 M 10.2 0 L 11 0.2 M 10.2 0 L 11 -0.2 M -10.2 0 L -11 0.2 M -10.2 0 L -11 -0.2" fill="none" stroke="onSurface" stroke-width="0.04" stroke-linejoin="miter" stroke-linecap="miter"/>
    <path id="label-53" d="M 3.5038 0.825 L 3.6963 0.825 M 3.6963 0.825 L 3.6963 1 M 3.5038 1 L 3.6963 1 M 3.5038 1 L 3.5038 1.175 M 3.5038 1.175 L 3.6963 1.175" fill="none" stroke="onSurface" stroke-width="0.0315" stroke-linejoin="round" stroke-linecap="round"/>
    <path id="label-54" d="M 3.6 1.825 L 3.6 2.175" fill="none" stroke="onSurface" stroke-width="0.0315" stroke-linejoin="round" stroke-linecap="round"/>
  </g>
</svg>