<svg xmlns="http://www.w3.org/2000/svg" width="6000" height="6000" viewBox="-30 -30 60 60" target-mil-size="0" data-mil-width="60" data-mil-height="60" data-factor="100" shape-rendering="crispEdges">
  <clipPath id="clip0">
    <circle id="circle-0" cx="0" cy="0" r="30" fill="transparent"/>
  </clipPath>
  <g id="clipgroup-0" clip-path="url(#clip0)">
    <rect id="fill-0" x="-30" y="-30" width="60" height="60" fill="transparent"/>
    <circle id="dot-0" cx="0" cy="0" r="0.025" fill="red"/>
    <line id="hline-0" x1="10" y1="0" x2="0.1" y2="0" stroke="red" stroke-width="0.041"/>
    <line id="hline-1" x1="-10" y1="0" x2="-0.1" y2="0" stroke="red" stroke-width="0.041"/>
    <line id="vline-0" x1="0" y1="-5" x2="0" y2="-0.1" stroke="red" stroke-width="0.041"/>
    <line id="vline-1" x1="0" y1="30" x2="0" y2="0.1" stroke="red" stroke-width="0.041"/>
    <path id="hruler-0" d="M 10 -0.3 L 10 0.3 M 9 -0.3 L 9 0.3 M 8 -0.3 L 8 0.3 M 7 -0.3 L 7 0.3 M 6 -0.3 L 6 0.3 M 5 -0.3 L 5 0.3 M 4 -0.3 L 4 0.3 M 3 -0.3 L 3 0.3 M 2 -0.3 L 2 0.3 M 1 -0.3 L 1 0.3" fill="none" stroke="red" stroke-width="0.041" stroke-linejoin="miter" stroke-linecap="miter"/>
    <path id="hruler-1" d="M -10 -0.3 L -10 0.3 M -9 -0.3 L -9 0.3 M -8 -0.3 L -8 0.3 M -7 -0.3 L -7 0.3 M -6 -0.3 L -6 0.3 M -5 -0.3 L -5 0.3 M -4 -0.3 L -4 0.3 M -3 -0.3 L -3 0.3 M -2 -0.3 L -2 0.3 M -1 -0.3 L -1 0.3" fill="none" stroke="red" stroke-width="0.041" stroke-linejoin="miter" stroke-linecap="miter"/>
    <path id="vruler-0" d="M -0.3 -5 L 0.3 -5 M -0.3 -4 L 0.3 -4 M -0.3 -3 L 0.3 -3 M -0.3 -2 L 0.3 -2 M -0.3 -1 L 0.3 -1" fill="none" stroke="red" stroke-width="0.041" stroke-linejoin="miter" stroke-linecap="miter"/>
    <path id="vruler-1" d="M -0.3 30 L 0.3 30 M -0.3 29 L 0.3 29 M -0.3 28 L 0.3 28 M -0.3 27 L 0.3 27 M -0.3 26 L 0.3 26 M -0.3 25 L 0.3 25 M -0.3 24 L 0.3 24 M -0.3 23 L 0.3 23 M -0.3 22 L 0.3 22 M -0.3 21 L 0.3 21 M -0.3 20 L 0.3 20 M -0.3 19 L 0.3 19 M -0.3 18 L 0.3 18 M -0.3 17 L 0.3 17 M -0.3 16 L 0.3 16 M -0.3 15 L 0.3 15 M -0.3 14 L 0.3 14 M -0.3 13 L 0.3 13 M -0.3 12 L 0.3 12 M -0.3 11 L 0.3 11 M -0.3 10 L 0.3 10 M -0.3 9 L 0.3 9 M -0.3 8 L 0.3 8 M -0.3 7 L 0.3 7 M -0.3 6 L 0.3 6 M -0.3 5 L 0.3 5 M -0.3 4 L 0.3 4 M -0.3 3 L 0.3 3 M -0.3 2 L 0.3 2 M -0.3 1 L 0.3 1" fill="none" stroke="red" stroke-width="0.041" stroke-linejoin="miter" stroke-linecap="miter"/>
    <path id="hruler-2" d="M 1.2 0 L 1.2 0.2 M 2.2 0 L 2.2 0.2 M 3.2 0 L 3.2 0.2 M 4.2 0 L 4.2 0.2 M 5.2 0 L 5.2 0.2 M 6.2 0 L 6.2 0.2 M 7.2 0 L 7.2 0.2 M 8.2 0 L 8.2 0.2 M 9.2 0 L 9.2 0.2" fill="none" stroke="red" stroke-width="0.041" stroke-linejoin="miter" stroke-linecap="miter"/>
    <path id="hruler-3" d="M -1.2 0 L -1.2 0.2 M -2.2 0 L -2.2 0.2 M -3.2 0 L -3.2 0.2 M -4.2 0 L -4.2 0.2 M -5.2 0 L -5.2 0.2 M -6.2 0 L -6.2 0.2 M -7.2 0 L -7.2 0.2 M -8.2 0 L -8.2 0.2 M -9.2 0 L -9.2 0.2" fill="none" stroke="red" stroke-width="0.041" stroke-linejoin="miter" stroke-linecap="miter"/>
    <path id="hruler-4" d="M 0.4 -0.2 L 0.4 0 M 1.4 -0.2 L 1.4 0 M 2.4 -0.2 L 2.4 0 M 3.4 -0.2 L 3.4 0 M 4.4 -0.2 L 4.4 0 M 5.4 -0.2 L 5.4 0 M 6.4 -0.2 L 6.4 0 M 7.4 -0.2 L 7.4 0 M 8.4 -0.2 L 8.4 0 M 9.4 -0.2 L 9.4 0" fill="none" stroke="red" stroke-width="0.041" stroke-linejoin="miter" stroke-linecap="miter"/>
    <path id="hruler-5" d="M -0.4 -0.2 L -0.4 0 M -1.4 -0.2 L -1.4 0 M -2.4 -0.2 L -2.4 0 M -3.4 -0.2 L -3.4 0 M -4.4 -0.2 L -4.4 0 M -5.4 -0.2 L -5.4 0 M -6.4 -0.2 L -6.4 0 M -7.4 -0.2 L -7.4 0 M -8.4 -0.2 L -8.4 0 M -9.4 -0.2 L -9.4 0" fill="none" stroke="red" stroke-width="0.041" stroke-linejoin="miter" stroke-linecap="miter"/>
    <path id="hruler-6" d="M 0.6 -0.2 L 0.6 0 M 1.6 -0.2 L 1.6 0 M 2.6 -0.2 L 2.6 0 M 3.6 -0.2 L 3.6 0 M 4.6 -0.2 L 4.6 0 M 5.6 -0.2 L 5.6 0 M 6.6 -0.2 L 6.6 0 M 7.6 -0.2 L 7.6 0 M 8.6 -0.2 L 8.6 0 M 9.6 -0.2 L 9.6 0" fill="none" stroke="red" stroke-width="0.041" stroke-linejoin="miter" stroke-linecap="miter"/>
    <path id="hruler-7" d="M -0.6 -0.2 L -0.6 0 M -1.6 -0.2 L -1.6 0 M -2.6 -0.2 L -2.6 0 M -3.6 -0.2 L -3.6 0 M -4.6 -0.2 L -4.6 0 M -5.6 -0.2 L -5.6 0 M -6.6 -0.2 L -6.6 0 M -7.6 -0.2 L -7.6 0 M -8.6 -0.2 L -8.6 0 M -9.6 -0.2 L -9.6 0" fill="none" stroke="red" stroke-width="0.041" stroke-linejoin="miter" stroke-linecap="miter"/>
    <path id="hruler-8" d="M 0.8 0 L 0.8 0.2 M 1.8 0 L 1.8 0.2 M 2.8 0 L 2.8 0.2 M 3.8 0 L 3.8 0.2 M 4.8 0 L 4.8 0.2 M 5.8 0 L 5.8 0.2 M 6.8 0 L 6.8 0.2 M 7.8 0 L 7.8 0.2 M 8.8 0 L 8.8 0.2 M 9.8 0 L 9.8 0.2" fill="none" stroke="red" stroke-width="0.041" stroke-linejoin="miter" stroke-linecap="miter"/>
    <path id="hruler-9" d="M -0.8 0 L -0.8 0.2 M -1.8 0 L -1.8 0.2 M -2.8 0 L -2.8 0.2 M -3.8 0 L -3.8 0.2 M -4.8 0 L -4.8 0.2 M -5.8 0 L -5.8 0.2 M -6.8 0 L -6.8 0.2 M -7.8 0 L -7.8 0.2 M -8.8 0 L -8.8 0.2 M -9.8 0 L -9.8 0.2" fill="none" stroke="red" stroke-width="0.041" stroke-linejoin="miter" stroke-linecap="miter"/>
    <line id="vline-2" x1="0.2" y1="0" x2="0.2" y2="0.1" stroke="red" stroke-width="0.041"/>
    <line id="vline-3" x1="-0.2" y1="0" x2="-0.2" y2="0.1" stroke="red" stroke-width="0.041"/>
    <path id="vruler-2" d="M -0.2 -1.2 L 0 -1.2 M -0.2 -2.2 L 0 -2.2 M -0.2 -3.2 L 0 -3.2 M -0.2 -4.2 L 0 -4.2" fill="none" stroke="red" stroke-width="0.041" stroke-linejoin="miter" stroke-linecap="miter"/>
    <path id="vruler-3" d="M 0 -0.4 L 0.2 -0.4 M 0 -1.4 L 0.2 -1.4 M 0 -2.4 L 0.2 -2.4 M 0 -3.4 L 0.2 -3.4 M 0 -4.4 L 0.2 -4.4" fill="none" stroke="red" stroke-width="0.041" stroke-linejoin="miter" stroke-linecap="miter"/>
    <path id="vruler-4" d="M 0 -0.6 L 0.2 -0.6 M 0 -1.6 L 0.2 -1.6 M 0 -2.6 L 0.2 -2.6 M 0 -3.6 L 0.2 -3.6 M 0 -4.6 L 0.2 -4.6" fill="none" stroke="red" stroke-width="0.041" stroke-linejoin="miter" stroke-linecap="miter"/>
    <path id="vruler-5" d="M -0.2 -0.8 L 0 -0.8 M -0.2 -1.8 L 0 -1.8 M -0.2 -2.8 L 0 -2.8 M -0.2 -3.8 L 0 -3.8 M -0.2 -4.8 L 0 -4.8" fill="none" stroke="red" stroke-width="0.041" stroke-linejoin="miter" stroke-linecap="miter"/>
    <path id="vruler-6" d="M -0.2 1.2 L 0 1.2 M -0.2 2.2 L 0 2.2 M -0.2 3.2 L 0 3.2 M -0.2 4.2 L 0 4.2 M -0.2 5.2 L 0 5.2 M -0.2 6.2 L 0 6.2 M -0.2 7.2 L 0 7.2 M -0.2 8.2 L 0 8.2 M -0.2 9.2 L 0 9.2 M -0.2 10.2 L 0 10.2 M -0.2 11.2 L 0 11.2 M -0.2 12.2 L 0 12.2 M -0.2 13.2 L 0 13.2 M -0.2 14.2 L 0 14.2 M -0.2 15.2 L 0 15.2 M -0.2 16.2 L 0 16.2 M -0.2 17.2 L 0 17.2 M -0.2 18.2 L 0 18.2 M -0.2 19.2 L 0 19.2 M -0.2 20.2 L 0 20.2 M -0.2 21.2 L 0 21.2 M -0.2 22.2 L 0 22.2 M -0.2 23.2 L 0 23.2 M -0.2 24.2 L 0 24.2 M -0.2 25.2 L 0 25.2 M -0.2 26.2 L 0 26.2 M -0.2 27.2 L 0 27.2 M -0.2 28.2 L 0 28.2 M -0.2 29.2 L 0 29.2" fill="none" stroke="red" stroke-width="0.041" stroke-linejoin="miter" stroke-linecap="miter"/>
    <path id="vruler-7" d="M 0 0.4 L 0.2 0.4 M 0 1.4 L 0.2 1.4 M 0 2.4 L 0.2 2.4 M 0 3.4 L 0.2 3.4 M 0 4.4 L 0.2 4.4 M 0 5.4 L 0.2 5.4 M 0 6.4 L 0.2 6.4 M 0 7.4 L 0.2 7.4 M 0 8.4 L 0.2 8.4 M 0 9.4 L 0.2 9.4 M 0 10.4 L 0.2 10.4 M 0 11.4 L 0.2 11.4 M 0 12.4 L 0.2 12.4 M 0 13.4 L 0.2 13.4 M 0 14.4 L 0.2 14.4 M 0 15.4 L 0.2 15.4 M 0 16.4 L 0.2 16.4 M 0 17.4 L 0.2 17.4 M 0 18.4 L 0.2 18.4 M 0 19.4 L 0.2 19.4 M 0 20.4 L 0.2 20.4 M 0 21.4 L 0.2 21.4 M 0 22.4 L 0.2 22.4 M 0 23.4 L 0.2 23.4 M 0 24.4 L 0.2 24.4 M 0 25.4 L 0.2 25.4 M 0 26.4 L 0.2 26.4 M 0 27.4 L 0.2 27.4 M 0 28.4 L 0.2 28.4 M 0 29.4 L 0.2 29.4" fill="none" stroke="red" stroke-width="0.041" stroke-linejoin="miter" stroke-linecap="miter"/>
    <path id="vruler-8" d="M 0 0.6 L 0.2 0.6 M 0 1.6 L 0.2 1.6 M 0 2.6 L 0.2 2.6 M 0 3.6 L 0.2 3.6 M 0 4.6 L 0.2 4.6 M 0 5.6 L 0.2 5.6 M 0 6.6 L 0.2 6.6 M 0 7.6 L 0.2 7.6 M 0 8.6 L 0.2 8.6 M 0 9.6 L 0.2 9.6 M 0 10.6 L 0.2 10.6 M 0 11.6 L 0.2 11.6 M 0 12.6 L 0.2 12.6 M 0 13.6 L 0.2 13.6 M 0 14.6 L 0.2 14.6 M 0 15.6 L 0.2 15.6 M 0 16.6 L 0.2 16.6 M 0 17.6 L 0.2 17.6 M 0 18.6 L 0.2 18.6 M 0 19.6 L 0.2 19.6 M 0 20.6 L 0.2 20.6 M 0 21.6 L 0.2 21.6 M 0 22.6 L 0.2 22.6 M 0 23.6 L 0.2 23.6 M 0 24.6 L 0.2 24.6 M 0 25.6 L 0.2 25.6 M 0 26.6 L 0.2 26.6 M 0 27.6 L 0.2 27.6 M 0 28.6 L 0.2 28.6 M 0 29.6 L 0.2 29.6" fill="none" stroke="red" stroke-width="0.041" stroke-linejoin="miter" stroke-linecap="miter"/>
    <path id="vruler-9" d="M -0.2 0.8 L 0 0.8 M -0.2 1.8 L 0 1.8 M -0.2 2.8 L 0 2.8 M -0.2 3.8 L 0 3.8 M -0.2 4.8 L 0 4.8 M -0.2 5.8 L 0 5.8 M -0.2 6.8 L 0 6.8 M -0.2 7.8 L 0 7.8 M -0.2 8.8 L 0 8.8 M -0.2 9.8 L 0 9.8 M -0.2 10.8 L 0 10.8 M -0.2 11.8 L 0 11.8 M -0.2 12.8 L 0 12.8 M -0.2 13.8 L 0 13.8 M -0.2 14.8 L 0 14.8 M -0.2 15.8 L 0 15.8 M -0.2 16.8 L 0 16.8 M -0.2 17.8 L 0 17.8 M -0.2 18.8 L 0 18.8 M -0.2 19.8 L 0 19.8 M -0.2 20.8 L 0 20.8 M -0.2 21.8 L 0 21.8 M -0.2 22.8 L 0 22.8 M -0.2 23.8 L 0 23.8 M -0.2 24.8 L 0 24.8 M -0.2 25.8 L 0 25.8 M -0.2 26.8 L 0 26.8 M -0.2 27.8 L 0 27.8 M -0.2 28.8 L 0 28.8 M -0.2 29.8 L 0 29.8" fill="none" stroke="red" stroke-width="0.041" stroke-linejoin="miter" stroke-linecap="miter"/>
    <line id="hline-2" x1="-0.1" y1="0.2" x2="0.1" y2="0.2" stroke="red" stroke-width="0.041"/>
    <line id="hline-3" x1="-0.1" y1="-0.2" x2="0.1" y2="-0.2" stroke="red" stroke-width="0.041"/>
    <path id="label-0" d="M -10.123 -0.948 L -10.123 -0.598 M -9.974 -0.948 L -9.781 -0.948 M -9.974 -0.948 L -9.974 -0.773 M -9.781 -0.948 L -9.781 -0.773 M -9.974 -0.773 L -9.974 -0.598 M -9.781 -0.773 L -9.781 -0.598 M -9.974 -0.598 L -9.781 -0.598" fill="none" stroke="onSurface" stroke-width="0.032" stroke-linejoin="round" stroke-linecap="round"/>
    <path id="label-1" d="M -9.096 -0.948 L -8.904 -0.948 M -9.096 -0.948 L -9.096 -0.773 M -8.904 -0.948 L -8.904 -0.773 M -9.096 -0.773 L -8.904 -0.773 M -8.904 -0.773 L -8.904 -0.598 M -9.096 -0.598 L -8.904 -0.598" fill="none" stroke="onSurface" stroke-width="0.032" stroke-linejoin="round" stroke-linecap="round"/>
    <path id="label-2" d="M -8.096 -0.948 L -7.904 -0.948 M -8.096 -0.948 L -8.096 -0.773 M -7.904 -0.948 L -7.904 -0.773 M -8.096 -0.773 L -7.904 -0.773 M -8.096 -0.773 L -8.096 -0.598 M -7.904 -0.773 L -7.904 -0.598 M -8.096 -0.598 L -7.904 -0.598" fill="none" stroke="onSurface" stroke-width="0.032" stroke-linejoin="round" stroke-linecap="round"/>
    <path id="label-3" d="M -7.096 -0.948 L -6.904 -0.948 M -6.904 -0.948 L -6.904 -0.773 M -6.904 -0.773 L -6.904 -0.598" fill="none" stroke="onSurface" stroke-width="0.032" stroke-linejoin="round" stroke-linecap="round"/>
    <path id="label-4" d="M -6.096 -0.948 L -5.904 -0.948 M -6.096 -0.948 L -6.096 -0.773 M -6.096 -0.773 L -5.904 -0.773 M -6.096 -0.773 L -6.096 -0.598 M -5.904 -0.773 L -5.904 -0.598 M -6.096 -0.598 L -5.904 -0.598" fill="none" stroke="onSurface" stroke-width="0.032" stroke-linejoin="round" stroke-linecap="round"/>
    <path id="label-5" d="M -5.096 -0.948 L -4.904 -0.948 M -5.096 -0.948 L -5.096 -0.773 M -5.096 -0.773 L -4.904 -0.773 M -4.904 -0.773 L -4.904 -0.598 M -5.096 -0.598 L -4.904 -0.598" fill="none" stroke="onSurface" stroke-width="0.032" stroke-linejoin="round" stroke-linecap="round"/>
    <path id="label-6" d="M -4.096 -0.948 L -4.096 -0.773 M -3.904 -0.948 L -3.904 -0.773 M -4.096 -0.773 L -3.904 -0.773 M -3.904 -0.773 L -3.904 -0.598" fill="none" stroke="onSurface" stroke-width="0.032" stroke-linejoin="round" stroke-linecap="round"/>
    <path id="label-7" d="M -3.096 -0.948 L -2.904 -0.948 M -2.904 -0.948 L -2.904 -0.773 M -3.096 -0.773 L -2.904 -0.773 M -2.904 -0.773 L -2.904 -0.598 M -3.096 -0.598 L -2.904 -0.598" fill="none" stroke="onSurface" stroke-width="0.032" stroke-linejoin="round" stroke-linecap="round"/>
    <path id="label-8" d="M -2.096 -0.948 L -1.904 -0.948 M -1.904 -0.948 L -1.904 -0.773 M -2.096 -0.773 L -1.904 -0.773 M -2.096 -0.773 L -2.096 -0.598 M -2.096 -0.598 L -1.904 -0.598" fill="none" stroke="onSurface" stroke-width="0.032" stroke-linejoin="round" stroke-linecap="round"/>
    <path id="label-9" d="M -1 -0.948 L -1 -0.598" fill="none" stroke="onSurface" stroke-width="0.032" stroke-linejoin="round" stroke-linecap="round"/>
    <path id="label-10" d="M 1 -0.948 L 1 -0.598" fill="none" stroke="onSurface" stroke-width="0.032" stroke-linejoin="round" stroke-linecap="round"/>
    <path id="label-11" d="M 1.904 -0.948 L 2.096 -0.948 M 2.096 -0.948 L 2.096 -0.773 M 1.904 -0.773 L 2.096 -0.773 M 1.904 -0.773 L 1.904 -0.598 M 1.904 -0.598 L 2.096 -0.598" fill="none" stroke="onSurface" stroke-width="0.032" stroke-linejoin="round" stroke-linecap="round"/>
    <path id="label-12" d="M 2.904 -0.948 L 3.096 -0.948 M 3.096 -0.948 L 3.096 -0.773 M 2.904 -0.773 L 3.096 -0.773 M 3.096 -0.773 L 3.096 -0.598 M 2.904 -0.598 L 3.096 -0.598" fill="none" stroke="onSurface" stroke-width="0.032" stroke-linejoin="round" stroke-linecap="round"/>
    <path id="label-13" d="M 3.904 -0.948 L 3.904 -0.773 M 4.096 -0.948 L 4.096 -0.773 M 3.904 -0.773 L 4.096 -0.773 M 4.096 -0.773 L 4.096 -0.598" fill="none" stroke="onSurface" stroke-width="0.032" stroke-linejoin="round" stroke-linecap="round"/>
    <path id="label-14" d="M 4.904 -0.948 L 5.096 -0.948 M 4.904 -0.948 L 4.904 -0.773 M 4.904 -0.773 L 5.096 -0.773 M 5.096 -0.773 L 5.096 -0.598 M 4.904 -0.598 L 5.096 -0.598" fill="none" stroke="onSurface" stroke-width="0.032" stroke-linejoin="round" stroke-linecap="round"/>
    <path id="label-15" d="M 5.904 -0.948 L 6.096 -0.948 M 5.904 -0.948 L 5.904 -0.773 M 5.904 -0.773 L 6.096 -0.773 M 5.904 -0.773 L 5.904 -0.598 M 6.096 -0.773 L 6.096 -0.598 M 5.904 -0.598 L 6.096 -0.598" fill="none" stroke="onSurface" stroke-width="0.032" stroke-linejoin="round" stroke-linecap="round"/>
    <path id="label-16" d="M 6.904 -0.948 L 7.096 -0.948 M 7.096 -0.948 L 7.096 -0.773 M 7.096 -0.773 L 7.096 -0.598" fill="none" stroke="onSurface" stroke-width="0.032" stroke-linejoin="round" stroke-linecap="round"/>
    <path id="label-17" d="M 7.904 -0.948 L 8.096 -0.948 M 7.904 -0.948 L 7.904 -0.773 M 8.096 -0.948 L 8.096 -0.773 M 7.904 -0.773 L 8.096 -0.773 M 7.904 -0.773 L 7.904 -0.598 M 8.096 -0.773 L 8.096 -0.598 M 7.904 -0.598 L 8.096 -0.598" fill="none" stroke="onSurface" stroke-width="0.032" stroke-linejoin="round" stroke-linecap="round"/>
    <path id="label-18" d="M 8.904 -0.948 L 9.096 -0.948 M 8.904 -0.948 L 8.904 -0.773 M 9.096 -0.948 L 9.096 -0.773 M 8.904 -0.773 L 9.096 -0.773 M 9.096 -0.773 L 9.096 -0.598 M 8.904 -0.598 L 9.096 -0.598" fill="none" stroke="onSurface" stroke-width="0.032" stroke-linejoin="round" stroke-linecap="round"/>
    <path id="label-19" d="M 9.878 -0.948 L 9.878 -0.598 M 10.026 -0.948 L 10.219 -0.948 M 10.026 -0.948 L 10.026 -0.773 M 10.219 -0.948 L 10.219 -0.773 M 10.026 -0.773 L 10.026 -0.598 M 10.219 -0.773 L 10.219 -0.598 M 10.026 -0.598 L 10.219 -0.598" fill="none" stroke="onSurface" stroke-width="0.032" stroke-linejoin="round" stroke-linecap="round"/>
    <path id="label-20" d="M -0.5 0.825 L -0.5 1.175" fill="none" stroke="onSurface" stroke-width="0.032" stroke-linejoin="round" stroke-linecap="round"/>
    <path id="label-21" d="M -0.596 1.825 L -0.404 1.825 M -0.404 1.825 L -0.404 2 M -0.596 2 L -0.404 2 M -0.596 2 L -0.596 2.175 M -0.596 2.175 L -0.404 2.175" fill="none" stroke="onSurface" stroke-width="0.032" stroke-linejoin="round" stroke-linecap="round"/>
    <path id="label-22" d="M -0.596 2.825 L -0.404 2.825 M -0.404 2.825 L -0.404 3 M -0.596 3 L -0.404 3 M -0.404 3 L -0.404 3.175 M -0.596 3.175 L -0.404 3.175" fill="none" stroke="onSurface" stroke-width="0.032" stroke-linejoin="round" stroke-linecap="round"/>
    <path id="label-23" d="M -0.596 3.825 L -0.596 4 M -0.404 3.825 L -0.404 4 M -0.596 4 L -0.404 4 M -0.404 4 L -0.404 4.175" fill="none" stroke="onSurface" stroke-width="0.032" stroke-linejoin="round" stroke-linecap="round"/>
    <path id="label-24" d="M -0.596 4.825 L -0.404 4.825 M -0.596 4.825 L -0.596 5 M -0.596 5 L -0.404 5 M -0.404 5 L -0.404 5.175 M -0.596 5.175 L -0.404 5.175" fill="none" stroke="onSurface" stroke-width="0.032" stroke-linejoin="round" stroke-linecap="round"/>
    <path id="label-25" d="M -0.596 5.825 L -0.404 5.825 M -0.596 5.825 L -0.596 6 M -0.596 6 L -0.404 6 M -0.596 6 L -0.596 6.175 M -0.404 6 L -0.404 6.175 M -0.596 6.175 L -0.404 6.175" fill="none" stroke="onSurface" stroke-width="0.032" stroke-linejoin="round" stroke-linecap="round"/>
    <path id="label-26" d="M -0.596 6.825 L -0.404 6.825 M -0.404 6.825 L -0.404 7 M -0.404 7 L -0.404 7.175" fill="none" stroke="onSurface" stroke-width="0.032" stroke-linejoin="round" stroke-linecap="round"/>
    <path id="label-27" d="M -0.596 7.825 L -0.404 7.825 M -0.596 7.825 L -0.596 8 M -0.404 7.825 L -0.404 8 M -0.596 8 L -0.404 8 M -0.596 8 L -0.596 8.175 M -0.404 8 L -0.404 8.175 M -0.596 8.175 L -0.404 8.175" fill="none" stroke="onSurface" stroke-width="0.032" stroke-linejoin="round" stroke-linecap="round"/>
    <path id="label-28" d="M -0.596 8.825 L -0.404 8.825 M -0.596 8.825 L -0.596 9 M -0.404 8.825 L -0.404 9 M -0.596 9 L -0.404 9 M -0.404 9 L -0.404 9.175 M -0.596 9.175 L -0.404 9.175" fill="none" stroke="onSurface" stroke-width="0.032" stroke-linejoin="round" stroke-linecap="round"/>
    <path id="label-29" d="M -0.623 9.825 L -0.623 10.175 M -0.474 9.825 L -0.281 9.825 M -0.474 9.825 L -0.474 10 M -0.281 9.825 L -0.281 10 M -0.474 10 L -0.474 10.175 M -0.281 10 L -0.281 10.175 M -0.474 10.175 L -0.281 10.175" fill="none" stroke="onSurface" stroke-width="0.032" stroke-linejoin="round" stroke-linecap="round"/>
    <path id="label-30" d="M -0.623 10.825 L -0.623 11.175 M -0.378 10.825 L -0.378 11.175" fill="none" stroke="onSurface" stroke-width="0.032" stroke-linejoin="round" stroke-linecap="round"/>
    <path id="label-31" d="M -0.623 11.825 L -0.623 12.175 M -0.474 11.825 L -0.281 11.825 M -0.281 11.825 L -0.281 12 M -0.474 12 L -0.281 12 M -0.474 12 L -0.474 12.175 M -0.474 12.175 L -0.281 12.175" fill="none" stroke="onSurface" stroke-width="0.032" stroke-linejoin="round" stroke-linecap="round"/>
    <path id="label-32" d="M -0.623 12.825 L -0.623 13.175 M -0.474 12.825 L -0.281 12.825 M -0.281 12.825 L -0.281 13 M -0.474 13 L -0.281 13 M -0.281 13 L -0.281 13.175 M -0.474 13.175 L -0.281 13.175" fill="none" stroke="onSurface" stroke-width="0.032" stroke-linejoin="round" stroke-linecap="round"/>
    <path id="label-33" d="M -0.623 13.825 L -0.623 14.175 M -0.474 13.825 L -0.474 14 M -0.281 13.825 L -0.281 14 M -0.474 14 L -0.281 14 M -0.281 14 L -0.281 14.175" fill="none" stroke="onSurface" stroke-width="0.032" stroke-linejoin="round" stroke-linecap="round"/>
    <path id="label-34" d="M -0.623 14.825 L -0.623 15.175 M -0.474 14.825 L -0.281 14.825 M -0.474 14.825 L -0.474 15 M -0.474 15 L -0.281 15 M -0.281 15 L -0.281 15.175 M -0.474 15.175 L -0.281 15.175" fill="none" stroke="onSurface" stroke-width="0.032" stroke-linejoin="round" stroke-linecap="round"/>
    <path id="label-35" d="M -0.623 15.825 L -0.623 16.175 M -0.474 15.825 L -0.281 15.825 M -0.474 15.825 L -0.474 16 M -0.474 16 L -0.281 16 M -0.474 16 L -0.474 16.175 M -0.281 16 L -0.281 16.175 M -0.474 16.175 L -0.281 16.175" fill="none" stroke="onSurface" stroke-width="0.032" stroke-linejoin="round" stroke-linecap="round"/>
    <path id="label-36" d="M -0.623 16.825 L -0.623 17.175 M -0.474 16.825 L -0.281 16.825 M -0.281 16.825 L -0.281 17 M -0.281 17 L -0.281 17.175" fill="none" stroke="onSurface" stroke-width="0.032" stroke-linejoin="round" stroke-linecap="round"/>
    <path id="label-37" d="M -0.623 17.825 L -0.623 18.175 M -0.474 17.825 L -0.281 17.825 M -0.474 17.825 L -0.474 18 M -0.281 17.825 L -0.281 18 M -0.474 18 L -0.281 18 M -0.474 18 L -0.474 18.175 M -0.281 18 L -0.281 18.175 M -0.474 18.175 L -0.281 18.175" fill="none" stroke="onSurface" stroke-width="0.032" stroke-linejoin="round" stroke-linecap="round"/>
    <path id="label-38" d="M -0.623 18.825 L -0.623 19.175 M -0.474 18.825 L -0.281 18.825 M -0.474 18.825 L -0.474 19 M -0.281 18.825 L -0.281 19 M -0.474 19 L -0.281 19 M -0.281 19 L -0.281 19.175 M -0.474 19.175 L -0.281 19.175" fill="none" stroke="onSurface" stroke-width="0.032" stroke-linejoin="round" stroke-linecap="round"/>
    <path id="label-39" d="M -0.719 19.825 L -0.526 19.825 M -0.526 19.825 L -0.526 20 M -0.719 20 L -0.526 20 M -0.719 20 L -0.719 20.175 M -0.719 20.175 L -0.526 20.175 M -0.474 19.825 L -0.281 19.825 M -0.474 19.825 L -0.474 20 M -0.281 19.825 L -0.281 20 M -0.474 20 L -0.474 20.175 M -0.281 20 L -0.281 20.175 M -0.474 20.175 L -0.281 20.175" fill="none" stroke="onSurface" stroke-width="0.032" stroke-linejoin="round" stroke-linecap="round"/>
    <path id="label-40" d="M -0.719 20.825 L -0.526 20.825 M -0.526 20.825 L -0.526 21 M -0.719 21 L -0.526 21 M -0.719 21 L -0.719 21.175 M -0.719 21.175 L -0.526 21.175 M -0.378 20.825 L -0.378 21.175" fill="none" stroke="onSurface" stroke-width="0.032" stroke-linejoin="round" stroke-linecap="round"/>
    <path id="label-41" d="M -0.719 21.825 L -0.526 21.825 M -0.526 21.825 L -0.526 22 M -0.719 22 L -0.526 22 M -0.719 22 L -0.719 22.175 M -0.719 22.175 L -0.526 22.175 M -0.474 21.825 L -0.281 21.825 M -0.281 21.825 L -0.281 22 M -0.474 22 L -0.281 22 M -0.474 22 L -0.474 22.175 M -0.474 22.175 L -0.281 22.175" fill="none" stroke="onSurface" stroke-width="0.032" stroke-linejoin="round" stroke-linecap="round"/>
    <path id="label-42" d="M -0.719 22.825 L -0.526 22.825 M -0.526 22.825 L -0.526 23 M -0.719 23 L -0.526 23 M -0.719 23 L -0.719 23.175 M -0.719 23.175 L -0.526 23.175 M -0.474 22.825 L -0.281 22.825 M -0.281 22.825 L -0.281 23 M -0.474 23 L -0.281 23 M -0.281 23 L -0.281 23.175 M -0.474 23.175 L -0.281 23.175" fill="none" stroke="onSurface" stroke-width="0.032" stroke-linejoin="round" stroke-linecap="round"/>
    <path id="label-43" d="M -0.719 23.825 L -0.526 23.825 M -0.526 23.825 L -0.526 24 M -0.719 24 L -0.526 24 M -0.719 24 L -0.719 24.175 M -0.719 24.175 L -0.526 24.175 M -0.474 23.825 L -0.474 24 M -0.281 23.825 L -0.281 24 M -0.474 24 L -0.281 24 M -0.281 24 L -0.281 24.175" fill="none" stroke="onSurface" stroke-width="0.032" stroke-linejoin="round" stroke-linecap="round"/>
    <path id="label-44" d="M -0.719 24.825 L -0.526 24.825 M -0.526 24.825 L -0.526 25 M -0.719 25 L -0.526 25 M -0.719 25 L -0.719 25.175 M -0.719 25.175 L -0.526 25.175 M -0.474 24.825 L -0.281 24.825 M -0.474 24.825 L -0.474 25 M -0.474 25 L -0.281 25 M -0.281 25 L -0.281 25.175 M -0.474 25.175 L -0.281 25.175" fill="none" stroke="onSurface" stroke-width="0.032" stroke-linejoin="round" stroke-linecap="round"/>
    <path id="label-45" d="M -0.719 25.825 L -0.526 25.825 M -0.526 25.825 L -0.526 26 M -0.719 26 L -0.526 26 M -0.719 26 L -0.719 26.175 M -0.719 26.175 L -0.526 26.175 M -0.474 25.825 L -0.281 25.825 M -0.474 25.825 L -0.474 26 M -0.474 26 L -0.281 26 M -0.474 26 L -0.474 26.175 M -0.281 26 L -0.281 26.175 M -0.474 26.175 L -0.281 26.175" fill="none" stroke="onSurface" stroke-width="0.032" stroke-linejoin="round" stroke-linecap="round"/>
    <path id="label-46" d="M -0.719 26.825 L -0.526 26.825 M -0.526 26.825 L -0.526 27 M -0.719 27 L -0.526 27 M -0.719 27 L -0.719 27.175 M -0.719 27.175 L -0.526 27.175 M -0.474 26.825 L -0.281 26.825 M -0.281 26.825 L -0.281 27 M -0.281 27 L -0.281 27.175" fill="none" stroke="onSurface" stroke-width="0.032" stroke-linejoin="round" stroke-linecap="round"/>
    <path id="label-47" d="M -0.719 27.825 L -0.526 27.825 M -0.526 27.825 L -0.526 28 M -0.719 28 L -0.526 28 M -0.719 28 L -0.719 28.175 M -0.719 28.175 L -0.526 28.175 M -0.474 27.825 L -0.281 27.825 M -0.474 27.825 L -0.474 28 M -0.281 27.825 L -0.281 28 M -0.474 28 L -0.281 28 M -0.474 28 L -0.474 28.175 M -0.281 28 L -0.281 28.175 M -0.474 28.175 L -0.281 28.175" fill="none" stroke="onSurface" stroke-width="0.032" stroke-linejoin="round" stroke-linecap="round"/>
    <path id="label-48" d="M -0.719 28.825 L -0.526 28.825 M -0.526 28.825 L -0.526 29 M -0.719 29 L -0.526 29 M -0.719 29 L -0.719 29.175 M -0.719 29.175 L -0.526 29.175 M -0.474 28.825 L -0.281 28.825 M -0.474 28.825 L -0.474 29 M -0.281 28.825 L -0.281 29 M -0.474 29 L -0.281 29 M -0.281 29 L -0.281 29.175 M -0.474 29.175 L -0.281 29.175" fill="none" stroke="onSurface" stroke-width="0.032" stroke-linejoin="round" stroke-linecap="round"/>
    <path id="label-49" d="M -0.719 29.825 L -0.526 29.825 M -0.526 29.825 L -0.526 30 M -0.719 30 L -0.526 30 M -0.526 30 L -0.526 30.175 M -0.719 30.175 L -0.526 30.175 M -0.474 29.825 L -0.281 29.825 M -0.474 29.825 L -0.474 30 M -0.281 29.825 L -0.281 30 M -0.474 30 L -0.474 30.175 M -0.281 30 L -0.281 30.175 M -0.474 30.175 L -0.281 30.175" fill="none" stroke="onSurface" stroke-width="0.032" stroke-linejoin="round" stroke-linecap="round"/>
    <line id="vline-4" x1="3.1" y1="1" x2="3.1" y2="3.3" stroke="onSurface" stroke-width="0.041"/>
    <line id="hline-4" x1="2.1" y1="3" x2="4.1" y2="3" stroke="onSurface" stroke-width="0.041"/>
    <path id="vruler-10" d="M 2.8 1 L 3.4 1 M 2.8 2 L 3.4 2" fill="none" stroke="onSurface" stroke-width="0.03" stroke-linejoin="miter" stroke-linecap="miter"/>
    <path id="vruler-11" d="M 3.1 1 L 3.2 1 M 3.1 1.2 L 3.2 1.2 M 3.1 1.4 L 3.2 1.4 M 3.1 1.6 L 3.2 1.6 M 3.1 1.8 L 3.2 1.8 M 3.1 2 L 3.2 2 M 3.1 2.2 L 3.2 2.2 M 3.1 2.4 L 3.2 2.4 M 3.1 2.6 L 3.2 2.6 M 3.1 2.8 L 3.2 2.8 M 3.1 3 L 3.2 3" fill="none" stroke="onSurface" stroke-width="0.03" stroke-linejoin="miter" stroke-linecap="miter"/>
    <path id="vruler-12" d="M 3 1.1 L 3.1 1.1 M 3 1.3 L 3.1 1.3 M 3 1.5 L 3.1 1.5 M 3 1.7 L 3.1 1.7 M 3 1.9 L 3.1 1.9 M 3 2.1 L 3.1 2.1 M 3 2.3 L 3.1 2.3 M 3 2.5 L 3.1 2.5 M 3 2.7 L 3.1 2.7 M 3 2.9 L 3.1 2.9" fill="none" stroke="onSurface" stroke-width="0.03" stroke-linejoin="miter" stroke-linecap="miter"/>
    <path id="hruler-10" d="M 2.1 2.7 L 2.1 3.3 M 4.1 2.7 L 4.1 3.3" fill="none" stroke="onSurface" stroke-width="0.03" stroke-linejoin="miter" stroke-linecap="miter"/>
    <path id="hruler-11" d="M 2.2 3 L 2.2 3.1 M 2.4 3 L 2.4 3.1 M 2.6 3 L 2.6 3.1 M 2.8 3 L 2.8 3.1 M 3 3 L 3 3.1 M 3.2 3 L 3.2 3.1 M 3.4 3 L 3.4 3.1 M 3.6 3 L 3.6 3.1 M 3.8 3 L 3.8 3.1 M 4 3 L 4 3.1" fill="none" stroke="onSurface" stroke-width="0.03" stroke-linejoin="miter" stroke-linecap="miter"/>
    <path id="hruler-12" d="M 2.3 2.9 L 2.3 3 M 2.5 2.9 L 2.5 3 M 2.7 2.9 L 2.7 3 M 2.9 2.9 L 2.9 3 M 3.1 2.9 L 3.1 3 M 3.3 2.9 L 3.3 3 M 3.5 2.9 L 3.5 3 M 3.7 2.9 L 3.7 3 M 3.9 2.9 L 3.9 3" fill="none" stroke="onSurface" stroke-width="0.03" stroke-linejoin="miter" stroke-linecap="miter"/>
    <path id="label-50" d="M 2.1 3.553 L 2.1 3.903" fill="none" stroke="onSurface" stroke-width="0.032" stroke-linejoin="round" stroke-linecap="round"/>
    <path id="label-51" d="M 3.004 3.553 L 3.196 3.553 M 3.004 3.553 L 3.004 3.728 M 3.196 3.553 L 3.196 3.728 M 3.004 3.728 L 3.004 3.903 M 3.196 3.728 L 3.196 3.903 M 3.004 3.903 L 3.196 3.903" fill="none" stroke="onSurface" stroke-width="0.032" stroke-linejoin="round" stroke-linecap="round"/>
    <path id="label-52" d="M 4.1 3.553 L 4.1 3.903" fill="none" stroke="onSurface" stroke-width="0.032" stroke-linejoin="round" stroke-linecap="round"/>
    <path id="hruler-13" d="M 15 -0.3 L 15 0.3 M 14 -0.3 L 14 0.3 M 13 -0.3 L 13 0.3 M 12 -0.3 L 12 0.3 M 11 -0.3 L 11 0.3" fill="none" stroke="onSurface" stroke-width="0.04" stroke-linejoin="miter" stroke-linecap="miter"/>
    <path id="hruler-14" d="M -15 -0.3 L -15 0.3 M -14 -0.3 L -14 0.3 M -13 -0.3 L -13 0.3 M -12 -0.3 L -12 0.3 M -11 -0.3 L -11 0.3" fill="none" stroke="onSurface" stroke-width="0.04" stroke-linejoin="miter" stroke-linecap="miter"/>
    <rect id="rect-0" x="11" y="-0.2" width="3.97" height="0.4" fill="surface"/>
    <rect id="rect-1" x="-14.97" y="-0.2" width="4" height="0.4" fill="surface"/>
    <path id="path-0" d="M 30 0 L 10.2 0 M -30 0 L -10.2 0 M 30 0.2 L 11 0.2 M 30 -0.2 L 11 -0.2 M -30 0.2 L -11 0.2 M -30 -0.2 L -11 -0.2 M 10.2 0 L 11 0.2 M 10.2 0 L 11 -0.2 M -10.2 0 L -11 0.2 M -10.2 0 L -11 -0.2" fill="none" stroke="onSurface" stroke-width="0.04" stroke-linejoin="miter" stroke-linecap="miter"/>
    <path id="label-53" d="M 3.504 0.825 L 3.696 0.825 M 3.696 0.825 L 3.696 1 M 3.504 1 L 3.696 1 M 3.504 1 L 3.504 1.175 M 3.504 1.175 L 3.696 1.175" fill="none" stroke="onSurface" stroke-width="0.032" stroke-linejoin="round" stroke-linecap="round"/>
    <path id="label-54" d="M 3.6 1.825 L 3.6 2.175" fill="none" stroke="onSurface" stroke-width="0.032" stroke-linejoin="round" stroke-linecap="round"/>
  </g>
</svg>