<svg xmlns="http://www.w3.org/2000/svg" width="3000.0" height="3000.0" viewBox="-15.0 -15.0 30.0 30.0" data-mil-width="30.0" data-mil-height="30.0" data-factor="100" shape-rendering="crispEdges">
  <clipPath id="clip0">
    <circle id="circle-0" cx="0.0" cy="0.0" r="15.0" fill="white"/>
  </clipPath>
  <g id="clipgroup-0" clip-path="url(#clip0)">
    <line id="line-0" x1="-10.0" y1="0.0" x2="10.0" y2="0.0" stroke="onSurface" stroke-width="0.05"/>
    <line id="line-1" x1="0.0" y1="-10.0" x2="0.0" y2="14.0" stroke="onSurface" stroke-width="0.05"/>
    <line id="line-2" x1="-10.0" y1="-0.5" x2="-10.0" y2="0.5" stroke="onSurface" stroke-width="0.05"/>
    <text id="text-0" x="-10.0" y="-1.15" fill="onSurface" font-size="0.625" text-anchor="middle">10</text>
    <line id="line-3" x1="-9.0" y1="-0.5" x2="-9.0" y2="0.5" stroke="onSurface" stroke-width="0.05"/>
    <line id="line-4" x1="-8.0" y1="-0.5" x2="-8.0" y2="0.5" stroke="onSurface" stroke-width="0.05"/>
    <text id="text-1" x="-8.0" y="-1.15" fill="onSurface" font-size="0.625" text-anchor="middle">8</text>
    <line id="line-5" x1="-7.0" y1="-0.5" x2="-7.0" y2="0.5" stroke="onSurface" stroke-width="0.05"/>
    <line id="line-6" x1="-6.0" y1="-0.5" x2="-6.0" y2="0.5" stroke="onSurface" stroke-width="0.05"/>
    <text id="text-2" x="-6.0" y="-1.15" fill="onSurface" font-size="0.625" text-anchor="middle">6</text>
    <line id="line-7" x1="-5.0" y1="-0.5" x2="-5.0" y2="0.5" stroke="onSurface" stroke-width="0.05"/>
    <line id="line-8" x1="-4.0" y1="-0.5" x2="-4.0" y2="0.5" stroke="onSurface" stroke-width="0.05"/>
    <text id="text-3" x="-4.0" y="-1.15" fill="onSurface" font-size="0.625" text-anchor="middle">4</text>
    <line id="line-9" x1="-3.0" y1="-0.5" x2="-3.0" y2="0.5" stroke="onSurface" stroke-width="0.05"/>
    <line id="line-10" x1="-2.0" y1="-0.5" x2="-2.0" y2="0.5" stroke="onSurface" stroke-width="0.05"/>
    <text id="text-4" x="-2.0" y="-1.15" fill="onSurface" font-size="0.625" text-anchor="middle">2</text>
    <line id="line-11" x1="-1.0" y1="-0.5" x2="-1.0" y2="0.5" stroke="onSurface" stroke-width="0.05"/>
    <line id="line-12" x1="1.0" y1="-0.5" x2="1.0" y2="0.5" stroke="onSurface" stroke-width="0.05"/>
    <line id="line-13" x1="2.0" y1="-0.5" x2="2.0" y2="0.5" stroke="onSurface" stroke-width="0.05"/>
    <text id="text-5" x="2.0" y="-1.15" fill="onSurface" font-size="0.625" text-anchor="middle">2</text>
    <line id="line-14" x1="3.0" y1="-0.5" x2="3.0" y2="0.5" stroke="onSurface" stroke-width="0.05"/>
    <line id="line-15" x1="4.0" y1="-0.5" x2="4.0" y2="0.5" stroke="onSurface" stroke-width="0.05"/>
    <text id="text-6" x="4.0" y="-1.15" fill="onSurface" font-size="0.625" text-anchor="middle">4</text>
    <line id="line-16" x1="5.0" y1="-0.5" x2="5.0" y2="0.5" stroke="onSurface" stroke-width="0.05"/>
    <line id="line-17" x1="6.0" y1="-0.5" x2="6.0" y2="0.5" stroke="onSurface" stroke-width="0.05"/>
    <text id="text-7" x="6.0" y="-1.15" fill="onSurface" font-size="0.625" text-anchor="middle">6</text>
    <line id="line-18" x1="7.0" y1="-0.5" x2="7.0" y2="0.5" stroke="onSurface" stroke-width="0.05"/>
    <line id="line-19" x1="8.0" y1="-0.5" x2="8.0" y2="0.5" stroke="onSurface" stroke-width="0.05"/>
    <text id="text-8" x="8.0" y="-1.15" fill="onSurface" font-size="0.625" text-anchor="middle">8</text>
    <line id="line-20" x1="9.0" y1="-0.5" x2="9.0" y2="0.5" stroke="onSurface" stroke-width="0.05"/>
    <line id="line-21" x1="10.0" y1="-0.5" x2="10.0" y2="0.5" stroke="onSurface" stroke-width="0.05"/>
    <text id="text-9" x="10.0" y="-1.15" fill="onSurface" font-size="0.625" text-anchor="middle">10</text>
    <line id="line-22" x1="-0.5" y1="-10.0" x2="0.5" y2="-10.0" stroke="onSurface" stroke-width="0.05"/>
    <text id="text-10" x="-0.7" y="-9.8425" fill="onSurface" font-size="0.625" text-anchor="end">10</text>
    <line id="line-23" x1="-0.5" y1="-9.0" x2="0.5" y2="-9.0" stroke="onSurface" stroke-width="0.05"/>
    <line id="line-24" x1="-0.5" y1="-8.0" x2="0.5" y2="-8.0" stroke="onSurface" stroke-width="0.05"/>
    <text id="text-11" x="-0.7" y="-7.8425" fill="onSurface" font-size="0.625" text-anchor="end">8</text>
    <line id="line-25" x1="-0.5" y1="-7.0" x2="0.5" y2="-7.0" stroke="onSurface" stroke-width="0.05"/>
    <line id="line-26" x1="-0.5" y1="-6.0" x2="0.5" y2="-6.0" stroke="onSurface" stroke-width="0.05"/>
    <text id="text-12" x="-0.7" y="-5.8425" fill="onSurface" font-size="0.625" text-anchor="end">6</text>
    <line id="line-27" x1="-0.5" y1="-5.0" x2="0.5" y2="-5.0" stroke="onSurface" stroke-width="0.05"/>
    <line id="line-28" x1="-0.5" y1="-4.0" x2="0.5" y2="-4.0" stroke="onSurface" stroke-width="0.05"/>
    <text id="text-13" x="-0.7" y="-3.8425" fill="onSurface" font-size="0.625" text-anchor="end">4</text>
    <line id="line-29" x1="-0.5" y1="-3.0" x2="0.5" y2="-3.0" stroke="onSurface" stroke-width="0.05"/>
    <line id="line-30" x1="-0.5" y1="-2.0" x2="0.5" y2="-2.0" stroke="onSurface" stroke-width="0.05"/>
    <text id="text-14" x="-0.7" y="-1.8425" fill="onSurface" font-size="0.625" text-anchor="end">2</text>
    <line id="line-31" x1="-0.5" y1="-1.0" x2="0.5" y2="-1.0" stroke="onSurface" stroke-width="0.05"/>
    <line id="line-32" x1="-0.5" y1="1.0" x2="0.5" y2="1.0" stroke="onSurface" stroke-width="0.05"/>
    <line id="line-33" x1="-0.5" y1="2.0" x2="0.5" y2="2.0" stroke="onSurface" stroke-width="0.05"/>
    <text id="text-15" x="-0.7" y="2.1575" fill="onSurface" font-size="0.625" text-anchor="end">2</text>
    <line id="line-34" x1="-0.5" y1="3.0" x2="0.5" y2="3.0" stroke="onSurface" stroke-width="0.05"/>
    <line id="line-35" x1="-0.5" y1="4.0" x2="0.5" y2="4.0" stroke="onSurface" stroke-width="0.05"/>
    <text id="text-16" x="-0.7" y="4.1575" fill="onSurface" font-size="0.625" text-anchor="end">4</text>
    <line id="line-36" x1="-0.5" y1="5.0" x2="0.5" y2="5.0" stroke="onSurface" stroke-width="0.05"/>
    <line id="line-37" x1="-0.5" y1="6.0" x2="0.5" y2="6.0" stroke="onSurface" stroke-width="0.05"/>
    <text id="text-17" x="-0.7" y="6.1575" fill="onSurface" font-size="0.625" text-anchor="end">6</text>
    <line id="line-38" x1="-0.5" y1="7.0" x2="0.5" y2="7.0" stroke="onSurface" stroke-width="0.05"/>
    <line id="line-39" x1="-0.5" y1="8.0" x2="0.5" y2="8.0" stroke="onSurface" stroke-width="0.05"/>
    <text id="text-18" x="-0.7" y="8.1575" fill="onSurface" font-size="0.625" text-anchor="end">8</text>
    <line id="line-40" x1="-0.5" y1="9.0" x2="0.5" y2="9.0" stroke="onSurface" stroke-width="0.05"/>
    <line id="line-41" x1="-0.5" y1="10.0" x2="0.5" y2="10.0" stroke="onSurface" stroke-width="0.05"/>
    <text id="text-19" x="-0.7" y="10.1575" fill="onSurface" font-size="0.625" text-anchor="end">10</text>
    <line id="line-42" x1="-0.5" y1="11.0" x2="0.5" y2="11.0" stroke="onSurface" stroke-width="0.05"/>
    <line id="line-43" x1="-0.5" y1="12.0" x2="0.5" y2="12.0" stroke="onSurface" stroke-width="0.05"/>
    <text id="text-20" x="-0.7" y="12.1575" fill="onSurface" font-size="0.625" text-anchor="end">12</text>
    <line id="line-44" x1="-0.5" y1="13.0" x2="0.5" y2="13.0" stroke="onSurface" stroke-width="0.05"/>
    <line id="line-45" x1="-0.5" y1="14.0" x2="0.5" y2="14.0" stroke="onSurface" stroke-width="0.05"/>
    <text id="text-21" x="-0.7" y="14.1575" fill="onSurface" font-size="0.625" text-anchor="end">14</text>
  </g>
  <circle id="circle-1" cx="0.0" cy="0.0" r="15.0" fill="transparent" stroke="onSurface" stroke-width="0.05"/>
</svg>