<svg xmlns="http://www.w3.org/2000/svg" width="4800" height="4800" viewBox="-24 -24 48 48" data-mil-width="48" data-mil-height="48" data-factor="100" shape-rendering="crispEdges">
  <defs>
    <pattern id="dotline-0" patternUnits="userSpaceOnUse" x="-0.025" y="-0.025" width="1" height="0.05">
      <circle cx="0.025" cy="0.025" r="0.025" fill="red"/>
    </pattern>
    <pattern id="dotgrid-0" patternUnits="userSpaceOnUse" x="-2.525" y="0.475" width="1" height="1">
      <circle cx="0.025" cy="0.025" r="0.025" fill="black"/>
    </pattern>
    <pattern id="dotgrid-2" patternUnits="userSpaceOnUse" x="-3.525" y="5.475" width="1" height="1">
      <circle cx="0.025" cy="0.025" r="0.025" fill="black"/>
    </pattern>
    <pattern id="dotgrid-4" patternUnits="userSpaceOnUse" x="-4.525" y="9.475" width="1" height="1">
      <circle cx="0.025" cy="0.025" r="0.025" fill="black"/>
    </pattern>
    <pattern id="dotline-2" patternUnits="userSpaceOnUse" x="-0.05" y="-0.05" width="1" height="0.1">
      <circle cx="0.05" cy="0.05" r="0.05" fill="black"/>
    </pattern>
    <pattern id="dotline-5" patternUnits="userSpaceOnUse" x="-0.025" y="-0.025" width="0.2" height="0.05">
      <circle cx="0.025" cy="0.025" r="0.025" fill="black"/>
    </pattern>
  </defs>
  <clipPath id="clip0">
    <circle id="circle-0" cx="0" cy="0" r="24" fill="white"/>
  </clipPath>
  <g id="clipgroup-0" clip-path="url(#clip0)">
    <rect id="fill-0" x="-24" y="-24" width="48" height="48" fill="white"/>
    <line id="hline-0" x1="0.1" y1="0" x2="10" y2="0" stroke="red" stroke-width="0.04"/>
    <line id="hline-1" x1="-0.1" y1="0" x2="-10" y2="0" stroke="red" stroke-width="0.04"/>
    <line id="vline-0" x1="0" y1="-0.1" x2="0" y2="-5" stroke="red" stroke-width="0.04"/>
    <line id="hline-2" x1="-15" y1="0" x2="-10.2" y2="0" stroke="black" stroke-width="0.04"/>
    <line id="hline-3" x1="15" y1="0" x2="10.2" y2="0" stroke="black" stroke-width="0.04"/>
    <line id="line-0" x1="11" y1="-0.2" x2="10.2" y2="0" stroke="black" stroke-width="0.04"/>
    <line id="line-1" x1="11" y1="0.2" x2="10.2" y2="0" stroke="black" stroke-width="0.04"/>
    <line id="line-2" x1="-11" y1="-0.2" x2="-10.2" y2="0" stroke="black" stroke-width="0.04"/>
    <line id="line-3" x1="-11" y1="0.2" x2="-10.2" y2="0" stroke="black" stroke-width="0.04"/>
    <rect id="rect-0" x="-15" y="-0.2" width="4" height="0.4" fill="transparent" stroke="black" stroke-width="0.04"/>
    <rect id="rect-1" x="11" y="-0.2" width="4" height="0.4" fill="transparent" stroke="black" stroke-width="0.04"/>
    <rect id="rect-2" x="-24" y="-0.2" width="9" height="0.4" fill="black"/>
    <rect id="rect-3" x="15" y="-0.2" width="9" height="0.4" fill="black"/>
    <path id="hruler-0" d="M 11 -0.3 L 11 0.3 M 12 -0.3 L 12 0.3 M 13 -0.3 L 13 0.3 M 14 -0.3 L 14 0.3 M 15 -0.3 L 15 0.3" fill="none" stroke="black" stroke-width="0.04"/>
    <path id="hruler-1" d="M -11 -0.3 L -11 0.3 M -12 -0.3 L -12 0.3 M -13 -0.3 L -13 0.3 M -14 -0.3 L -14 0.3 M -15 -0.3 L -15 0.3" fill="none" stroke="black" stroke-width="0.04"/>
    <text id="text-0" x="-10" y="-0.9" fill="black" font-size="0.417" text-anchor="middle">10</text>
    <text id="text-1" x="-9" y="-0.9" fill="black" font-size="0.417" text-anchor="middle">9</text>
    <text id="text-2" x="-8" y="-0.9" fill="black" font-size="0.417" text-anchor="middle">8</text>
    <text id="text-3" x="-7" y="-0.9" fill="black" font-size="0.417" text-anchor="middle">7</text>
    <text id="text-4" x="-6" y="-0.9" fill="black" font-size="0.417" text-anchor="middle">6</text>
    <text id="text-5" x="-5" y="-0.9" fill="black" font-size="0.417" text-anchor="middle">5</text>
    <text id="text-6" x="-4" y="-0.9" fill="black" font-size="0.417" text-anchor="middle">4</text>
    <text id="text-7" x="-3" y="-0.9" fill="black" font-size="0.417" text-anchor="middle">3</text>
    <text id="text-8" x="-2" y="-0.9" fill="black" font-size="0.417" text-anchor="middle">2</text>
    <text id="text-9" x="-1" y="-0.9" fill="black" font-size="0.417" text-anchor="middle">1</text>
    <text id="text-10" x="1" y="-0.9" fill="black" font-size="0.417" text-anchor="middle">1</text>
    <text id="text-11" x="2" y="-0.9" fill="black" font-size="0.417" text-anchor="middle">2</text>
    <text id="text-12" x="3" y="-0.9" fill="black" font-size="0.417" text-anchor="middle">3</text>
    <text id="text-13" x="4" y="-0.9" fill="black" font-size="0.417" text-anchor="middle">4</text>
    <text id="text-14" x="5" y="-0.9" fill="black" font-size="0.417" text-anchor="middle">5</text>
    <text id="text-15" x="6" y="-0.9" fill="black" font-size="0.417" text-anchor="middle">6</text>
    <text id="text-16" x="7" y="-0.9" fill="black" font-size="0.417" text-anchor="middle">7</text>
    <text id="text-17" x="8" y="-0.9" fill="black" font-size="0.417" text-anchor="middle">8</text>
    <text id="text-18" x="9" y="-0.9" fill="black" font-size="0.417" text-anchor="middle">9</text>
    <text id="text-19" x="10" y="-0.9" fill="black" font-size="0.417" text-anchor="middle">10</text>
    <path id="hruler-2" d="M 10 -0.3 L 10 0.3 M 9 -0.3 L 9 0.3 M 8 -0.3 L 8 0.3 M 7 -0.3 L 7 0.3 M 6 -0.3 L 6 0.3 M 5 -0.3 L 5 0.3 M 4 -0.3 L 4 0.3 M 3 -0.3 L 3 0.3 M 2 -0.3 L 2 0.3 M 1 -0.3 L 1 0.3" fill="none" stroke="red" stroke-width="0.04"/>
    <path id="hruler-3" d="M -10 -0.3 L -10 0.3 M -9 -0.3 L -9 0.3 M -8 -0.3 L -8 0.3 M -7 -0.3 L -7 0.3 M -6 -0.3 L -6 0.3 M -5 -0.3 L -5 0.3 M -4 -0.3 L -4 0.3 M -3 -0.3 L -3 0.3 M -2 -0.3 L -2 0.3 M -1 -0.3 L -1 0.3" fill="none" stroke="red" stroke-width="0.04"/>
    <path id="hruler-4" d="M 9.8 0 L 9.8 0.2 M 8.8 0 L 8.8 0.2 M 7.8 0 L 7.8 0.2 M 6.8 0 L 6.8 0.2 M 5.8 0 L 5.8 0.2 M 4.8 0 L 4.8 0.2 M 3.8 0 L 3.8 0.2 M 2.8 0 L 2.8 0.2 M 1.8 0 L 1.8 0.2 M 0.8 0 L 0.8 0.2" fill="none" stroke="red" stroke-width="0.04"/>
    <path id="hruler-5" d="M -9.8 0 L -9.8 0.2 M -8.8 0 L -8.8 0.2 M -7.8 0 L -7.8 0.2 M -6.8 0 L -6.8 0.2 M -5.8 0 L -5.8 0.2 M -4.8 0 L -4.8 0.2 M -3.8 0 L -3.8 0.2 M -2.8 0 L -2.8 0.2 M -1.8 0 L -1.8 0.2 M -0.8 0 L -0.8 0.2" fill="none" stroke="red" stroke-width="0.04"/>
    <path id="hruler-6" d="M 9.6 -0.2 L 9.6 0 M 8.6 -0.2 L 8.6 0 M 7.6 -0.2 L 7.6 0 M 6.6 -0.2 L 6.6 0 M 5.6 -0.2 L 5.6 0 M 4.6 -0.2 L 4.6 0 M 3.6 -0.2 L 3.6 0 M 2.6 -0.2 L 2.6 0 M 1.6 -0.2 L 1.6 0 M 0.6 -0.2 L 0.6 0" fill="none" stroke="red" stroke-width="0.04"/>
    <path id="hruler-7" d="M -9.6 -0.2 L -9.6 0 M -8.6 -0.2 L -8.6 0 M -7.6 -0.2 L -7.6 0 M -6.6 -0.2 L -6.6 0 M -5.6 -0.2 L -5.6 0 M -4.6 -0.2 L -4.6 0 M -3.6 -0.2 L -3.6 0 M -2.6 -0.2 L -2.6 0 M -1.6 -0.2 L -1.6 0 M -0.6 -0.2 L -0.6 0" fill="none" stroke="red" stroke-width="0.04"/>
    <path id="hruler-8" d="M 9.4 -0.2 L 9.4 0 M 8.4 -0.2 L 8.4 0 M 7.4 -0.2 L 7.4 0 M 6.4 -0.2 L 6.4 0 M 5.4 -0.2 L 5.4 0 M 4.4 -0.2 L 4.4 0 M 3.4 -0.2 L 3.4 0 M 2.4 -0.2 L 2.4 0 M 1.4 -0.2 L 1.4 0 M 0.4 -0.2 L 0.4 0" fill="none" stroke="red" stroke-width="0.04"/>
    <path id="hruler-9" d="M -9.4 -0.2 L -9.4 0 M -8.4 -0.2 L -8.4 0 M -7.4 -0.2 L -7.4 0 M -6.4 -0.2 L -6.4 0 M -5.4 -0.2 L -5.4 0 M -4.4 -0.2 L -4.4 0 M -3.4 -0.2 L -3.4 0 M -2.4 -0.2 L -2.4 0 M -1.4 -0.2 L -1.4 0 M -0.4 -0.2 L -0.4 0" fill="none" stroke="red" stroke-width="0.04"/>
    <path id="hruler-10" d="M 9.2 0 L 9.2 0.2 M 8.2 0 L 8.2 0.2 M 7.2 0 L 7.2 0.2 M 6.2 0 L 6.2 0.2 M 5.2 0 L 5.2 0.2 M 4.2 0 L 4.2 0.2 M 3.2 0 L 3.2 0.2 M 2.2 0 L 2.2 0.2 M 1.2 0 L 1.2 0.2" fill="none" stroke="red" stroke-width="0.04"/>
    <path id="hruler-11" d="M -9.2 0 L -9.2 0.2 M -8.2 0 L -8.2 0.2 M -7.2 0 L -7.2 0.2 M -6.2 0 L -6.2 0.2 M -5.2 0 L -5.2 0.2 M -4.2 0 L -4.2 0.2 M -3.2 0 L -3.2 0.2 M -2.2 0 L -2.2 0.2 M -1.2 0 L -1.2 0.2" fill="none" stroke="red" stroke-width="0.04"/>
    <line id="vline-1" x1="0.2" y1="0" x2="0.2" y2="0.1" stroke="red" stroke-width="0.04"/>
    <line id="vline-2" x1="-0.2" y1="0" x2="-0.2" y2="0.1" stroke="red" stroke-width="0.04"/>
    <path id="vruler-0" d="M -0.2 1.2 L 0 1.2 M -0.2 2.2 L 0 2.2 M -0.2 3.2 L 0 3.2 M -0.2 4.2 L 0 4.2 M -0.2 5.2 L 0 5.2 M -0.2 6.2 L 0 6.2 M -0.2 7.2 L 0 7.2 M -0.2 8.2 L 0 8.2 M -0.2 9.2 L 0 9.2 M -0.2 10.2 L 0 10.2 M -0.2 11.2 L 0 11.2 M -0.2 12.2 L 0 12.2 M -0.2 13.2 L 0 13.2 M -0.2 14.2 L 0 14.2 M -0.2 15.2 L 0 15.2 M -0.2 16.2 L 0 16.2 M -0.2 17.2 L 0 17.2 M -0.2 18.2 L 0 18.2 M -0.2 19.2 L 0 19.2 M -0.2 20.2 L 0 20.2 M -0.2 21.2 L 0 21.2 M -0.2 22.2 L 0 22.2 M -0.2 23.2 L 0 23.2" fill="none" stroke="red" stroke-width="0.04"/>
    <path id="vruler-1" d="M 0 0.4 L 0.2 0.4 M 0 1.4 L 0.2 1.4 M 0 2.4 L 0.2 2.4 M 0 3.4 L 0.2 3.4 M 0 4.4 L 0.2 4.4 M 0 5.4 L 0.2 5.4 M 0 6.4 L 0.2 6.4 M 0 7.4 L 0.2 7.4 M 0 8.4 L 0.2 8.4 M 0 9.4 L 0.2 9.4 M 0 10.4 L 0.2 10.4 M 0 11.4 L 0.2 11.4 M 0 12.4 L 0.2 12.4 M 0 13.4 L 0.2 13.4 M 0 14.4 L 0.2 14.4 M 0 15.4 L 0.2 15.4 M 0 16.4 L 0.2 16.4 M 0 17.4 L 0.2 17.4 M 0 18.4 L 0.2 18.4 M 0 19.4 L 0.2 19.4 M 0 20.4 L 0.2 20.4 M 0 21.4 L 0.2 21.4 M 0 22.4 L 0.2 22.4 M 0 23.4 L 0.2 23.4" fill="none" stroke="red" stroke-width="0.04"/>
    <path id="vruler-2" d="M 0 0.6 L 0.2 0.6 M 0 1.6 L 0.2 1.6 M 0 2.6 L 0.2 2.6 M 0 3.6 L 0.2 3.6 M 0 4.6 L 0.2 4.6 M 0 5.6 L 0.2 5.6 M 0 6.6 L 0.2 6.6 M 0 7.6 L 0.2 7.6 M 0 8.6 L 0.2 8.6 M 0 9.6 L 0.2 9.6 M 0 10.6 L 0.2 10.6 M 0 11.6 L 0.2 11.6 M 0 12.6 L 0.2 12.6 M 0 13.6 L 0.2 13.6 M 0 14.6 L 0.2 14.6 M 0 15.6 L 0.2 15.6 M 0 16.6 L 0.2 16.6 M 0 17.6 L 0.2 17.6 M 0 18.6 L 0.2 18.6 M 0 19.6 L 0.2 19.6 M 0 20.6 L 0.2 20.6 M 0 21.6 L 0.2 21.6 M 0 22.6 L 0.2 22.6 M 0 23.6 L 0.2 23.6" fill="none" stroke="red" stroke-width="0.04"/>
    <path id="vruler-3" d="M -0.2 0.8 L 0 0.8 M -0.2 1.8 L 0 1.8 M -0.2 2.8 L 0 2.8 M -0.2 3.8 L 0 3.8 M -0.2 4.8 L 0 4.8 M -0.2 5.8 L 0 5.8 M -0.2 6.8 L 0 6.8 M -0.2 7.8 L 0 7.8 M -0.2 8.8 L 0 8.8 M -0.2 9.8 L 0 9.8 M -0.2 10.8 L 0 10.8 M -0.2 11.8 L 0 11.8 M -0.2 12.8 L 0 12.8 M -0.2 13.8 L 0 13.8 M -0.2 14.8 L 0 14.8 M -0.2 15.8 L 0 15.8 M -0.2 16.8 L 0 16.8 M -0.2 17.8 L 0 17.8 M -0.2 18.8 L 0 18.8 M -0.2 19.8 L 0 19.8 M -0.2 20.8 L 0 20.8 M -0.2 21.8 L 0 21.8 M -0.2 22.8 L 0 22.8 M -0.2 23.8 L 0 23.8" fill="none" stroke="red" stroke-width="0.04"/>
    <path id="vruler-4" d="M -0.3 -5 L 0.3 -5 M -0.3 -4 L 0.3 -4 M -0.3 -3 L 0.3 -3 M -0.3 -2 L 0.3 -2 M -0.3 -1 L 0.3 -1" fill="none" stroke="red" stroke-width="0.04"/>
    <path id="vruler-5" d="M -0.2 -4.8 L 0 -4.8 M -0.2 -3.8 L 0 -3.8 M -0.2 -2.8 L 0 -2.8 M -0.2 -1.8 L 0 -1.8 M -0.2 -0.8 L 0 -0.8" fill="none" stroke="red" stroke-width="0.04"/>
    <path id="vruler-6" d="M 0 -4.6 L 0.2 -4.6 M 0 -3.6 L 0.2 -3.6 M 0 -2.6 L 0.2 -2.6 M 0 -1.6 L 0.2 -1.6 M 0 -0.6 L 0.2 -0.6" fill="none" stroke="red" stroke-width="0.04"/>
    <path id="vruler-7" d="M 0 -4.4 L 0.2 -4.4 M 0 -3.4 L 0.2 -3.4 M 0 -2.4 L 0.2 -2.4 M 0 -1.4 L 0.2 -1.4 M 0 -0.4 L 0.2 -0.4" fill="none" stroke="red" stroke-width="0.04"/>
    <path id="vruler-8" d="M -0.2 -4.2 L 0 -4.2 M -0.2 -3.2 L 0 -3.2 M -0.2 -2.2 L 0 -2.2 M -0.2 -1.2 L 0 -1.2" fill="none" stroke="red" stroke-width="0.04"/>
    <path id="vruler-9" d="M 0.1 1 L 0.2 1 M 0.1 2 L 0.2 2 M 0.1 3 L 0.2 3 M 0.1 4 L 0.2 4 M 0.1 5 L 0.2 5 M 0.1 6 L 0.2 6 M 0.1 7 L 0.2 7 M 0.1 8 L 0.2 8 M 0.1 9 L 0.2 9 M 0.1 10 L 0.2 10 M 0.1 11 L 0.2 11 M 0.1 12 L 0.2 12 M 0.1 13 L 0.2 13 M 0.1 14 L 0.2 14 M 0.1 15 L 0.2 15 M 0.1 16 L 0.2 16 M 0.1 17 L 0.2 17 M 0.1 18 L 0.2 18 M 0.1 19 L 0.2 19 M 0.1 20 L 0.2 20 M 0.1 21 L 0.2 21 M 0.1 22 L 0.2 22 M 0.1 23 L 0.2 23 M 0.1 24 L 0.2 24" fill="none" stroke="red" stroke-width="0.04"/>
    <path id="vruler-10" d="M -0.2 1 L -0.1 1 M -0.2 2 L -0.1 2 M -0.2 3 L -0.1 3 M -0.2 4 L -0.1 4 M -0.2 5 L -0.1 5 M -0.2 6 L -0.1 6 M -0.2 7 L -0.1 7 M -0.2 8 L -0.1 8 M -0.2 9 L -0.1 9 M -0.2 10 L -0.1 10 M -0.2 11 L -0.1 11 M -0.2 12 L -0.1 12 M -0.2 13 L -0.1 13 M -0.2 14 L -0.1 14 M -0.2 15 L -0.1 15 M -0.2 16 L -0.1 16 M -0.2 17 L -0.1 17 M -0.2 18 L -0.1 18 M -0.2 19 L -0.1 19 M -0.2 20 L -0.1 20 M -0.2 21 L -0.1 21 M -0.2 22 L -0.1 22 M -0.2 23 L -0.1 23 M -0.2 24 L -0.1 24" fill="none" stroke="red" stroke-width="0.04"/>
    <line id="hline-4" x1="0.1" y1="0.2" x2="-0.1" y2="0.2" stroke="red" stroke-width="0.04"/>
    <line id="hline-5" x1="0.1" y1="-0.2" x2="-0.1" y2="-0.2" stroke="red" stroke-width="0.04"/>
    <rect id="dotline-1" x="-0.025" y="-0.025" width="24.05" height="0.05" fill="url(#dotline-0)" transform="translate(0,0) rotate(90)"/>
    <path id="vdashline-0" d="M 0 0.1 L 0 0.9 M 0 1.1 L 0 1.9 M 0 2.1 L 0 2.9 M 0 3.1 L 0 3.9 M 0 4.1 L 0 4.9 M 0 5.1 L 0 5.9 M 0 6.1 L 0 6.9 M 0 7.1 L 0 7.9 M 0 8.1 L 0 8.9 M 0 9.1 L 0 9.9 M 0 10.1 L 0 10.9 M 0 11.1 L 0 11.9 M 0 12.1 L 0 12.9 M 0 13.1 L 0 13.9 M 0 14.1 L 0 14.9 M 0 15.1 L 0 15.9 M 0 16.1 L 0 16.9 M 0 17.1 L 0 17.9 M 0 18.1 L 0 18.9 M 0 19.1 L 0 19.9 M 0 20.1 L 0 20.9 M 0 21.1 L 0 21.9 M 0 22.1 L 0 22.9 M 0 23.1 L 0 23.9" fill="none" stroke="red" stroke-width="0.04"/>
    <text id="text-20" x="-0.7" y="-4.79" fill="black" font-size="0.417" text-anchor="end">5</text>
    <text id="text-21" x="-0.7" y="-3.79" fill="black" font-size="0.417" text-anchor="end">4</text>
    <text id="text-22" x="-0.7" y="-2.79" fill="black" font-size="0.417" text-anchor="end">3</text>
    <text id="text-23" x="-0.7" y="-1.79" fill="black" font-size="0.417" text-anchor="end">2</text>
    <rect id="dotgrid-1" x="-2.525" y="0.475" width="5.05" height="4.05" fill="url(#dotgrid-0)"/>
    <rect id="dotgrid-3" x="-3.525" y="5.475" width="7.05" height="3.05" fill="url(#dotgrid-2)"/>
    <rect id="dotgrid-5" x="-4.525" y="9.475" width="9.05" height="15.05" fill="url(#dotgrid-4)"/>
    <text id="text-24" x="3.4" y="1.105" fill="black" font-size="0.417" text-anchor="middle">1</text>
    <text id="text-25" x="-3.4" y="1.105" fill="black" font-size="0.417" text-anchor="middle">1</text>
    <rect id="dotline-3" x="-0.05" y="-0.05" width="2.1" height="0.1" fill="url(#dotline-2)" transform="translate(-3,1) rotate(0)"/>
    <rect id="dotline-4" x="-0.05" y="-0.05" width="2.1" height="0.1" fill="url(#dotline-2)" transform="translate(1,1) rotate(0)"/>
    <rect id="dotline-6" x="-0.025" y="-0.025" width="2.65" height="0.05" fill="url(#dotline-5)" transform="translate(-3,1) rotate(0)"/>
    <rect id="dotline-7" x="-0.025" y="-0.025" width="2.65" height="0.05" fill="url(#dotline-5)" transform="translate(0.4,1) rotate(0)"/>
    <text id="text-26" x="3.4" y="2.21" fill="black" font-size="0.833" text-anchor="middle">2</text>
    <text id="text-27" x="-3.4" y="2.21" fill="black" font-size="0.833" text-anchor="middle">2</text>
    <rect id="dotline-8" x="-0.05" y="-0.05" width="2.1" height="0.1" fill="url(#dotline-2)" transform="translate(-3,2) rotate(0)"/>
    <rect id="dotline-9" x="-0.05" y="-0.05" width="2.1" height="0.1" fill="url(#dotline-2)" transform="translate(1,2) rotate(0)"/>
    <rect id="dotline-10" x="-0.025" y="-0.025" width="2.65" height="0.05" fill="url(#dotline-5)" transform="translate(-3,2) rotate(0)"/>
    <rect id="dotline-11" x="-0.025" y="-0.025" width="2.65" height="0.05" fill="url(#dotline-5)" transform="translate(0.4,2) rotate(0)"/>
    <text id="text-28" x="3.4" y="3.105" fill="black" font-size="0.417" text-anchor="middle">3</text>
    <text id="text-29" x="-3.4" y="3.105" fill="black" font-size="0.417" text-anchor="middle">3</text>
    <rect id="dotline-12" x="-0.05" y="-0.05" width="2.1" height="0.1" fill="url(#dotline-2)" transform="translate(-3,3) rotate(0)"/>
    <rect id="dotline-13" x="-0.05" y="-0.05" width="2.1" height="0.1" fill="url(#dotline-2)" transform="translate(1,3) rotate(0)"/>
    <rect id="dotline-14" x="-0.025" y="-0.025" width="2.65" height="0.05" fill="url(#dotline-5)" transform="translate(-3,3) rotate(0)"/>
    <rect id="dotline-15" x="-0.025" y="-0.025" width="2.65" height="0.05" fill="url(#dotline-5)" transform="translate(0.4,3) rotate(0)"/>
    <text id="text-30" x="3.4" y="4.21" fill="black" font-size="0.833" text-anchor="middle">4</text>
    <text id="text-31" x="-3.4" y="4.21" fill="black" font-size="0.833" text-anchor="middle">4</text>
    <rect id="dotline-16" x="-0.05" y="-0.05" width="2.1" height="0.1" fill="url(#dotline-2)" transform="translate(-3,4) rotate(0)"/>
    <rect id="dotline-17" x="-0.05" y="-0.05" width="2.1" height="0.1" fill="url(#dotline-2)" transform="translate(1,4) rotate(0)"/>
    <rect id="dotline-18" x="-0.025" y="-0.025" width="2.65" height="0.05" fill="url(#dotline-5)" transform="translate(-3,4) rotate(0)"/>
    <rect id="dotline-19" x="-0.025" y="-0.025" width="2.65" height="0.05" fill="url(#dotline-5)" transform="translate(0.4,4) rotate(0)"/>
    <text id="text-32" x="4.4" y="5.105" fill="black" font-size="0.417" text-anchor="middle">5</text>
    <text id="text-33" x="-4.4" y="5.105" fill="black" font-size="0.417" text-anchor="middle">5</text>
    <rect id="dotline-20" x="-0.05" y="-0.05" width="3.1" height="0.1" fill="url(#dotline-2)" transform="translate(-4,5) rotate(0)"/>
    <rect id="dotline-21" x="-0.05" y="-0.05" width="3.1" height="0.1" fill="url(#dotline-2)" transform="translate(1,5) rotate(0)"/>
    <rect id="dotline-22" x="-0.025" y="-0.025" width="3.65" height="0.05" fill="url(#dotline-5)" transform="translate(-4,5) rotate(0)"/>
    <rect id="dotline-23" x="-0.025" y="-0.025" width="3.65" height="0.05" fill="url(#dotline-5)" transform="translate(0.4,5) rotate(0)"/>
    <text id="text-34" x="4.4" y="6.21" fill="black" font-size="0.833" text-anchor="middle">6</text>
    <text id="text-35" x="-4.4" y="6.21" fill="black" font-size="0.833" text-anchor="middle">6</text>
    <rect id="dotline-24" x="-0.05" y="-0.05" width="3.1" height="0.1" fill="url(#dotline-2)" transform="translate(-4,6) rotate(0)"/>
    <rect id="dotline-25" x="-0.05" y="-0.05" width="3.1" height="0.1" fill="url(#dotline-2)" transform="translate(1,6) rotate(0)"/>
    <rect id="dotline-26" x="-0.025" y="-0.025" width="3.65" height="0.05" fill="url(#dotline-5)" transform="translate(-4,6) rotate(0)"/>
    <rect id="dotline-27" x="-0.025" y="-0.025" width="3.65" height="0.05" fill="url(#dotline-5)" transform="translate(0.4,6) rotate(0)"/>
    <text id="text-36" x="4.4" y="7.105" fill="black" font-size="0.417" text-anchor="middle">7</text>
    <text id="text-37" x="-4.4" y="7.105" fill="black" font-size="0.417" text-anchor="middle">7</text>
    <rect id="dotline-28" x="-0.05" y="-0.05" width="3.1" height="0.1" fill="url(#dotline-2)" transform="translate(-4,7) rotate(0)"/>
    <rect id="dotline-29" x="-0.05" y="-0.05" width="3.1" height="0.1" fill="url(#dotline-2)" transform="translate(1,7) rotate(0)"/>
    <rect id="dotline-30" x="-0.025" y="-0.025" width="3.65" height="0.05" fill="url(#dotline-5)" transform="translate(-4,7) rotate(0)"/>
    <rect id="dotline-31" x="-0.025" y="-0.025" width="3.65" height="0.05" fill="url(#dotline-5)" transform="translate(0.4,7) rotate(0)"/>
    <text id="text-38" x="4.4" y="8.21" fill="black" font-size="0.833" text-anchor="middle">8</text>
    <text id="text-39" x="-4.4" y="8.21" fill="black" font-size="0.833" text-anchor="middle">8</text>
    <rect id="dotline-32" x="-0.05" y="-0.05" width="3.1" height="0.1" fill="url(#dotline-2)" transform="translate(-4,8) rotate(0)"/>
    <rect id="dotline-33" x="-0.05" y="-0.05" width="3.1" height="0.1" fill="url(#dotline-2)" transform="translate(1,8) rotate(0)"/>
    <rect id="dotline-34" x="-0.025" y="-0.025" width="3.65" height="0.05" fill="url(#dotline-5)" transform="translate(-4,8) rotate(0)"/>
    <rect id="dotline-35" x="-0.025" y="-0.025" width="3.65" height="0.05" fill="url(#dotline-5)" transform="translate(0.4,8) rotate(0)"/>
    <text id="text-40" x="5.4" y="9.105" fill="black" font-size="0.417" text-anchor="middle">9</text>
    <text id="text-41" x="-5.4" y="9.105" fill="black" font-size="0.417" text-anchor="middle">9</text>
    <rect id="dotline-36" x="-0.05" y="-0.05" width="4.1" height="0.1" fill="url(#dotline-2)" transform="translate(-5,9) rotate(0)"/>
    <rect id="dotline-37" x="-0.05" y="-0.05" width="4.1" height="0.1" fill="url(#dotline-2)" transform="translate(1,9) rotate(0)"/>
    <rect id="dotline-38" x="-0.025" y="-0.025" width="4.65" height="0.05" fill="url(#dotline-5)" transform="translate(-5,9) rotate(0)"/>
    <rect id="dotline-39" x="-0.025" y="-0.025" width="4.65" height="0.05" fill="url(#dotline-5)" transform="translate(0.4,9) rotate(0)"/>
    <text id="text-42" x="5.4" y="10.21" fill="black" font-size="0.833" text-anchor="middle">10</text>
    <text id="text-43" x="-5.4" y="10.21" fill="black" font-size="0.833" text-anchor="middle">10</text>
    <rect id="dotline-40" x="-0.05" y="-0.05" width="4.1" height="0.1" fill="url(#dotline-2)" transform="translate(-5,10) rotate(0)"/>
    <rect id="dotline-41" x="-0.05" y="-0.05" width="4.1" height="0.1" fill="url(#dotline-2)" transform="translate(1,10) rotate(0)"/>
    <rect id="dotline-42" x="-0.025" y="-0.025" width="4.65" height="0.05" fill="url(#dotline-5)" transform="translate(-5,10) rotate(0)"/>
    <rect id="dotline-43" x="-0.025" y="-0.025" width="4.65" height="0.05" fill="url(#dotline-5)" transform="translate(0.4,10) rotate(0)"/>
    <text id="text-44" x="5.4" y="11.105" fill="black" font-size="0.417" text-anchor="middle">11</text>
    <text id="text-45" x="-5.4" y="11.105" fill="black" font-size="0.417" text-anchor="middle">11</text>
    <rect id="dotline-44" x="-0.05" y="-0.05" width="4.1" height="0.1" fill="url(#dotline-2)" transform="translate(-5,11) rotate(0)"/>
    <rect id="dotline-45" x="-0.05" y="-0.05" width="4.1" height="0.1" fill="url(#dotline-2)" transform="translate(1,11) rotate(0)"/>
    <rect id="dotline-46" x="-0.025" y="-0.025" width="4.65" height="0.05" fill="url(#dotline-5)" transform="translate(-5,11) rotate(0)"/>
    <rect id="dotline-47" x="-0.025" y="-0.025" width="4.65" height="0.05" fill="url(#dotline-5)" transform="translate(0.4,11) rotate(0)"/>
    <text id="text-46" x="5.4" y="12.21" fill="black" font-size="0.833" text-anchor="middle">12</text>
    <text id="text-47" x="-5.4" y="12.21" fill="black" font-size="0.833" text-anchor="middle">12</text>
    <rect id="dotline-48" x="-0.05" y="-0.05" width="4.1" height="0.1" fill="url(#dotline-2)" transform="translate(-5,12) rotate(0)"/>
    <rect id="dotline-49" x="-0.05" y="-0.05" width="4.1" height="0.1" fill="url(#dotline-2)" transform="translate(1,12) rotate(0)"/>
    <rect id="dotline-50" x="-0.025" y="-0.025" width="4.65" height="0.05" fill="url(#dotline-5)" transform="translate(-5,12) rotate(0)"/>
    <rect id="dotline-51" x="-0.025" y="-0.025" width="4.65" height="0.05" fill="url(#dotline-5)" transform="translate(0.4,12) rotate(0)"/>
    <text id="text-48" x="5.4" y="13.105" fill="black" font-size="0.417" text-anchor="middle">13</text>
    <text id="text-49" x="-5.4" y="13.105" fill="black" font-size="0.417" text-anchor="middle">13</text>
    <rect id="dotline-52" x="-0.05" y="-0.05" width="4.1" height="0.1" fill="url(#dotline-2)" transform="translate(-5,13) rotate(0)"/>
    <rect id="dotline-53" x="-0.05" y="-0.05" width="4.1" height="0.1" fill="url(#dotline-2)" transform="translate(1,13) rotate(0)"/>
    <rect id="dotline-54" x="-0.025" y="-0.025" width="4.65" height="0.05" fill="url(#dotline-5)" transform="translate(-5,13) rotate(0)"/>
    <rect id="dotline-55" x="-0.025" y="-0.025" width="4.65" height="0.05" fill="url(#dotline-5)" transform="translate(0.4,13) rotate(0)"/>
    <text id="text-50" x="5.4" y="14.21" fill="black" font-size="0.833" text-anchor="middle">14</text>
    <text id="text-51" x="-5.4" y="14.21" fill="black" font-size="0.833" text-anchor="middle">14</text>
    <rect id="dotline-56" x="-0.05" y="-0.05" width="4.1" height="0.1" fill="url(#dotline-2)" transform="translate(-5,14) rotate(0)"/>
    <rect id="dotline-57" x="-0.05" y="-0.05" width="4.1" height="0.1" fill="url(#dotline-2)" transform="translate(1,14) rotate(0)"/>
    <rect id="dotline-58" x="-0.025" y="-0.025" width="4.65" height="0.05" fill="url(#dotline-5)" transform="translate(-5,14) rotate(0)"/>
    <rect id="dotline-59" x="-0.025" y="-0.025" width="4.65" height="0.05" fill="url(#dotline-5)" transform="translate(0.4,14) rotate(0)"/>
    <text id="text-52" x="5.4" y="15.105" fill="black" font-size="0.417" text-anchor="middle">15</text>
    <text id="text-53" x="-5.4" y="15.105" fill="black" font-size="0.417" text-anchor="middle">15</text>
    <rect id="dotline-60" x="-0.05" y="-0.05" width="4.1" height="0.1" fill="url(#dotline-2)" transform="translate(-5,15) rotate(0)"/>
    <rect id="dotline-61" x="-0.05" y="-0.05" width="4.1" height="0.1" fill="url(#dotline-2)" transform="translate(1,15) rotate(0)"/>
    <rect id="dotline-62" x="-0.025" y="-0.025" width="4.65" height="0.05" fill="url(#dotline-5)" transform="translate(-5,15) rotate(0)"/>
    <rect id="dotline-63" x="-0.025" y="-0.025" width="4.65" height="0.05" fill="url(#dotline-5)" transform="translate(0.4,15) rotate(0)"/>
    <text id="text-54" x="5.4" y="16.21" fill="black" font-size="0.833" text-anchor="middle">16</text>
    <text id="text-55" x="-5.4" y="16.21" fill="black" font-size="0.833" text-anchor="middle">16</text>
    <rect id="dotline-64" x="-0.05" y="-0.05" width="4.1" height="0.1" fill="url(#dotline-2)" transform="translate(-5,16) rotate(0)"/>
    <rect id="dotline-65" x="-0.05" y="-0.05" width="4.1" height="0.1" fill="url(#dotline-2)" transform="translate(1,16) rotate(0)"/>
    <rect id="dotline-66" x="-0.025" y="-0.025" width="4.65" height="0.05" fill="url(#dotline-5)" transform="translate(-5,16) rotate(0)"/>
    <rect id="dotline-67" x="-0.025" y="-0.025" width="4.65" height="0.05" fill="url(#dotline-5)" transform="translate(0.4,16) rotate(0)"/>
    <text id="text-56" x="5.4" y="17.105" fill="black" font-size="0.417" text-anchor="middle">17</text>
    <text id="text-57" x="-5.4" y="17.105" fill="black" font-size="0.417" text-anchor="middle">17</text>
    <rect id="dotline-68" x="-0.05" y="-0.05" width="4.1" height="0.1" fill="url(#dotline-2)" transform="translate(-5,17) rotate(0)"/>
    <rect id="dotline-69" x="-0.05" y="-0.05" width="4.1" height="0.1" fill="url(#dotline-2)" transform="translate(1,17) rotate(0)"/>
    <rect id="dotline-70" x="-0.025" y="-0.025" width="4.65" height="0.05" fill="url(#dotline-5)" transform="translate(-5,17) rotate(0)"/>
    <rect id="dotline-71" x="-0.025" y="-0.025" width="4.65" height="0.05" fill="url(#dotline-5)" transform="translate(0.4,17) rotate(0)"/>
    <text id="text-58" x="5.4" y="18.21" fill="black" font-size="0.833" text-anchor="middle">18</text>
    <text id="text-59" x="-5.4" y="18.21" fill="black" font-size="0.833" text-anchor="middle">18</text>
    <rect id="dotline-72" x="-0.05" y="-0.05" width="4.1" height="0.1" fill="url(#dotline-2)" transform="translate(-5,18) rotate(0)"/>
    <rect id="dotline-73" x="-0.05" y="-0.05" width="4.1" height="0.1" fill="url(#dotline-2)" transform="translate(1,18) rotate(0)"/>
    <rect id="dotline-74" x="-0.025" y="-0.025" width="4.65" height="0.05" fill="url(#dotline-5)" transform="translate(-5,18) rotate(0)"/>
    <rect id="dotline-75" x="-0.025" y="-0.025" width="4.65" height="0.05" fill="url(#dotline-5)" transform="translate(0.4,18) rotate(0)"/>
    <text id="text-60" x="5.4" y="19.105" fill="black" font-size="0.417" text-anchor="middle">19</text>
    <text id="text-61" x="-5.4" y="19.105" fill="black" font-size="0.417" text-anchor="middle">19</text>
    <rect id="dotline-76" x="-0.05" y="-0.05" width="4.1" height="0.1" fill="url(#dotline-2)" transform="translate(-5,19) rotate(0)"/>
    <rect id="dotline-77" x="-0.05" y="-0.05" width="4.1" height="0.1" fill="url(#dotline-2)" transform="translate(1,19) rotate(0)"/>
    <rect id="dotline-78" x="-0.025" y="-0.025" width="4.65" height="0.05" fill="url(#dotline-5)" transform="translate(-5,19) rotate(0)"/>
    <rect id="dotline-79" x="-0.025" y="-0.025" width="4.65" height="0.05" fill="url(#dotline-5)" transform="translate(0.4,19) rotate(0)"/>
    <text id="text-62" x="5.4" y="20.21" fill="black" font-size="0.833" text-anchor="middle">20</text>
    <text id="text-63" x="-5.4" y="20.21" fill="black" font-size="0.833" text-anchor="middle">20</text>
    <rect id="dotline-80" x="-0.05" y="-0.05" width="4.1" height="0.1" fill="url(#dotline-2)" transform="translate(-5,20) rotate(0)"/>
    <rect id="dotline-81" x="-0.05" y="-0.05" width="4.1" height="0.1" fill="url(#dotline-2)" transform="translate(1,20) rotate(0)"/>
    <rect id="dotline-82" x="-0.025" y="-0.025" width="4.65" height="0.05" fill="url(#dotline-5)" transform="translate(-5,20) rotate(0)"/>
    <rect id="dotline-83" x="-0.025" y="-0.025" width="4.65" height="0.05" fill="url(#dotline-5)" transform="translate(0.4,20) rotate(0)"/>
    <text id="text-64" x="5.4" y="21.105" fill="black" font-size="0.417" text-anchor="middle">21</text>
    <text id="text-65" x="-5.4" y="21.105" fill="black" font-size="0.417" text-anchor="middle">21</text>
    <rect id="dotline-84" x="-0.05" y="-0.05" width="4.1" height="0.1" fill="url(#dotline-2)" transform="translate(-5,21) rotate(0)"/>
    <rect id="dotline-85" x="-0.05" y="-0.05" width="4.1" height="0.1" fill="url(#dotline-2)" transform="translate(1,21) rotate(0)"/>
    <rect id="dotline-86" x="-0.025" y="-0.025" width="4.65" height="0.05" fill="url(#dotline-5)" transform="translate(-5,21) rotate(0)"/>
    <rect id="dotline-87" x="-0.025" y="-0.025" width="4.65" height="0.05" fill="url(#dotline-5)" transform="translate(0.4,21) rotate(0)"/>
    <text id="text-66" x="5.4" y="22.21" fill="black" font-size="0.833" text-anchor="middle">22</text>
    <text id="text-67" x="-5.4" y="22.21" fill="black" font-size="0.833" text-anchor="middle">22</text>
    <rect id="dotline-88" x="-0.05" y="-0.05" width="4.1" height="0.1" fill="url(#dotline-2)" transform="translate(-5,22) rotate(0)"/>
    <rect id="dotline-89" x="-0.05" y="-0.05" width="4.1" height="0.1" fill="url(#dotline-2)" transform="translate(1,22) rotate(0)"/>
    <rect id="dotline-90" x="-0.025" y="-0.025" width="4.65" height="0.05" fill="url(#dotline-5)" transform="translate(-5,22) rotate(0)"/>
    <rect id="dotline-91" x="-0.025" y="-0.025" width="4.65" height="0.05" fill="url(#dotline-5)" transform="translate(0.4,22) rotate(0)"/>
    <text id="text-68" x="5.4" y="23.105" fill="black" font-size="0.417" text-anchor="middle">23</text>
    <text id="text-69" x="-5.4" y="23.105" fill="black" font-size="0.417" text-anchor="middle">23</text>
    <rect id="dotline-92" x="-0.05" y="-0.05" width="4.1" height="0.1" fill="url(#dotline-2)" transform="translate(-5,23) rotate(0)"/>
    <rect id="dotline-93" x="-0.05" y="-0.05" width="4.1" height="0.1" fill="url(#dotline-2)" transform="translate(1,23) rotate(0)"/>
    <rect id="dotline-94" x="-0.025" y="-0.025" width="4.65" height="0.05" fill="url(#dotline-5)" transform="translate(-5,23) rotate(0)"/>
    <rect id="dotline-95" x="-0.025" y="-0.025" width="4.65" height="0.05" fill="url(#dotline-5)" transform="translate(0.4,23) rotate(0)"/>
    <text id="text-70" x="5.4" y="24.21" fill="black" font-size="0.833" text-anchor="middle">24</text>
    <text id="text-71" x="-5.4" y="24.21" fill="black" font-size="0.833" text-anchor="middle">24</text>
    <rect id="dotline-96" x="-0.05" y="-0.05" width="4.1" height="0.1" fill="url(#dotline-2)" transform="translate(-5,24) rotate(0)"/>
    <rect id="dotline-97" x="-0.05" y="-0.05" width="4.1" height="0.1" fill="url(#dotline-2)" transform="translate(1,24) rotate(0)"/>
    <rect id="dotline-98" x="-0.025" y="-0.025" width="4.65" height="0.05" fill="url(#dotline-5)" transform="translate(-5,24) rotate(0)"/>
    <rect id="dotline-99" x="-0.025" y="-0.025" width="4.65" height="0.05" fill="url(#dotline-5)" transform="translate(0.4,24) rotate(0)"/>
  </g>
</svg>