<svg xmlns="http://www.w3.org/2000/svg" width="6000" height="6000" viewBox="-30 -30 60 60" data-mil-width="60" data-mil-height="60" data-factor="100" shape-rendering="crispEdges">
  <clipPath id="clip0">
    <circle id="circle-0" cx="0" cy="0" r="30" fill="white"/>
  </clipPath>
  <g id="clipgroup-0" clip-path="url(#clip0)">
    <rect id="fill-0" x="-30" y="-30" width="60" height="60" fill="white"/>
    <circle id="dot-0" cx="0" cy="0" r="0.025" fill="red"/>
    <line id="hline-0" x1="10" y1="0" x2="0.1" y2="0" stroke="red" stroke-width="0.041"/>
    <line id="hline-1" x1="-10" y1="0" x2="-0.1" y2="0" stroke="red" stroke-width="0.041"/>
    <line id="vline-0" x1="0" y1="-5" x2="0" y2="-0.1" stroke="red" stroke-width="0.041"/>
    <line id="vline-1" x1="0" y1="30" x2="0" y2="0.1" stroke="red" stroke-width="0.041"/>
    <path id="hruler-0" d="M 10 -0.3 L 10 0.3 M 9 -0.3 L 9 0.3 M 8 -0.3 L 8 0.3 M 7 -0.3 L 7 0.3 M 6 -0.3 L 6 0.3 M 5 -0.3 L 5 0.3 M 4 -0.3 L 4 0.3 M 3 -0.3 L 3 0.3 M 2 -0.3 L 2 0.3 M 1 -0.3 L 1 0.3" fill="none" stroke="red" stroke-width="0.041"/>
    <path id="hruler-1" d="M -10 -0.3 L -10 0.3 M -9 -0.3 L -9 0.3 M -8 -0.3 L -8 0.3 M -7 -0.3 L -7 0.3 M -6 -0.3 L -6 0.3 M -5 -0.3 L -5 0.3 M -4 -0.3 L -4 0.3 M -3 -0.3 L -3 0.3 M -2 -0.3 L -2 0.3 M -1 -0.3 L -1 0.3" fill="none" stroke="red" stroke-width="0.041"/>
    <path id="vruler-0" d="M -0.3 -5 L 0.3 -5 M -0.3 -4 L 0.3 -4 M -0.3 -3 L 0.3 -3 M -0.3 -2 L 0.3 -2 M -0.3 -1 L 0.3 -1" fill="none" stroke="red" stroke-width="0.041"/>
    <path id="vruler-1" d="M -0.3 30 L 0.3 30 M -0.3 29 L 0.3 29 M -0.3 28 L 0.3 28 M -0.3 27 L 0.3 27 M -0.3 26 L 0.3 26 M -0.3 25 L 0.3 25 M -0.3 24 L 0.3 24 M -0.3 23 L 0.3 23 M -0.3 22 L 0.3 22 M -0.3 21 L 0.3 21 M -0.3 20 L 0.3 20 M -0.3 19 L 0.3 19 M -0.3 18 L 0.3 18 M -0.3 17 L 0.3 17 M -0.3 16 L 0.3 16 M -0.3 15 L 0.3 15 M -0.3 14 L 0.3 14 M -0.3 13 L 0.3 13 M -0.3 12 L 0.3 12 M -0.3 11 L 0.3 11 M -0.3 10 L 0.3 10 M -0.3 9 L 0.3 9 M -0.3 8 L 0.3 8 M -0.3 7 L 0.3 7 M -0.3 6 L 0.3 6 M -0.3 5 L 0.3 5 M -0.3 4 L 0.3 4 M -0.3 3 L 0.3 3 M -0.3 2 L 0.3 2 M -0.3 1 L 0.3 1" fill="none" stroke="red" stroke-width="0.041"/>
    <path id="hruler-2" d="M 1.2 0 L 1.2 0.2 M 2.2 0 L 2.2 0.2 M 3.2 0 L 3.2 0.2 M 4.2 0 L 4.2 0.2 M 5.2 0 L 5.2 0.2 M 6.2 0 L 6.2 0.2 M 7.2 0 L 7.2 0.2 M 8.2 0 L 8.2 0.2 M 9.2 0 L 9.2 0.2" fill="none" stroke="red" stroke-width="0.041"/>
    <path id="hruler-3" d="M -1.2 0 L -1.2 0.2 M -2.2 0 L -2.2 0.2 M -3.2 0 L -3.2 0.2 M -4.2 0 L -4.2 0.2 M -5.2 0 L -5.2 0.2 M -6.2 0 L -6.2 0.2 M -7.2 0 L -7.2 0.2 M -8.2 0 L -8.2 0.2 M -9.2 0 L -9.2 0.2" fill="none" stroke="red" stroke-width="0.041"/>
    <path id="hruler-4" d="M 0.4 -0.2 L 0.4 0 M 1.4 -0.2 L 1.4 0 M 2.4 -0.2 L 2.4 0 M 3.4 -0.2 L 3.4 0 M 4.4 -0.2 L 4.4 0 M 5.4 -0.2 L 5.4 0 M 6.4 -0.2 L 6.4 0 M 7.4 -0.2 L 7.4 0 M 8.4 -0.2 L 8.4 0 M 9.4 -0.2 L 9.4 0" fill="none" stroke="red" stroke-width="0.041"/>
    <path id="hruler-5" d="M -0.4 -0.2 L -0.4 0 M -1.4 -0.2 L -1.4 0 M -2.4 -0.2 L -2.4 0 M -3.4 -0.2 L -3.4 0 M -4.4 -0.2 L -4.4 0 M -5.4 -0.2 L -5.4 0 M -6.4 -0.2 L -6.4 0 M -7.4 -0.2 L -7.4 0 M -8.4 -0.2 L -8.4 0 M -9.4 -0.2 L -9.4 0" fill="none" stroke="red" stroke-width="0.041"/>
    <path id="hruler-6" d="M 0.6 -0.2 L 0.6 0 M 1.6 -0.2 L 1.6 0 M 2.6 -0.2 L 2.6 0 M 3.6 -0.2 L 3.6 0 M 4.6 -0.2 L 4.6 0 M 5.6 -0.2 L 5.6 0 M 6.6 -0.2 L 6.6 0 M 7.6 -0.2 L 7.6 0 M 8.6 -0.2 L 8.6 0 M 9.6 -0.2 L 9.6 0" fill="none" stroke="red" stroke-width="0.041"/>
    <path id="hruler-7" d="M -0.6 -0.2 L -0.6 0 M -1.6 -0.2 L -1.6 0 M -2.6 -0.2 L -2.6 0 M -3.6 -0.2 L -3.6 0 M -4.6 -0.2 L -4.6 0 M -5.6 -0.2 L -5.6 0 M -6.6 -0.2 L -6.6 0 M -7.6 -0.2 L -7.6 0 M -8.6 -0.2 L -8.6 0 M -9.6 -0.2 L -9.6 0" fill="none" stroke="red" stroke-width="0.041"/>
    <path id="hruler-8" d="M 0.8 0 L 0.8 0.2 M 1.8 0 L 1.8 0.2 M 2.8 0 L 2.8 0.2 M 3.8 0 L 3.8 0.2 M 4.8 0 L 4.8 0.2 M 5.8 0 L 5.8 0.2 M 6.8 0 L 6.8 0.2 M 7.8 0 L 7.8 0.2 M 8.8 0 L 8.8 0.2 M 9.8 0 L 9.8 0.2" fill="none" stroke="red" stroke-width="0.041"/>
    <path id="hruler-9" d="M -0.8 0 L -0.8 0.2 M -1.8 0 L -1.8 0.2 M -2.8 0 L -2.8 0.2 M -3.8 0 L -3.8 0.2 M -4.8 0 L -4.8 0.2 M -5.8 0 L -5.8 0.2 M -6.8 0 L -6.8 0.2 M -7.8 0 L -7.8 0.2 M -8.8 0 L -8.8 0.2 M -9.8 0 L -9.8 0.2" fill="none" stroke="red" stroke-width="0.041"/>
    <line id="vline-2" x1="0.2" y1="0" x2="0.2" y2="0.1" stroke="red" stroke-width="0.041"/>
    <line id="vline-3" x1="-0.2" y1="0" x2="-0.2" y2="0.1" stroke="red" stroke-width="0.041"/>
    <path id="vruler-2" d="M -0.2 -1.2 L 0 -1.2 M -0.2 -2.2 L 0 -2.2 M -0.2 -3.2 L 0 -3.2 M -0.2 -4.2 L 0 -4.2" fill="none" stroke="red" stroke-width="0.041"/>
    <path id="vruler-3" d="M 0 -0.4 L 0.2 -0.4 M 0 -1.4 L 0.2 -1.4 M 0 -2.4 L 0.2 -2.4 M 0 -3.4 L 0.2 -3.4 M 0 -4.4 L 0.2 -4.4" fill="none" stroke="red" stroke-width="0.041"/>
    <path id="vruler-4" d="M 0 -0.6 L 0.2 -0.6 M 0 -1.6 L 0.2 -1.6 M 0 -2.6 L 0.2 -2.6 M 0 -3.6 L 0.2 -3.6 M 0 -4.6 L 0.2 -4.6" fill="none" stroke="red" stroke-width="0.041"/>
    <path id="vruler-5" d="M -0.2 -0.8 L 0 -0.8 M -0.2 -1.8 L 0 -1.8 M -0.2 -2.8 L 0 -2.8 M -0.2 -3.8 L 0 -3.8 M -0.2 -4.8 L 0 -4.8" fill="none" stroke="red" stroke-width="0.041"/>
    <path id="vruler-6" d="M -0.2 1.2 L 0 1.2 M -0.2 2.2 L 0 2.2 M -0.2 3.2 L 0 3.2 M -0.2 4.2 L 0 4.2 M -0.2 5.2 L 0 5.2 M -0.2 6.2 L 0 6.2 M -0.2 7.2 L 0 7.2 M -0.2 8.2 L 0 8.2 M -0.2 9.2 L 0 9.2 M -0.2 10.2 L 0 10.2 M -0.2 11.2 L 0 11.2 M -0.2 12.2 L 0 12.2 M -0.2 13.2 L 0 13.2 M -0.2 14.2 L 0 14.2 M -0.2 15.2 L 0 15.2 M -0.2 16.2 L 0 16.2 M -0.2 17.2 L 0 17.2 M -0.2 18.2 L 0 18.2 M -0.2 19.2 L 0 19.2 M -0.2 20.2 L 0 20.2 M -0.2 21.2 L 0 21.2 M -0.2 22.2 L 0 22.2 M -0.2 23.2 L 0 23.2 M -0.2 24.2 L 0 24.2 M -0.2 25.2 L 0 25.2 M -0.2 26.2 L 0 26.2 M -0.2 27.2 L 0 27.2 M -0.2 28.2 L 0 28.2 M -0.2 29.2 L 0 29.2" fill="none" stroke="red" stroke-width="0.041"/>
    <path id="vruler-7" d="M 0 0.4 L 0.2 0.4 M 0 1.4 L 0.2 1.4 M 0 2.4 L 0.2 2.4 M 0 3.4 L 0.2 3.4 M 0 4.4 L 0.2 4.4 M 0 5.4 L 0.2 5.4 M 0 6.4 L 0.2 6.4 M 0 7.4 L 0.2 7.4 M 0 8.4 L 0.2 8.4 M 0 9.4 L 0.2 9.4 M 0 10.4 L 0.2 10.4 M 0 11.4 L 0.2 11.4 M 0 12.4 L 0.2 12.4 M 0 13.4 L 0.2 13.4 M 0 14.4 L 0.2 14.4 M 0 15.4 L 0.2 15.4 M 0 16.4 L 0.2 16.4 M 0 17.4 L 0.2 17.4 M 0 18.4 L 0.2 18.4 M 0 19.4 L 0.2 19.4 M 0 20.4 L 0.2 20.4 M 0 21.4 L 0.2 21.4 M 0 22.4 L 0.2 22.4 M 0 23.4 L 0.2 23.4 M 0 24.4 L 0.2 24.4 M 0 25.4 L 0.2 25.4 M 0 26.4 L 0.2 26.4 M 0 27.4 L 0.2 27.4 M 0 28.4 L 0.2 28.4 M 0 29.4 L 0.2 29.4" fill="none" stroke="red" stroke-width="0.041"/>
    <path id="vruler-8" d="M 0 0.6 L 0.2 0.6 M 0 1.6 L 0.2 1.6 M 0 2.6 L 0.2 2.6 M 0 3.6 L 0.2 3.6 M 0 4.6 L 0.2 4.6 M 0 5.6 L 0.2 5.6 M 0 6.6 L 0.2 6.6 M 0 7.6 L 0.2 7.6 M 0 8.6 L 0.2 8.6 M 0 9.6 L 0.2 9.6 M 0 10.6 L 0.2 10.6 M 0 11.6 L 0.2 11.6 M 0 12.6 L 0.2 12.6 M 0 13.6 L 0.2 13.6 M 0 14.6 L 0.2 14.6 M 0 15.6 L 0.2 15.6 M 0 16.6 L 0.2 16.6 M 0 17.6 L 0.2 17.6 M 0 18.6 L 0.2 18.6 M 0 19.6 L 0.2 19.6 M 0 20.6 L 0.2 20.6 M 0 21.6 L 0.2 21.6 M 0 22.6 L 0.2 22.6 M 0 23.6 L 0.2 23.6 M 0 24.6 L 0.2 24.6 M 0 25.6 L 0.2 25.6 M 0 26.6 L 0.2 26.6 M 0 27.6 L 0.2 27.6 M 0 28.6 L 0.2 28.6 M 0 29.6 L 0.2 29.6" fill="none" stroke="red" stroke-width="0.041"/>
    <path id="vruler-9" d="M -0.2 0.8 L 0 0.8 M -0.2 1.8 L 0 1.8 M -0.2 2.8 L 0 2.8 M -0.2 3.8 L 0 3.8 M -0.2 4.8 L 0 4.8 M -0.2 5.8 L 0 5.8 M -0.2 6.8 L 0 6.8 M -0.2 7.8 L 0 7.8 M -0.2 8.8 L 0 8.8 M -0.2 9.8 L 0 9.8 M -0.2 10.8 L 0 10.8 M -0.2 11.8 L 0 11.8 M -0.2 12.8 L 0 12.8 M -0.2 13.8 L 0 13.8 M -0.2 14.8 L 0 14.8 M -0.2 15.8 L 0 15.8 M -0.2 16.8 L 0 16.8 M -0.2 17.8 L 0 17.8 M -0.2 18.8 L 0 18.8 M -0.2 19.8 L 0 19.8 M -0.2 20.8 L 0 20.8 M -0.2 21.8 L 0 21.8 M -0.2 22.8 L 0 22.8 M -0.2 23.8 L 0 23.8 M -0.2 24.8 L 0 24.8 M -0.2 25.8 L 0 25.8 M -0.2 26.8 L 0 26.8 M -0.2 27.8 L 0 27.8 M -0.2 28.8 L 0 28.8 M -0.2 29.8 L 0 29.8" fill="none" stroke="red" stroke-width="0.041"/>
    <line id="hline-2" x1="-0.1" y1="0.2" x2="0.1" y2="0.2" stroke="red" stroke-width="0.041"/>
    <line id="hline-3" x1="-0.1" y1="-0.2" x2="0.1" y2="-0.2" stroke="red" stroke-width="0.041"/>
    <text id="text-0" x="-10" y="-0.65" fill="black" font-size="0.486" text-anchor="middle">10</text>
    <text id="text-1" x="-9" y="-0.65" fill="black" font-size="0.486" text-anchor="middle">9</text>
    <text id="text-2" x="-8" y="-0.65" fill="black" font-size="0.486" text-anchor="middle">8</text>
    <text id="text-3" x="-7" y="-0.65" fill="black" font-size="0.486" text-anchor="middle">7</text>
    <text id="text-4" x="-6" y="-0.65" fill="black" font-size="0.486" text-anchor="middle">6</text>
    <text id="text-5" x="-5" y="-0.65" fill="black" font-size="0.486" text-anchor="middle">5</text>
    <text id="text-6" x="-4" y="-0.65" fill="black" font-size="0.486" text-anchor="middle">4</text>
    <text id="text-7" x="-3" y="-0.65" fill="black" font-size="0.486" text-anchor="middle">3</text>
    <text id="text-8" x="-2" y="-0.65" fill="black" font-size="0.486" text-anchor="middle">2</text>
    <text id="text-9" x="-1" y="-0.65" fill="black" font-size="0.486" text-anchor="middle">1</text>
    <text id="text-10" x="1" y="-0.65" fill="black" font-size="0.486" text-anchor="middle">1</text>
    <text id="text-11" x="2" y="-0.65" fill="black" font-size="0.486" text-anchor="middle">2</text>
    <text id="text-12" x="3" y="-0.65" fill="black" font-size="0.486" text-anchor="middle">3</text>
    <text id="text-13" x="4" y="-0.65" fill="black" font-size="0.486" text-anchor="middle">4</text>
    <text id="text-14" x="5" y="-0.65" fill="black" font-size="0.486" text-anchor="middle">5</text>
    <text id="text-15" x="6" y="-0.65" fill="black" font-size="0.486" text-anchor="middle">6</text>
    <text id="text-16" x="7" y="-0.65" fill="black" font-size="0.486" text-anchor="middle">7</text>
    <text id="text-17" x="8" y="-0.65" fill="black" font-size="0.486" text-anchor="middle">8</text>
    <text id="text-18" x="9" y="-0.65" fill="black" font-size="0.486" text-anchor="middle">9</text>
    <text id="text-19" x="10" y="-0.65" fill="black" font-size="0.486" text-anchor="middle">10</text>
    <text id="text-20" x="-0.5" y="1.123" fill="black" font-size="0.486" text-anchor="middle">1</text>
    <text id="text-21" x="-0.5" y="2.123" fill="black" font-size="0.486" text-anchor="middle">2</text>
    <text id="text-22" x="-0.5" y="3.123" fill="black" font-size="0.486" text-anchor="middle">3</text>
    <text id="text-23" x="-0.5" y="4.123" fill="black" font-size="0.486" text-anchor="middle">4</text>
    <text id="text-24" x="-0.5" y="5.123" fill="black" font-size="0.486" text-anchor="middle">5</text>
    <text id="text-25" x="-0.5" y="6.123" fill="black" font-size="0.486" text-anchor="middle">6</text>
    <text id="text-26" x="-0.5" y="7.123" fill="black" font-size="0.486" text-anchor="middle">7</text>
    <text id="text-27" x="-0.5" y="8.123" fill="black" font-size="0.486" text-anchor="middle">8</text>
    <text id="text-28" x="-0.5" y="9.123" fill="black" font-size="0.486" text-anchor="middle">9</text>
    <text id="text-29" x="-0.5" y="10.123" fill="black" font-size="0.486" text-anchor="middle">10</text>
    <text id="text-30" x="-0.5" y="11.123" fill="black" font-size="0.486" text-anchor="middle">11</text>
    <text id="text-31" x="-0.5" y="12.123" fill="black" font-size="0.486" text-anchor="middle">12</text>
    <text id="text-32" x="-0.5" y="13.123" fill="black" font-size="0.486" text-anchor="middle">13</text>
    <text id="text-33" x="-0.5" y="14.123" fill="black" font-size="0.486" text-anchor="middle">14</text>
    <text id="text-34" x="-0.5" y="15.123" fill="black" font-size="0.486" text-anchor="middle">15</text>
    <text id="text-35" x="-0.5" y="16.122" fill="black" font-size="0.486" text-anchor="middle">16</text>
    <text id="text-36" x="-0.5" y="17.123" fill="black" font-size="0.486" text-anchor="middle">17</text>
    <text id="text-37" x="-0.5" y="18.123" fill="black" font-size="0.486" text-anchor="middle">18</text>
    <text id="text-38" x="-0.5" y="19.123" fill="black" font-size="0.486" text-anchor="middle">19</text>
    <text id="text-39" x="-0.5" y="20.123" fill="black" font-size="0.486" text-anchor="middle">20</text>
    <text id="text-40" x="-0.5" y="21.123" fill="black" font-size="0.486" text-anchor="middle">21</text>
    <text id="text-41" x="-0.5" y="22.123" fill="black" font-size="0.486" text-anchor="middle">22</text>
    <text id="text-42" x="-0.5" y="23.123" fill="black" font-size="0.486" text-anchor="middle">23</text>
    <text id="text-43" x="-0.5" y="24.123" fill="black" font-size="0.486" text-anchor="middle">24</text>
    <text id="text-44" x="-0.5" y="25.123" fill="black" font-size="0.486" text-anchor="middle">25</text>
    <text id="text-45" x="-0.5" y="26.123" fill="black" font-size="0.486" text-anchor="middle">26</text>
    <text id="text-46" x="-0.5" y="27.123" fill="black" font-size="0.486" text-anchor="middle">27</text>
    <text id="text-47" x="-0.5" y="28.123" fill="black" font-size="0.486" text-anchor="middle">28</text>
    <text id="text-48" x="-0.5" y="29.123" fill="black" font-size="0.486" text-anchor="middle">29</text>
    <text id="text-49" x="-0.5" y="30.123" fill="black" font-size="0.486" text-anchor="middle">30</text>
    <line id="vline-4" x1="3.1" y1="1" x2="3.1" y2="3.3" stroke="black" stroke-width="0.041"/>
    <line id="hline-4" x1="2.1" y1="3" x2="4.1" y2="3" stroke="black" stroke-width="0.041"/>
    <path id="vruler-10" d="M 2.8 1 L 3.4 1 M 2.8 2 L 3.4 2" fill="none" stroke="black" stroke-width="0.03"/>
    <path id="vruler-11" d="M 3.1 1 L 3.2 1 M 3.1 1.2 L 3.2 1.2 M 3.1 1.4 L 3.2 1.4 M 3.1 1.6 L 3.2 1.6 M 3.1 1.8 L 3.2 1.8 M 3.1 2 L 3.2 2 M 3.1 2.2 L 3.2 2.2 M 3.1 2.4 L 3.2 2.4 M 3.1 2.6 L 3.2 2.6 M 3.1 2.8 L 3.2 2.8 M 3.1 3 L 3.2 3" fill="none" stroke="black" stroke-width="0.03"/>
    <path id="vruler-12" d="M 3 1.1 L 3.1 1.1 M 3 1.3 L 3.1 1.3 M 3 1.5 L 3.1 1.5 M 3 1.7 L 3.1 1.7 M 3 1.9 L 3.1 1.9 M 3 2.1 L 3.1 2.1 M 3 2.3 L 3.1 2.3 M 3 2.5 L 3.1 2.5 M 3 2.7 L 3.1 2.7 M 3 2.9 L 3.1 2.9" fill="none" stroke="black" stroke-width="0.03"/>
    <path id="hruler-10" d="M 2.1 2.7 L 2.1 3.3 M 4.1 2.7 L 4.1 3.3" fill="none" stroke="black" stroke-width="0.03"/>
    <path id="hruler-11" d="M 2.2 3 L 2.2 3.1 M 2.4 3 L 2.4 3.1 M 2.6 3 L 2.6 3.1 M 2.8 3 L 2.8 3.1 M 3 3 L 3 3.1 M 3.2 3 L 3.2 3.1 M 3.4 3 L 3.4 3.1 M 3.6 3 L 3.6 3.1 M 3.8 3 L 3.8 3.1 M 4 3 L 4 3.1" fill="none" stroke="black" stroke-width="0.03"/>
    <path id="hruler-12" d="M 2.3 2.9 L 2.3 3 M 2.5 2.9 L 2.5 3 M 2.7 2.9 L 2.7 3 M 2.9 2.9 L 2.9 3 M 3.1 2.9 L 3.1 3 M 3.3 2.9 L 3.3 3 M 3.5 2.9 L 3.5 3 M 3.7 2.9 L 3.7 3 M 3.9 2.9 L 3.9 3" fill="none" stroke="black" stroke-width="0.03"/>
    <text id="text-50" x="2.1" y="3.85" fill="black" font-size="0.486" text-anchor="middle">1</text>
    <text id="text-51" x="3.1" y="3.85" fill="black" font-size="0.486" text-anchor="middle">0</text>
    <text id="text-52" x="4.1" y="3.85" fill="black" font-size="0.486" text-anchor="middle">1</text>
    <text id="text-53" x="3.6" y="1.123" fill="black" font-size="0.486" text-anchor="middle">1</text>
    <text id="text-54" x="3.6" y="2.123" fill="black" font-size="0.486" text-anchor="middle">2</text>
    <path id="hruler-13" d="M 15 -0.3 L 15 0.3 M 14 -0.3 L 14 0.3 M 13 -0.3 L 13 0.3 M 12 -0.3 L 12 0.3 M 11 -0.3 L 11 0.3" fill="none" stroke="black" stroke-width="0.04"/>
    <path id="hruler-14" d="M -15 -0.3 L -15 0.3 M -14 -0.3 L -14 0.3 M -13 -0.3 L -13 0.3 M -12 -0.3 L -12 0.3 M -11 -0.3 L -11 0.3" fill="none" stroke="black" stroke-width="0.04"/>
    <rect id="rect-0" x="11" y="-0.2" width="3.97" height="0.4" fill="white"/>
    <rect id="rect-1" x="-14.97" y="-0.2" width="4" height="0.4" fill="white"/>
    <line id="hline-5" x1="30" y1="0" x2="10.2" y2="0" stroke="black" stroke-width="0.04"/>
    <line id="hline-6" x1="-30" y1="0" x2="-10.2" y2="0" stroke="black" stroke-width="0.04"/>
    <line id="hline-7" x1="30" y1="0.2" x2="11" y2="0.2" stroke="black" stroke-width="0.04"/>
    <line id="hline-8" x1="30" y1="-0.2" x2="11" y2="-0.2" stroke="black" stroke-width="0.04"/>
    <line id="hline-9" x1="-30" y1="0.2" x2="-11" y2="0.2" stroke="black" stroke-width="0.04"/>
    <line id="hline-10" x1="-30" y1="-0.2" x2="-11" y2="-0.2" stroke="black" stroke-width="0.04"/>
    <line id="line-0" x1="10.2" y1="0" x2="11" y2="0.2" stroke="black" stroke-width="0.04"/>
    <line id="line-1" x1="10.2" y1="0" x2="11" y2="-0.2" stroke="black" stroke-width="0.04"/>
    <line id="line-2" x1="-10.2" y1="0" x2="-11" y2="0.2" stroke="black" stroke-width="0.04"/>
    <line id="line-3" x1="-10.2" y1="0" x2="-11" y2="-0.2" stroke="black" stroke-width="0.04"/>
  </g>
</svg>