<?xml version="1.0" standalone="no"?>
<!DOCTYPE svg PUBLIC "-//W3C//DTD SVG 20010904//EN"
 "http://www.w3.org/TR/2001/REC-SVG-20010904/DTD/svg10.dtd">
<svg version="1.0" xmlns="http://www.w3.org/2000/svg"
 width="1024.000000pt" height="1024.000000pt" viewBox="0 0 1024.000000 1024.000000"
 preserveAspectRatio="xMidYMid meet">

<g transform="translate(0.000000,1024.000000) scale(0.100000,-0.100000)"
fill="#000000" stroke="none">
<path d="M0 5120 l0 -5120 5120 0 5120 0 0 5120 0 5120 -5120 0 -5120 0 0
-5120z m5192 3024 c143 -306 240 -757 250 -1167 l3 -97 -344 0 -344 0 7 132
c24 456 133 905 301 1239 l37 72 22 -39 c11 -21 42 -84 68 -140z m298 -1589
l0 -245 -280 0 -280 0 0 220 0 220 -65 0 -65 0 0 -221 0 -220 -42 3 -43 3 -3
170 c-2 94 0 203 3 243 l7 72 384 0 384 0 0 -245z m-930 -340 l0 -55 -32 0
c-86 -1 -131 -25 -145 -77 -15 -62 27 -104 111 -113 l51 -5 0 -575 c0 -628 0
-629 -59 -750 -18 -36 -227 -357 -466 -715 -328 -493 -438 -665 -453 -710 -24
-77 -26 -202 -3 -270 36 -110 136 -202 242 -224 45 -9 360 -11 1324 -9 l1265
3 60 24 c79 31 154 107 186 187 33 86 33 216 -2 299 -27 65 -204 338 -642 993
-157 236 -285 436 -296 467 -38 101 -42 170 -39 735 l3 545 60 6 c71 8 105 39
105 95 0 62 -30 80 -145 89 -54 4 -184 22 -289 40 l-191 33 218 1 c217 1 218
1 212 22 -7 20 -5 21 88 17 87 -3 99 -6 138 -33 57 -41 83 -93 83 -169 -1 -89
-42 -154 -125 -196 l-40 -21 3 -537 3 -537 26 -55 c14 -30 221 -347 458 -705
238 -357 442 -667 452 -688 11 -21 29 -73 40 -114 34 -134 22 -250 -36 -369
-44 -89 -111 -154 -210 -200 -62 -30 -91 -37 -182 -46 -70 -6 -534 -7 -1312
-3 -1358 8 -1264 2 -1390 86 -102 68 -162 163 -189 301 -19 96 -8 201 30 296
13 31 216 347 452 701 236 354 445 678 465 720 l36 76 3 542 3 541 -34 11
c-35 12 -96 69 -117 110 -17 32 -15 129 3 171 17 43 62 88 102 106 17 7 63 13
103 14 l72 0 0 -55z m231 -21 c3 -2 9 -153 12 -336 12 -605 31 -1167 39 -1162
4 3 8 33 8 67 0 34 9 197 20 362 11 165 27 467 36 670 10 204 18 371 20 373 2
3 522 -75 561 -85 l22 -5 4 -666 c4 -747 0 -709 78 -865 48 -95 65 -122 606
-940 249 -378 252 -382 274 -432 45 -101 8 -228 -78 -271 -37 -18 -79 -19
-1290 -19 l-1251 0 -44 30 c-87 61 -111 163 -60 267 15 31 123 202 240 380
494 749 596 907 633 983 77 159 73 114 77 933 l3 734 42 -7 c23 -4 45 -9 48
-11z m4914 -5451 c23 -60 96 -133 157 -158 27 -11 48 -23 48 -26 0 -4 -21 -14
-47 -24 -60 -23 -133 -96 -158 -157 -11 -27 -23 -48 -26 -48 -4 0 -14 21 -24
47 -23 60 -96 133 -157 158 -27 11 -48 23 -48 26 0 4 21 14 47 24 60 23 133
96 158 157 11 27 23 48 26 48 4 0 14 -21 24 -47z"/>
<path d="M5012 7948 c-58 -177 -82 -270 -117 -460 -34 -191 -54 -347 -56 -458
l-2 -95 51 -3 50 -3 6 53 c3 29 8 121 11 203 10 259 37 501 89 774 14 74 24
136 22 138 -2 2 -26 -65 -54 -149z"/>
<path d="M4482 4108 c-6 -7 -152 -229 -326 -492 -293 -446 -316 -483 -316
-524 0 -35 6 -49 31 -74 l31 -31 1208 6 c959 5 1213 9 1229 19 29 18 43 66 32
106 -8 28 -216 351 -543 842 l-103 155 -616 3 c-486 2 -619 -1 -627 -10z"/>
</g>
</svg>
