<?xml version="1.0" standalone="no"?>
<!DOCTYPE svg PUBLIC "-//W3C//DTD SVG 20010904//EN"
 "http://www.w3.org/TR/2001/REC-SVG-20010904/DTD/svg10.dtd">
<svg version="1.0" xmlns="http://www.w3.org/2000/svg"
 width="1024.000000pt" height="1024.000000pt" viewBox="0 0 1024.000000 1024.000000"
 preserveAspectRatio="xMidYMid meet">

<circle cx="512" cy="512" r="512" fill="#FFFFFF"/>


<g transform="translate(0.000000,1024.000000) scale(0.100000,-0.100000)"
fill="#000000" stroke="none">
<path d="M5055 8071 c-167 -333 -273 -768 -292 -1198 l-6 -143 346 0 347 0 0
63 c0 275 -80 731 -175 1007 -39 112 -145 343 -163 354 -7 4 -29 -28 -57 -83z
m-15 -289 c-46 -225 -90 -663 -90 -894 0 -104 -2 -108 -61 -108 l-49 0 0 78
c1 159 48 482 101 690 34 134 119 396 125 389 3 -3 -9 -72 -26 -155z"/>
<path d="M4710 6406 l0 -244 23 -6 c12 -3 32 -6 45 -6 l22 0 0 225 0 225 65 0
65 0 0 -225 0 -225 283 2 282 3 3 248 2 247 -395 0 -395 0 0 -244z"/>
<path d="M4424 6111 c-18 -5 -48 -18 -68 -30 -137 -85 -120 -300 29 -370 l46
-21 -3 -533 -3 -532 -23 -58 c-18 -45 -545 -850 -879 -1343 -76 -113 -112
-291 -83 -415 41 -177 169 -312 340 -359 59 -17 2593 -15 2655 2 114 30 233
122 287 224 76 142 77 343 3 486 -28 54 -133 213 -573 875 -176 266 -331 509
-344 540 -23 58 -23 60 -26 588 l-3 530 45 18 c52 22 101 80 117 141 24 90
-23 196 -106 236 -54 26 -199 35 -201 13 -1 -7 -2 -17 -3 -22 0 -5 -88 -7
-208 -3 -154 4 -204 2 -199 -6 4 -7 15 -12 26 -12 10 0 92 -13 181 -29 90 -16
206 -33 258 -37 109 -7 141 -27 141 -86 -1 -60 -48 -98 -125 -98 l-46 0 3
-592 3 -593 25 -70 c18 -52 80 -154 241 -395 476 -714 689 -1043 710 -1097 16
-44 22 -79 22 -143 0 -174 -81 -293 -237 -347 -48 -17 -125 -18 -1331 -18
l-1280 0 -65 31 c-79 38 -131 89 -168 163 -25 51 -27 66 -27 171 0 98 3 122
22 163 13 27 116 189 229 360 114 172 308 464 432 650 123 185 236 363 252
395 54 111 55 120 55 742 l0 575 -50 6 c-27 3 -58 9 -68 14 -27 11 -49 62 -42
94 10 48 43 69 110 73 l60 3 0 60 0 60 -50 2 c-27 1 -64 -2 -81 -6z"/>
<path d="M4700 5369 c0 -428 -4 -707 -11 -752 -23 -157 -58 -230 -263 -540
-84 -128 -195 -297 -248 -377 -52 -80 -166 -253 -253 -385 -87 -132 -169 -260
-182 -284 -43 -82 -26 -197 39 -258 59 -56 -7 -53 1327 -53 l1229 0 52 28 c98
51 132 176 77 282 -23 45 -261 410 -633 975 -238 361 -258 395 -302 544 -14
49 -17 139 -22 716 l-5 660 -115 17 c-63 10 -185 29 -271 43 -217 35 -199 39
-199 -48 0 -41 -4 -154 -10 -253 -5 -98 -17 -312 -25 -474 -9 -162 -20 -347
-25 -410 -5 -63 -10 -145 -10 -182 0 -38 -4 -68 -8 -68 -8 0 -28 570 -39 1157
l-6 331 -30 6 c-16 3 -38 6 -48 6 -18 0 -19 -22 -19 -681z m1032 -1426 c9 -10
74 -106 144 -215 71 -108 203 -309 294 -447 210 -318 202 -305 204 -353 1 -32
-5 -45 -27 -64 l-28 -24 -1215 0 -1215 0 -24 25 c-19 18 -25 35 -25 68 0 41
17 69 206 358 114 173 259 394 323 491 l116 178 616 0 c574 0 617 -1 631 -17z"/>
<path d="M9450 542 c0 -5 17 -14 38 -20 22 -7 61 -28 88 -48 l49 -35 -40 36
c-57 52 -135 91 -135 67z"/>
<path d="M9855 533 c-78 -41 -146 -122 -170 -200 -13 -46 12 -21 34 32 26 63
89 124 156 152 25 10 45 21 45 26 0 12 -33 7 -65 -10z"/>
</g>
</svg>
