<?xml version="1.0" standalone="no"?>
<!DOCTYPE svg PUBLIC "-//W3C//DTD SVG 20010904//EN"
 "http://www.w3.org/TR/2001/REC-SVG-20010904/DTD/svg10.dtd">
<svg version="1.0" xmlns="http://www.w3.org/2000/svg"
 width="1024.000000pt" height="1024.000000pt" viewBox="0 0 1024.000000 1024.000000"
 preserveAspectRatio="xMidYMid meet">

<g transform="translate(0.000000,1024.000000) scale(0.100000,-0.100000)"
fill="#000000" stroke="none">
<path d="M0 5120 l0 -5120 5120 0 5120 0 0 5120 0 5120 -5120 0 -5120 0 0
-5120z m5190 3537 c144 -297 252 -758 267 -1144 l6 -163 -343 0 -343 0 6 153
c13 328 85 696 193 978 48 127 131 299 144 299 6 0 38 -55 70 -123z m320
-1622 l0 -245 -287 0 -286 0 6 214 7 215 -44 6 c-23 4 -54 5 -67 3 l-24 -3 3
-217 4 -218 -46 0 -46 0 0 245 0 245 390 0 390 0 0 -245z m-939 -289 c2 -2 2
-29 1 -60 l-4 -56 -58 0 c-81 0 -110 -24 -110 -90 0 -65 29 -90 106 -90 l54 0
0 -573 c0 -535 -1 -579 -19 -650 -11 -41 -29 -94 -41 -117 -12 -23 -219 -339
-461 -702 -493 -741 -485 -727 -477 -881 9 -165 98 -284 241 -323 44 -12 252
-14 1311 -14 800 0 1275 4 1303 10 102 23 180 87 229 186 26 54 29 68 29 165
0 105 -1 108 -40 185 -23 44 -234 369 -470 724 -281 422 -438 667 -454 710
l-26 65 -3 606 -3 606 53 2 c76 1 102 24 106 88 3 45 0 53 -24 72 -21 17 -41
21 -96 21 -78 0 -457 58 -473 72 -6 5 74 8 198 6 l207 -3 0 23 c0 20 4 22 61
22 127 0 204 -42 233 -127 32 -94 15 -168 -54 -235 -27 -25 -59 -48 -72 -50
l-23 -3 -3 -485 c-1 -276 2 -512 7 -548 5 -34 21 -87 35 -118 14 -30 118 -195
232 -367 114 -172 307 -463 429 -647 123 -184 232 -354 244 -377 56 -113 67
-310 22 -425 -48 -125 -149 -222 -279 -272 l-57 -21 -1255 -3 c-859 -2 -1277
1 -1325 8 -177 27 -320 145 -371 307 -29 88 -25 267 6 348 29 75 -11 12 425
670 443 668 488 738 517 807 22 52 23 61 26 585 l3 532 -38 16 c-79 33 -133
111 -133 192 1 88 57 170 136 198 36 13 145 20 155 11z m240 -81 c4 -3 7 -105
8 -227 2 -243 16 -826 28 -1113 7 -174 7 -177 15 -95 16 180 57 951 71 1317 2
51 5 94 8 96 2 3 54 -4 114 -13 61 -10 190 -30 287 -45 l177 -28 4 -651 c3
-631 4 -653 25 -733 31 -119 73 -195 277 -503 171 -260 256 -389 504 -765 152
-231 171 -271 171 -353 0 -90 -27 -138 -95 -172 l-50 -25 -1235 0 -1235 0 -40
22 c-57 30 -86 65 -100 120 -15 56 -7 122 20 173 17 33 91 147 330 510 154
234 364 553 438 665 117 179 154 268 177 430 5 41 10 349 10 741 l0 672 42 -9
c23 -6 45 -12 49 -14z m-354 -4240 c67 -20 80 -36 57 -70 -13 -20 -22 -25 -38
-20 -76 24 -107 28 -132 17 -19 -9 -25 -18 -22 -39 3 -23 12 -29 87 -55 108
-36 131 -56 131 -118 0 -84 -59 -130 -165 -130 -40 0 -72 8 -111 26 l-55 26
19 30 c21 32 20 32 72 10 85 -35 165 -20 158 31 -2 17 -16 26 -63 41 -145 46
-165 62 -165 134 0 102 101 154 227 117z m1117 4 c47 -13 106 -50 106 -66 0
-6 -12 -21 -28 -31 -27 -20 -28 -20 -55 0 -91 66 -217 2 -217 -110 0 -62 23
-100 76 -124 52 -22 86 -18 138 17 l34 23 26 -27 26 -27 -22 -21 c-42 -38 -85
-53 -151 -53 -80 0 -140 29 -182 89 -41 59 -47 155 -13 221 47 91 159 138 262
109z m478 -16 c43 -17 46 -27 19 -62 -18 -24 -19 -24 -60 -8 -80 32 -137 17
-129 -35 2 -19 17 -27 88 -50 103 -33 130 -59 130 -123 0 -85 -70 -132 -184
-123 -57 5 -146 39 -146 56 0 6 21 41 36 61 2 2 14 -3 28 -12 34 -23 111 -40
141 -33 13 3 29 16 36 27 14 27 -10 55 -55 65 -122 26 -166 64 -166 141 0 103
127 150 262 96z m-3595 6 c15 -6 38 -20 51 -31 29 -28 30 -95 2 -131 l-21 -26
25 -16 c51 -34 59 -120 13 -163 -31 -29 -95 -41 -219 -42 l-108 0 -1 143 c-1
126 -1 268 1 275 1 8 234 0 257 -9z m527 -186 c49 -109 91 -204 93 -211 4 -10
-6 -12 -42 -10 -46 3 -48 4 -65 48 l-18 45 -95 3 -96 3 -22 -51 c-21 -49 -22
-50 -65 -50 l-44 0 14 33 c7 17 43 97 78 177 35 80 70 160 77 178 12 29 17 32
55 32 l43 0 87 -197z m286 27 l0 -169 108 -3 107 -3 0 -35 0 -35 -152 -3 -153
-3 0 211 0 210 45 0 45 0 0 -170z m410 0 l0 -170 110 0 110 0 0 -40 0 -40
-150 0 -150 0 0 210 0 210 40 0 40 0 0 -170z m411 -15 c0 -99 0 -192 0 -207
-1 -26 -4 -28 -41 -28 l-40 0 0 211 0 210 40 -3 40 -3 1 -180z m869 145 l0
-40 -65 0 -65 0 0 -170 0 -170 -45 0 -45 0 0 170 0 169 -62 3 c-57 3 -63 5
-66 26 -8 51 -5 52 178 52 l170 0 0 -40z m200 -171 l0 -210 -42 3 -41 3 1 205
c1 113 2 206 2 208 0 1 18 2 40 2 l40 0 0 -211z m1380 41 l0 -170 105 0 105 0
0 -40 0 -41 -147 3 -148 3 -3 195 c-1 107 0 200 2 207 3 8 22 13 46 13 l40 0
0 -170z m642 -34 c48 -110 88 -203 88 -208 0 -4 -18 -8 -40 -8 -38 0 -41 3
-65 50 l-25 50 -93 0 -92 0 -22 -50 c-21 -48 -23 -50 -62 -50 -23 0 -41 2 -41
5 0 5 98 233 154 358 l26 58 42 -3 41 -3 89 -199z m460 194 c71 -20 98 -92 59
-155 l-18 -30 28 -33 c38 -43 39 -98 4 -141 -33 -39 -99 -53 -233 -49 l-102 3
-5 198 c-3 110 -2 203 1 208 7 12 220 11 266 -1z m2067 -1675 c27 -65 100
-135 166 -161 41 -15 60 -34 35 -34 -26 0 -102 -45 -139 -82 -22 -23 -50 -65
-63 -95 -12 -29 -24 -53 -27 -53 -3 0 -17 25 -30 55 -28 65 -97 133 -163 161
-27 10 -48 22 -48 25 0 4 21 14 47 24 66 25 137 95 164 161 13 30 26 54 29 54
3 0 17 -25 29 -55z"/>
<path d="M5057 8503 c-38 -100 -95 -293 -117 -397 -47 -221 -90 -533 -90 -658
l0 -38 54 0 54 0 6 168 c11 263 44 569 85 787 21 110 37 201 36 203 -2 2 -14
-27 -28 -65z"/>
<path d="M4485 4568 c-14 -20 -294 -444 -554 -841 -91 -138 -100 -179 -53
-227 l30 -30 1212 0 1212 0 29 29 c53 53 42 86 -98 296 -43 66 -108 165 -144
220 -35 55 -135 207 -221 337 l-158 238 -619 0 -620 0 -16 -22z"/>
<path d="M2287 2353 c-4 -3 -7 -26 -7 -50 l0 -43 65 0 c51 0 69 4 85 20 25 25
14 62 -21 71 -32 9 -114 11 -122 2z"/>
<path d="M2282 2138 l3 -53 50 -3 c28 -2 69 3 90 10 32 10 41 19 43 40 5 41
-29 58 -116 58 l-73 0 3 -52z"/>
<path d="M2822 2255 l-31 -75 64 0 64 0 -30 72 c-16 39 -31 73 -32 75 -2 1
-17 -31 -35 -72z"/>
<path d="M7016 2259 c-14 -33 -26 -65 -26 -70 0 -5 27 -9 61 -9 45 0 60 3 56
13 -33 84 -53 127 -58 127 -4 0 -18 -27 -33 -61z"/>
<path d="M7467 2353 c-4 -3 -7 -26 -7 -50 l0 -43 68 0 c55 0 72 4 86 19 39 43
-3 81 -90 81 -28 0 -54 -3 -57 -7z"/>
<path d="M7462 2138 l3 -53 79 1 c69 0 81 3 97 23 10 12 15 30 12 39 -11 33
-36 42 -115 42 l-79 0 3 -52z"/>
</g>
</svg>
