<svg xmlns="http://www.w3.org/2000/svg" width="510" height="510" viewBox="-2.55 -2.55 5.1 5.1" shape-rendering="geometricPrecision">
  <clipPath id="clip0">
    <path id="batch-0" d="M 2.55 2.55 L -2.55 2.55 L -2.55 -1.173 L -1.173 -1.173 L -1.173 -2.55 L 1.173 -2.55 L 1.173 -1.173 L 2.55 -1.173 Z" fill="none" stroke="none" stroke-width="0" stroke-linejoin="miter" stroke-linecap="miter"/>
  </clipPath>
  <g id="clipgroup-0" clip-path="url(#clip0)">
    <path id="batch-1" d="M 2.55 2.55 L -2.55 2.55 L -2.55 -1.173 L -1.173 -1.173 L -1.173 -2.55 L 1.173 -2.55 L 1.173 -1.173 L 2.55 -1.173 Z" fill="green" stroke="none" stroke-width="0" stroke-linejoin="miter" stroke-linecap="miter"/>
    <circle id="dot-0" cx="0" cy="0" r="0.204" fill="orange"/>
    <circle id="circle-0" cx="0" cy="0" r="0.51" fill="none" stroke="white" stroke-width="0.01"/>
    <path id="label-0" d="M -0.5959 0.4409 L -0.4859 0.4409 M -0.5959 0.4409 L -0.5959 0.5409 M -0.4859 0.4409 L -0.4859 0.5409 M -0.5959 0.5409 L -0.4859 0.5409 M -0.4859 0.5409 L -0.4859 0.6409 M -0.5959 0.6409 L -0.4859 0.6409" fill="none" stroke="white" stroke-width="0.018" stroke-linejoin="round" stroke-linecap="round"/>
    <circle id="circle-1" cx="0" cy="0" r="1.02" fill="none" stroke="white" stroke-width="0.01"/>
    <path id="label-1" d="M -0.9566 0.8016 L -0.8466 0.8016 M -0.9566 0.8016 L -0.9566 0.9016 M -0.8466 0.8016 L -0.8466 0.9016 M -0.9566 0.9016 L -0.8466 0.9016 M -0.9566 0.9016 L -0.9566 1.0016 M -0.8466 0.9016 L -0.8466 1.0016 M -0.9566 1.0016 L -0.8466 1.0016" fill="none" stroke="white" stroke-width="0.018" stroke-linejoin="round" stroke-linecap="round"/>
    <circle id="circle-2" cx="0" cy="0" r="1.53" fill="none" stroke="white" stroke-width="0.01"/>
    <path id="label-2" d="M -1.3172 1.1622 L -1.2072 1.1622 M -1.2072 1.1622 L -1.2072 1.2622 M -1.2072 1.2622 L -1.2072 1.3622" fill="none" stroke="white" stroke-width="0.018" stroke-linejoin="round" stroke-linecap="round"/>
    <circle id="circle-3" cx="0" cy="0" r="2.04" fill="none" stroke="white" stroke-width="0.01"/>
    <path id="label-3" d="M -1.6778 1.5228 L -1.5678 1.5228 M -1.6778 1.5228 L -1.6778 1.6228 M -1.6778 1.6228 L -1.5678 1.6228 M -1.6778 1.6228 L -1.6778 1.7228 M -1.5678 1.6228 L -1.5678 1.7228 M -1.6778 1.7228 L -1.5678 1.7228" fill="none" stroke="white" stroke-width="0.018" stroke-linejoin="round" stroke-linecap="round"/>
    <circle id="circle-4" cx="0" cy="0" r="2.55" fill="none" stroke="white" stroke-width="0.01"/>
    <path id="label-4" d="M -2.0384 1.8834 L -1.9284 1.8834 M -2.0384 1.8834 L -2.0384 1.9834 M -2.0384 1.9834 L -1.9284 1.9834 M -1.9284 1.9834 L -1.9284 2.0834 M -2.0384 2.0834 L -1.9284 2.0834" fill="none" stroke="white" stroke-width="0.018" stroke-linejoin="round" stroke-linecap="round"/>
  </g>
</svg>